G04 EAGLE Gerber RS-274X export*
G75*
%MOMM*%
%FSLAX34Y34*%
%LPD*%
%INBottom Copper*%
%IPPOS*%
%AMOC8*
5,1,8,0,0,1.08239X$1,22.5*%
G01*
%ADD10C,1.524000*%
%ADD11R,1.879600X1.879600*%
%ADD12C,1.879600*%
%ADD13R,1.300000X1.500000*%
%ADD14P,1.539592X8X22.500000*%
%ADD15C,1.270000*%
%ADD16C,0.525000*%
%ADD17C,0.508000*%


D10*
X1170940Y53340D02*
X1186180Y53340D01*
X1186180Y27940D02*
X1170940Y27940D01*
D11*
X124500Y464880D03*
D12*
X149900Y464880D03*
X175300Y464880D03*
X200700Y464880D03*
X226100Y464880D03*
X251500Y464880D03*
X276900Y464880D03*
X302300Y464880D03*
X327700Y464880D03*
X353100Y464880D03*
X378500Y464880D03*
X403900Y464880D03*
X429300Y464880D03*
X454700Y464880D03*
X480100Y464880D03*
X505500Y464880D03*
D13*
X498958Y425450D03*
X479958Y425450D03*
D10*
X991870Y205740D02*
X991870Y190500D01*
X966470Y190500D02*
X966470Y205740D01*
X941070Y205740D02*
X941070Y190500D01*
X915670Y190500D02*
X915670Y205740D01*
D14*
X1432560Y187960D03*
X1432560Y264160D03*
X1432560Y289560D03*
X1432560Y365760D03*
X1178560Y264160D03*
X1178560Y238760D03*
X1178560Y289560D03*
X1432560Y238760D03*
X1432560Y391160D03*
X1432560Y416560D03*
X1432560Y441960D03*
X1432560Y518160D03*
X1432560Y543560D03*
X1178560Y365760D03*
X1178560Y340360D03*
X1178560Y314960D03*
X1178560Y416560D03*
X1178560Y391160D03*
X1178560Y467360D03*
X1178560Y441960D03*
X1178560Y543560D03*
X1178560Y213360D03*
X1432560Y213360D03*
X1432560Y467360D03*
X1432560Y314960D03*
X1432560Y492760D03*
X1432560Y340360D03*
X1178560Y187960D03*
X1178560Y492760D03*
X1178560Y518160D03*
D10*
X484632Y40894D02*
X469392Y40894D01*
X419608Y40894D02*
X404368Y40894D01*
X469392Y86106D02*
X484632Y86106D01*
X419608Y86106D02*
X404368Y86106D01*
X188722Y40894D02*
X173482Y40894D01*
X123698Y40894D02*
X108458Y40894D01*
X173482Y86106D02*
X188722Y86106D01*
X123698Y86106D02*
X108458Y86106D01*
X751332Y40894D02*
X766572Y40894D01*
X701548Y40894D02*
X686308Y40894D01*
X751332Y86106D02*
X766572Y86106D01*
X701548Y86106D02*
X686308Y86106D01*
X933450Y76200D02*
X933450Y60960D01*
X984250Y60960D02*
X984250Y76200D01*
X966470Y119380D02*
X951230Y119380D01*
D15*
X479958Y425450D02*
X479958Y464738D01*
X480100Y464880D01*
D16*
X880110Y167640D03*
D15*
X622300Y425450D01*
X498958Y425450D01*
X1178560Y187960D02*
X1178560Y53340D01*
D17*
X1374140Y289560D02*
X1432560Y289560D01*
X1374140Y289560D02*
X1234440Y429260D01*
X1158240Y429260D02*
X1094740Y492760D01*
X1158240Y429260D02*
X1234440Y429260D01*
X457180Y492760D02*
X429300Y464880D01*
X457180Y492760D02*
X1094740Y492760D01*
X1374140Y314960D02*
X1432560Y314960D01*
X1157351Y454660D02*
X1112647Y499364D01*
X1234440Y454660D02*
X1374140Y314960D01*
X1234440Y454660D02*
X1157351Y454660D01*
X1112647Y499364D02*
X438384Y499364D01*
X403900Y464880D01*
X1374140Y340360D02*
X1432560Y340360D01*
X1374140Y340360D02*
X1234440Y480060D01*
X1155700Y480060D01*
X1129792Y505968D01*
X419588Y505968D01*
X378500Y464880D01*
X1234758Y505778D02*
X1374775Y365760D01*
X1432560Y365760D01*
X1234758Y505778D02*
X1156018Y505778D01*
X1149223Y512572D02*
X299192Y512572D01*
X1149223Y512572D02*
X1156018Y505778D01*
X299192Y512572D02*
X251500Y464880D01*
X1373759Y391160D02*
X1432560Y391160D01*
X1373759Y391160D02*
X1234059Y530860D01*
X266680Y530860D02*
X200700Y464880D01*
X266680Y530860D02*
X1234059Y530860D01*
X1178560Y365760D02*
X1041400Y228600D01*
X1041400Y55880D01*
X1026414Y40894D01*
X758952Y40894D01*
X489966Y27940D02*
X1038987Y27940D01*
X1066800Y228600D02*
X1178560Y340360D01*
X1066800Y228600D02*
X1066800Y55753D01*
X1038987Y27940D01*
X489966Y27940D02*
X477012Y40894D01*
X1054100Y15240D02*
X1092200Y53340D01*
X1092200Y228600D02*
X1178560Y314960D01*
X1092200Y228600D02*
X1092200Y53340D01*
X206756Y15240D02*
X181102Y40894D01*
X206756Y15240D02*
X1054100Y15240D01*
X958850Y119380D02*
X899160Y119380D01*
X633476Y385064D01*
X255116Y385064D01*
X175300Y464880D01*
X1374140Y264160D02*
X1432560Y264160D01*
X1374140Y264160D02*
X1234440Y403860D01*
X1158240Y403860D02*
X1076960Y485140D01*
X1158240Y403860D02*
X1234440Y403860D01*
X1076960Y485140D02*
X474960Y485140D01*
X454700Y464880D01*
M02*
