G04 EAGLE Gerber RS-274X export*
G75*
%MOMM*%
%FSLAX34Y34*%
%LPD*%
%INTop Copper*%
%IPPOS*%
%AMOC8*
5,1,8,0,0,1.08239X$1,22.5*%
G01*
%ADD10R,2.200000X2.000000*%
%ADD11R,1.800000X1.600000*%
%ADD12R,1.600000X1.800000*%
%ADD13C,1.524000*%
%ADD14R,1.879600X1.879600*%
%ADD15C,1.879600*%
%ADD16R,1.400000X1.000000*%
%ADD17R,1.300000X1.500000*%
%ADD18R,1.500000X1.300000*%
%ADD19P,1.539592X8X22.500000*%
%ADD20R,1.200000X0.600000*%
%ADD21C,1.270000*%
%ADD22C,0.525000*%
%ADD23C,0.508000*%

G36*
X1495826Y2036D02*
X1495826Y2036D01*
X1495845Y2034D01*
X1495947Y2056D01*
X1496049Y2072D01*
X1496066Y2082D01*
X1496086Y2086D01*
X1496175Y2139D01*
X1496266Y2188D01*
X1496280Y2202D01*
X1496297Y2212D01*
X1496364Y2291D01*
X1496436Y2366D01*
X1496444Y2384D01*
X1496457Y2399D01*
X1496496Y2495D01*
X1496539Y2589D01*
X1496541Y2609D01*
X1496549Y2627D01*
X1496567Y2794D01*
X1496567Y556006D01*
X1496564Y556026D01*
X1496566Y556045D01*
X1496544Y556147D01*
X1496528Y556249D01*
X1496518Y556266D01*
X1496514Y556286D01*
X1496461Y556375D01*
X1496412Y556466D01*
X1496398Y556480D01*
X1496388Y556497D01*
X1496309Y556564D01*
X1496234Y556636D01*
X1496216Y556644D01*
X1496201Y556657D01*
X1496105Y556696D01*
X1496011Y556739D01*
X1495991Y556741D01*
X1495973Y556749D01*
X1495806Y556767D01*
X2794Y556767D01*
X2774Y556764D01*
X2755Y556766D01*
X2653Y556744D01*
X2551Y556728D01*
X2534Y556718D01*
X2514Y556714D01*
X2425Y556661D01*
X2334Y556612D01*
X2320Y556598D01*
X2303Y556588D01*
X2236Y556509D01*
X2164Y556434D01*
X2156Y556416D01*
X2143Y556401D01*
X2104Y556305D01*
X2061Y556211D01*
X2059Y556191D01*
X2051Y556173D01*
X2033Y556006D01*
X2033Y2794D01*
X2036Y2774D01*
X2034Y2755D01*
X2056Y2653D01*
X2072Y2551D01*
X2082Y2534D01*
X2086Y2514D01*
X2139Y2425D01*
X2188Y2334D01*
X2202Y2320D01*
X2212Y2303D01*
X2291Y2236D01*
X2366Y2164D01*
X2384Y2156D01*
X2399Y2143D01*
X2495Y2104D01*
X2589Y2061D01*
X2609Y2059D01*
X2627Y2051D01*
X2794Y2033D01*
X1495806Y2033D01*
X1495826Y2036D01*
G37*
%LPC*%
G36*
X106285Y29971D02*
X106285Y29971D01*
X102271Y31634D01*
X99198Y34707D01*
X97535Y38721D01*
X97535Y43067D01*
X99198Y47081D01*
X102271Y50154D01*
X106285Y51817D01*
X118423Y51817D01*
X118513Y51831D01*
X118604Y51839D01*
X118633Y51851D01*
X118665Y51856D01*
X118746Y51899D01*
X118830Y51935D01*
X118862Y51961D01*
X118883Y51972D01*
X118905Y51995D01*
X118961Y52040D01*
X131094Y64173D01*
X131147Y64247D01*
X131207Y64317D01*
X131219Y64347D01*
X131238Y64373D01*
X131265Y64460D01*
X131299Y64545D01*
X131303Y64586D01*
X131310Y64608D01*
X131309Y64640D01*
X131317Y64711D01*
X131317Y77588D01*
X131315Y77600D01*
X131317Y77612D01*
X131295Y77721D01*
X131278Y77831D01*
X131272Y77842D01*
X131270Y77853D01*
X131214Y77951D01*
X131162Y78048D01*
X131154Y78057D01*
X131148Y78067D01*
X131065Y78141D01*
X130984Y78218D01*
X130973Y78223D01*
X130964Y78231D01*
X130862Y78275D01*
X130761Y78321D01*
X130749Y78323D01*
X130738Y78327D01*
X130627Y78336D01*
X130517Y78349D01*
X130505Y78346D01*
X130493Y78347D01*
X130385Y78320D01*
X130276Y78296D01*
X130266Y78290D01*
X130254Y78287D01*
X130109Y78204D01*
X129023Y77416D01*
X127598Y76690D01*
X126077Y76195D01*
X124498Y75945D01*
X117601Y75945D01*
X117601Y85344D01*
X117598Y85364D01*
X117600Y85383D01*
X117578Y85485D01*
X117561Y85587D01*
X117552Y85604D01*
X117548Y85624D01*
X117495Y85713D01*
X117446Y85804D01*
X117432Y85818D01*
X117422Y85835D01*
X117343Y85902D01*
X117268Y85973D01*
X117250Y85982D01*
X117235Y85995D01*
X117139Y86033D01*
X117045Y86077D01*
X117025Y86079D01*
X117007Y86087D01*
X116840Y86105D01*
X116077Y86105D01*
X116077Y86107D01*
X116840Y86107D01*
X116860Y86110D01*
X116879Y86108D01*
X116981Y86130D01*
X117083Y86147D01*
X117100Y86156D01*
X117120Y86160D01*
X117209Y86213D01*
X117300Y86262D01*
X117314Y86276D01*
X117331Y86286D01*
X117398Y86365D01*
X117469Y86440D01*
X117478Y86458D01*
X117491Y86473D01*
X117530Y86569D01*
X117573Y86663D01*
X117575Y86683D01*
X117583Y86701D01*
X117601Y86868D01*
X117601Y96267D01*
X124358Y96267D01*
X124378Y96270D01*
X124397Y96268D01*
X124499Y96290D01*
X124601Y96306D01*
X124618Y96316D01*
X124638Y96320D01*
X124727Y96373D01*
X124818Y96422D01*
X124832Y96436D01*
X124849Y96446D01*
X124916Y96525D01*
X124988Y96600D01*
X124996Y96618D01*
X125009Y96633D01*
X125048Y96729D01*
X125091Y96823D01*
X125093Y96843D01*
X125101Y96861D01*
X125119Y97028D01*
X125119Y107816D01*
X125116Y107836D01*
X125118Y107855D01*
X125096Y107957D01*
X125080Y108059D01*
X125070Y108076D01*
X125066Y108096D01*
X125013Y108185D01*
X124964Y108276D01*
X124950Y108290D01*
X124940Y108307D01*
X124861Y108374D01*
X124786Y108446D01*
X124768Y108454D01*
X124753Y108467D01*
X124657Y108506D01*
X124563Y108549D01*
X124543Y108551D01*
X124525Y108559D01*
X124358Y108577D01*
X123094Y108577D01*
X121159Y110512D01*
X121159Y128248D01*
X123094Y130183D01*
X138830Y130183D01*
X139924Y129089D01*
X139940Y129077D01*
X139952Y129062D01*
X140040Y129006D01*
X140123Y128946D01*
X140142Y128940D01*
X140159Y128929D01*
X140260Y128904D01*
X140359Y128873D01*
X140378Y128874D01*
X140398Y128869D01*
X140501Y128877D01*
X140604Y128880D01*
X140623Y128886D01*
X140643Y128888D01*
X140738Y128928D01*
X140835Y128964D01*
X140851Y128976D01*
X140869Y128984D01*
X141000Y129089D01*
X142094Y130183D01*
X146798Y130183D01*
X146888Y130197D01*
X146979Y130205D01*
X147009Y130217D01*
X147041Y130222D01*
X147122Y130265D01*
X147206Y130301D01*
X147238Y130327D01*
X147259Y130338D01*
X147281Y130361D01*
X147337Y130406D01*
X158633Y141702D01*
X158644Y141718D01*
X158660Y141730D01*
X158716Y141818D01*
X158776Y141901D01*
X158782Y141920D01*
X158793Y141937D01*
X158818Y142038D01*
X158849Y142137D01*
X158848Y142156D01*
X158853Y142176D01*
X158845Y142279D01*
X158842Y142382D01*
X158835Y142401D01*
X158834Y142421D01*
X158794Y142516D01*
X158758Y142613D01*
X158745Y142629D01*
X158738Y142647D01*
X158633Y142778D01*
X144645Y156766D01*
X144592Y156804D01*
X144545Y156850D01*
X144472Y156890D01*
X144445Y156909D01*
X144437Y156912D01*
X141717Y159632D01*
X140247Y163180D01*
X140247Y456256D01*
X140233Y456346D01*
X140225Y456437D01*
X140213Y456467D01*
X140208Y456499D01*
X140165Y456579D01*
X140129Y456663D01*
X140103Y456695D01*
X140092Y456716D01*
X140069Y456738D01*
X140024Y456794D01*
X139133Y457686D01*
X137903Y460654D01*
X137852Y460737D01*
X137806Y460823D01*
X137787Y460841D01*
X137774Y460863D01*
X137699Y460925D01*
X137628Y460992D01*
X137604Y461003D01*
X137584Y461020D01*
X137493Y461055D01*
X137405Y461096D01*
X137379Y461099D01*
X137355Y461108D01*
X137257Y461112D01*
X137161Y461123D01*
X137135Y461117D01*
X137109Y461119D01*
X137015Y461091D01*
X136920Y461071D01*
X136898Y461057D01*
X136873Y461050D01*
X136793Y460994D01*
X136709Y460945D01*
X136692Y460925D01*
X136671Y460910D01*
X136612Y460831D01*
X136549Y460758D01*
X136539Y460733D01*
X136524Y460712D01*
X136494Y460620D01*
X136457Y460529D01*
X136454Y460497D01*
X136448Y460478D01*
X136448Y460445D01*
X136439Y460363D01*
X136439Y455148D01*
X136266Y454501D01*
X135931Y453922D01*
X135458Y453449D01*
X134879Y453114D01*
X134232Y452941D01*
X126023Y452941D01*
X126023Y464118D01*
X126020Y464135D01*
X126022Y464151D01*
X126022Y464153D01*
X126022Y464157D01*
X126000Y464259D01*
X125983Y464361D01*
X125974Y464378D01*
X125970Y464398D01*
X125917Y464487D01*
X125868Y464578D01*
X125854Y464592D01*
X125844Y464609D01*
X125765Y464676D01*
X125690Y464747D01*
X125672Y464756D01*
X125657Y464769D01*
X125561Y464807D01*
X125467Y464851D01*
X125447Y464853D01*
X125429Y464861D01*
X125262Y464879D01*
X124499Y464879D01*
X124499Y464881D01*
X125262Y464881D01*
X125282Y464884D01*
X125301Y464882D01*
X125403Y464904D01*
X125505Y464921D01*
X125522Y464930D01*
X125542Y464934D01*
X125631Y464987D01*
X125722Y465036D01*
X125736Y465050D01*
X125753Y465060D01*
X125820Y465139D01*
X125891Y465214D01*
X125900Y465232D01*
X125913Y465247D01*
X125952Y465343D01*
X125995Y465437D01*
X125997Y465457D01*
X126005Y465475D01*
X126023Y465642D01*
X126023Y476819D01*
X134232Y476819D01*
X134879Y476646D01*
X135458Y476311D01*
X135931Y475838D01*
X136266Y475259D01*
X136439Y474612D01*
X136439Y469397D01*
X136454Y469301D01*
X136464Y469204D01*
X136474Y469180D01*
X136478Y469155D01*
X136524Y469069D01*
X136564Y468980D01*
X136581Y468960D01*
X136594Y468937D01*
X136664Y468870D01*
X136730Y468798D01*
X136753Y468786D01*
X136772Y468768D01*
X136860Y468727D01*
X136946Y468680D01*
X136971Y468675D01*
X136995Y468664D01*
X137092Y468653D01*
X137188Y468636D01*
X137214Y468640D01*
X137239Y468637D01*
X137335Y468658D01*
X137431Y468672D01*
X137454Y468684D01*
X137480Y468689D01*
X137563Y468739D01*
X137650Y468783D01*
X137669Y468802D01*
X137691Y468815D01*
X137754Y468889D01*
X137822Y468959D01*
X137838Y468988D01*
X137851Y469002D01*
X137863Y469033D01*
X137903Y469106D01*
X139133Y472074D01*
X142706Y475647D01*
X147374Y477581D01*
X152426Y477581D01*
X157094Y475647D01*
X160667Y472074D01*
X161897Y469106D01*
X161934Y469045D01*
X161964Y468980D01*
X161999Y468941D01*
X162026Y468897D01*
X162081Y468851D01*
X162130Y468798D01*
X162176Y468773D01*
X162216Y468740D01*
X162283Y468714D01*
X162346Y468680D01*
X162397Y468671D01*
X162445Y468652D01*
X162517Y468649D01*
X162588Y468636D01*
X162639Y468644D01*
X162691Y468642D01*
X162760Y468662D01*
X162831Y468672D01*
X162877Y468696D01*
X162927Y468710D01*
X162986Y468751D01*
X163050Y468783D01*
X163087Y468821D01*
X163129Y468850D01*
X163172Y468908D01*
X163222Y468959D01*
X163257Y469022D01*
X163276Y469048D01*
X163283Y469070D01*
X163303Y469106D01*
X164533Y472074D01*
X168106Y475647D01*
X172774Y477581D01*
X177826Y477581D01*
X182494Y475647D01*
X186067Y472074D01*
X187297Y469106D01*
X187334Y469045D01*
X187364Y468980D01*
X187399Y468941D01*
X187426Y468897D01*
X187481Y468851D01*
X187530Y468798D01*
X187576Y468773D01*
X187616Y468740D01*
X187683Y468714D01*
X187746Y468680D01*
X187797Y468671D01*
X187845Y468652D01*
X187917Y468649D01*
X187988Y468636D01*
X188039Y468644D01*
X188091Y468642D01*
X188160Y468662D01*
X188231Y468672D01*
X188277Y468696D01*
X188327Y468710D01*
X188386Y468751D01*
X188450Y468783D01*
X188487Y468821D01*
X188529Y468850D01*
X188572Y468908D01*
X188622Y468959D01*
X188657Y469022D01*
X188676Y469048D01*
X188683Y469070D01*
X188703Y469106D01*
X189933Y472074D01*
X193506Y475647D01*
X198174Y477581D01*
X203226Y477581D01*
X207894Y475647D01*
X211467Y472074D01*
X213153Y468004D01*
X213206Y467918D01*
X213255Y467829D01*
X213271Y467814D01*
X213283Y467795D01*
X213361Y467731D01*
X213435Y467662D01*
X213455Y467653D01*
X213472Y467639D01*
X213567Y467602D01*
X213659Y467561D01*
X213681Y467558D01*
X213702Y467550D01*
X213803Y467546D01*
X213904Y467536D01*
X213925Y467541D01*
X213947Y467540D01*
X214045Y467568D01*
X214143Y467591D01*
X214162Y467602D01*
X214184Y467608D01*
X214267Y467666D01*
X214353Y467719D01*
X214368Y467736D01*
X214386Y467749D01*
X214446Y467830D01*
X214511Y467908D01*
X214523Y467933D01*
X214533Y467946D01*
X214543Y467977D01*
X214580Y468061D01*
X215036Y469463D01*
X215889Y471137D01*
X216994Y472658D01*
X218322Y473986D01*
X219843Y475091D01*
X221517Y475944D01*
X223304Y476525D01*
X224577Y476726D01*
X224577Y465642D01*
X224580Y465622D01*
X224578Y465603D01*
X224600Y465501D01*
X224617Y465399D01*
X224626Y465382D01*
X224630Y465362D01*
X224683Y465273D01*
X224732Y465182D01*
X224746Y465168D01*
X224756Y465151D01*
X224835Y465084D01*
X224910Y465013D01*
X224928Y465004D01*
X224943Y464991D01*
X225039Y464953D01*
X225133Y464909D01*
X225153Y464907D01*
X225171Y464899D01*
X225338Y464881D01*
X226862Y464881D01*
X226882Y464884D01*
X226901Y464882D01*
X227003Y464904D01*
X227105Y464921D01*
X227122Y464930D01*
X227142Y464934D01*
X227231Y464987D01*
X227322Y465036D01*
X227336Y465050D01*
X227353Y465060D01*
X227420Y465139D01*
X227491Y465214D01*
X227500Y465232D01*
X227513Y465247D01*
X227552Y465343D01*
X227595Y465437D01*
X227597Y465457D01*
X227605Y465475D01*
X227623Y465642D01*
X227623Y476726D01*
X228896Y476525D01*
X230683Y475944D01*
X232357Y475091D01*
X233878Y473986D01*
X235206Y472658D01*
X236311Y471137D01*
X237164Y469463D01*
X237620Y468061D01*
X237666Y467971D01*
X237707Y467878D01*
X237722Y467862D01*
X237733Y467842D01*
X237805Y467772D01*
X237874Y467697D01*
X237893Y467686D01*
X237909Y467671D01*
X238000Y467627D01*
X238089Y467578D01*
X238111Y467574D01*
X238131Y467565D01*
X238232Y467553D01*
X238331Y467535D01*
X238353Y467538D01*
X238375Y467535D01*
X238474Y467556D01*
X238575Y467570D01*
X238594Y467580D01*
X238616Y467585D01*
X238703Y467636D01*
X238794Y467682D01*
X238809Y467698D01*
X238829Y467709D01*
X238895Y467785D01*
X238966Y467857D01*
X238979Y467882D01*
X238990Y467894D01*
X239003Y467924D01*
X239047Y468004D01*
X240733Y472074D01*
X244306Y475647D01*
X248974Y477581D01*
X254026Y477581D01*
X258694Y475647D01*
X262267Y472074D01*
X263497Y469106D01*
X263534Y469045D01*
X263564Y468980D01*
X263599Y468941D01*
X263626Y468897D01*
X263681Y468851D01*
X263730Y468798D01*
X263776Y468773D01*
X263816Y468740D01*
X263883Y468714D01*
X263946Y468680D01*
X263997Y468671D01*
X264045Y468652D01*
X264117Y468649D01*
X264188Y468636D01*
X264239Y468644D01*
X264291Y468642D01*
X264360Y468662D01*
X264431Y468672D01*
X264477Y468696D01*
X264527Y468710D01*
X264586Y468751D01*
X264650Y468783D01*
X264687Y468821D01*
X264729Y468850D01*
X264772Y468908D01*
X264822Y468959D01*
X264857Y469022D01*
X264876Y469048D01*
X264883Y469070D01*
X264903Y469106D01*
X266133Y472074D01*
X269706Y475647D01*
X274374Y477581D01*
X279426Y477581D01*
X284094Y475647D01*
X287667Y472074D01*
X288897Y469106D01*
X288934Y469045D01*
X288964Y468980D01*
X288999Y468941D01*
X289026Y468897D01*
X289081Y468851D01*
X289130Y468798D01*
X289176Y468773D01*
X289216Y468740D01*
X289283Y468714D01*
X289346Y468680D01*
X289397Y468671D01*
X289445Y468652D01*
X289517Y468649D01*
X289588Y468636D01*
X289639Y468644D01*
X289691Y468642D01*
X289760Y468662D01*
X289831Y468672D01*
X289877Y468696D01*
X289927Y468710D01*
X289986Y468751D01*
X290050Y468783D01*
X290087Y468821D01*
X290129Y468850D01*
X290172Y468908D01*
X290222Y468959D01*
X290257Y469022D01*
X290276Y469048D01*
X290283Y469070D01*
X290303Y469106D01*
X291533Y472074D01*
X295106Y475647D01*
X299774Y477581D01*
X304826Y477581D01*
X309494Y475647D01*
X313067Y472074D01*
X314297Y469106D01*
X314334Y469045D01*
X314364Y468980D01*
X314399Y468941D01*
X314426Y468897D01*
X314481Y468851D01*
X314530Y468798D01*
X314576Y468773D01*
X314616Y468740D01*
X314683Y468714D01*
X314746Y468680D01*
X314797Y468671D01*
X314845Y468652D01*
X314917Y468649D01*
X314988Y468636D01*
X315039Y468644D01*
X315091Y468642D01*
X315160Y468662D01*
X315231Y468672D01*
X315277Y468696D01*
X315327Y468710D01*
X315386Y468751D01*
X315450Y468783D01*
X315487Y468821D01*
X315529Y468850D01*
X315572Y468908D01*
X315622Y468959D01*
X315657Y469022D01*
X315676Y469048D01*
X315683Y469070D01*
X315703Y469106D01*
X316933Y472074D01*
X320506Y475647D01*
X325174Y477581D01*
X330226Y477581D01*
X334894Y475647D01*
X338467Y472074D01*
X339697Y469106D01*
X339734Y469045D01*
X339764Y468980D01*
X339799Y468941D01*
X339826Y468897D01*
X339881Y468851D01*
X339930Y468798D01*
X339976Y468773D01*
X340016Y468740D01*
X340083Y468714D01*
X340146Y468680D01*
X340197Y468671D01*
X340245Y468652D01*
X340317Y468649D01*
X340388Y468636D01*
X340439Y468644D01*
X340491Y468642D01*
X340560Y468662D01*
X340631Y468672D01*
X340677Y468696D01*
X340727Y468710D01*
X340786Y468751D01*
X340850Y468783D01*
X340887Y468821D01*
X340929Y468850D01*
X340972Y468908D01*
X341022Y468959D01*
X341057Y469022D01*
X341076Y469048D01*
X341083Y469070D01*
X341103Y469106D01*
X342333Y472074D01*
X345906Y475647D01*
X350574Y477581D01*
X355626Y477581D01*
X360294Y475647D01*
X363867Y472074D01*
X365097Y469106D01*
X365134Y469045D01*
X365164Y468980D01*
X365199Y468941D01*
X365226Y468897D01*
X365281Y468851D01*
X365330Y468798D01*
X365376Y468773D01*
X365416Y468740D01*
X365483Y468714D01*
X365546Y468680D01*
X365597Y468671D01*
X365645Y468652D01*
X365717Y468649D01*
X365788Y468636D01*
X365839Y468644D01*
X365891Y468642D01*
X365960Y468662D01*
X366031Y468672D01*
X366077Y468696D01*
X366127Y468710D01*
X366186Y468751D01*
X366250Y468783D01*
X366287Y468821D01*
X366329Y468850D01*
X366372Y468908D01*
X366422Y468959D01*
X366457Y469022D01*
X366476Y469048D01*
X366483Y469070D01*
X366503Y469106D01*
X367733Y472074D01*
X371306Y475647D01*
X375974Y477581D01*
X381026Y477581D01*
X385694Y475647D01*
X389267Y472074D01*
X390497Y469106D01*
X390534Y469045D01*
X390564Y468980D01*
X390599Y468941D01*
X390626Y468897D01*
X390681Y468851D01*
X390730Y468798D01*
X390776Y468773D01*
X390816Y468740D01*
X390883Y468714D01*
X390946Y468680D01*
X390997Y468671D01*
X391045Y468652D01*
X391117Y468649D01*
X391188Y468636D01*
X391239Y468644D01*
X391291Y468642D01*
X391360Y468662D01*
X391431Y468672D01*
X391477Y468696D01*
X391527Y468710D01*
X391586Y468751D01*
X391650Y468783D01*
X391687Y468821D01*
X391729Y468850D01*
X391772Y468908D01*
X391822Y468959D01*
X391857Y469022D01*
X391876Y469048D01*
X391883Y469070D01*
X391903Y469106D01*
X393133Y472074D01*
X396706Y475647D01*
X401374Y477581D01*
X406426Y477581D01*
X411094Y475647D01*
X414667Y472074D01*
X415897Y469106D01*
X415934Y469045D01*
X415964Y468980D01*
X415999Y468941D01*
X416026Y468897D01*
X416081Y468851D01*
X416130Y468798D01*
X416176Y468773D01*
X416216Y468740D01*
X416283Y468714D01*
X416346Y468680D01*
X416397Y468671D01*
X416445Y468652D01*
X416517Y468649D01*
X416588Y468636D01*
X416639Y468644D01*
X416691Y468642D01*
X416760Y468662D01*
X416831Y468672D01*
X416877Y468696D01*
X416927Y468710D01*
X416986Y468751D01*
X417050Y468783D01*
X417087Y468821D01*
X417129Y468850D01*
X417172Y468908D01*
X417222Y468959D01*
X417257Y469022D01*
X417276Y469048D01*
X417283Y469070D01*
X417303Y469106D01*
X418533Y472074D01*
X422106Y475647D01*
X426774Y477581D01*
X431826Y477581D01*
X436494Y475647D01*
X440067Y472074D01*
X441297Y469106D01*
X441334Y469045D01*
X441364Y468980D01*
X441399Y468941D01*
X441426Y468897D01*
X441481Y468851D01*
X441530Y468798D01*
X441576Y468773D01*
X441616Y468740D01*
X441683Y468714D01*
X441746Y468680D01*
X441797Y468671D01*
X441845Y468652D01*
X441917Y468649D01*
X441988Y468636D01*
X442039Y468644D01*
X442091Y468642D01*
X442160Y468662D01*
X442231Y468672D01*
X442277Y468696D01*
X442327Y468710D01*
X442386Y468751D01*
X442450Y468783D01*
X442487Y468821D01*
X442529Y468850D01*
X442572Y468908D01*
X442622Y468959D01*
X442657Y469022D01*
X442676Y469048D01*
X442683Y469070D01*
X442703Y469106D01*
X443933Y472074D01*
X447506Y475647D01*
X452174Y477581D01*
X457226Y477581D01*
X461894Y475647D01*
X465467Y472074D01*
X466697Y469106D01*
X466734Y469045D01*
X466764Y468980D01*
X466799Y468941D01*
X466826Y468897D01*
X466881Y468851D01*
X466930Y468798D01*
X466976Y468773D01*
X467016Y468740D01*
X467083Y468714D01*
X467146Y468680D01*
X467197Y468671D01*
X467245Y468652D01*
X467317Y468649D01*
X467388Y468636D01*
X467439Y468644D01*
X467491Y468642D01*
X467560Y468662D01*
X467631Y468672D01*
X467677Y468696D01*
X467727Y468710D01*
X467786Y468751D01*
X467850Y468783D01*
X467887Y468821D01*
X467929Y468850D01*
X467972Y468908D01*
X468022Y468959D01*
X468057Y469022D01*
X468076Y469048D01*
X468083Y469070D01*
X468103Y469106D01*
X469333Y472074D01*
X472906Y475647D01*
X477574Y477581D01*
X482626Y477581D01*
X487294Y475647D01*
X490867Y472074D01*
X492553Y468004D01*
X492606Y467918D01*
X492655Y467829D01*
X492671Y467814D01*
X492683Y467795D01*
X492761Y467731D01*
X492835Y467662D01*
X492855Y467653D01*
X492872Y467639D01*
X492967Y467602D01*
X493059Y467561D01*
X493081Y467558D01*
X493102Y467550D01*
X493203Y467546D01*
X493304Y467536D01*
X493325Y467541D01*
X493347Y467540D01*
X493445Y467568D01*
X493543Y467591D01*
X493562Y467602D01*
X493584Y467608D01*
X493667Y467666D01*
X493753Y467719D01*
X493768Y467736D01*
X493786Y467749D01*
X493846Y467830D01*
X493911Y467908D01*
X493923Y467933D01*
X493933Y467946D01*
X493943Y467977D01*
X493980Y468061D01*
X494436Y469463D01*
X495289Y471137D01*
X496394Y472658D01*
X497722Y473986D01*
X499243Y475091D01*
X500917Y475944D01*
X502704Y476525D01*
X503977Y476726D01*
X503977Y465642D01*
X503980Y465622D01*
X503978Y465603D01*
X504000Y465501D01*
X504017Y465399D01*
X504026Y465382D01*
X504030Y465362D01*
X504083Y465273D01*
X504132Y465182D01*
X504146Y465168D01*
X504156Y465151D01*
X504235Y465084D01*
X504310Y465013D01*
X504328Y465004D01*
X504343Y464991D01*
X504439Y464953D01*
X504533Y464909D01*
X504553Y464907D01*
X504571Y464899D01*
X504738Y464881D01*
X505501Y464881D01*
X505501Y464879D01*
X504738Y464879D01*
X504718Y464876D01*
X504699Y464878D01*
X504597Y464856D01*
X504495Y464839D01*
X504478Y464830D01*
X504458Y464826D01*
X504369Y464773D01*
X504278Y464724D01*
X504264Y464710D01*
X504247Y464700D01*
X504180Y464621D01*
X504109Y464546D01*
X504100Y464528D01*
X504087Y464513D01*
X504048Y464417D01*
X504005Y464323D01*
X504003Y464303D01*
X503995Y464285D01*
X503977Y464118D01*
X503977Y453034D01*
X502704Y453235D01*
X500917Y453816D01*
X499243Y454669D01*
X497722Y455774D01*
X496394Y457102D01*
X495289Y458623D01*
X494436Y460297D01*
X493980Y461699D01*
X493934Y461789D01*
X493893Y461882D01*
X493878Y461898D01*
X493867Y461918D01*
X493795Y461988D01*
X493726Y462063D01*
X493707Y462074D01*
X493691Y462089D01*
X493600Y462133D01*
X493511Y462182D01*
X493489Y462186D01*
X493469Y462195D01*
X493368Y462207D01*
X493269Y462225D01*
X493247Y462222D01*
X493225Y462225D01*
X493126Y462204D01*
X493025Y462190D01*
X493006Y462180D01*
X492984Y462175D01*
X492897Y462124D01*
X492806Y462078D01*
X492791Y462062D01*
X492771Y462051D01*
X492705Y461975D01*
X492634Y461903D01*
X492621Y461878D01*
X492610Y461866D01*
X492597Y461836D01*
X492553Y461756D01*
X490867Y457686D01*
X487294Y454113D01*
X482626Y452179D01*
X477574Y452179D01*
X472906Y454113D01*
X469333Y457686D01*
X468103Y460654D01*
X468065Y460715D01*
X468036Y460780D01*
X468001Y460819D01*
X467974Y460863D01*
X467918Y460909D01*
X467870Y460962D01*
X467824Y460987D01*
X467784Y461020D01*
X467717Y461046D01*
X467654Y461080D01*
X467603Y461089D01*
X467555Y461108D01*
X467483Y461111D01*
X467412Y461124D01*
X467361Y461116D01*
X467309Y461118D01*
X467240Y461098D01*
X467169Y461088D01*
X467123Y461064D01*
X467073Y461050D01*
X467014Y461009D01*
X466950Y460977D01*
X466913Y460939D01*
X466871Y460910D01*
X466828Y460852D01*
X466778Y460801D01*
X466743Y460738D01*
X466724Y460712D01*
X466717Y460690D01*
X466697Y460654D01*
X465467Y457686D01*
X461894Y454113D01*
X457226Y452179D01*
X452174Y452179D01*
X447506Y454113D01*
X443933Y457686D01*
X442703Y460654D01*
X442665Y460715D01*
X442636Y460780D01*
X442601Y460819D01*
X442574Y460863D01*
X442518Y460909D01*
X442470Y460962D01*
X442424Y460987D01*
X442384Y461020D01*
X442317Y461046D01*
X442254Y461080D01*
X442203Y461089D01*
X442155Y461108D01*
X442083Y461111D01*
X442012Y461124D01*
X441961Y461116D01*
X441909Y461118D01*
X441840Y461098D01*
X441769Y461088D01*
X441723Y461064D01*
X441673Y461050D01*
X441614Y461009D01*
X441550Y460977D01*
X441513Y460939D01*
X441471Y460910D01*
X441428Y460852D01*
X441378Y460801D01*
X441343Y460738D01*
X441324Y460712D01*
X441317Y460690D01*
X441297Y460654D01*
X440067Y457686D01*
X436494Y454113D01*
X431826Y452179D01*
X426774Y452179D01*
X422106Y454113D01*
X418533Y457686D01*
X417303Y460654D01*
X417265Y460715D01*
X417236Y460780D01*
X417201Y460819D01*
X417174Y460863D01*
X417118Y460909D01*
X417070Y460962D01*
X417024Y460987D01*
X416984Y461020D01*
X416917Y461046D01*
X416854Y461080D01*
X416803Y461089D01*
X416755Y461108D01*
X416683Y461111D01*
X416612Y461124D01*
X416561Y461116D01*
X416509Y461118D01*
X416440Y461098D01*
X416369Y461088D01*
X416323Y461064D01*
X416273Y461050D01*
X416214Y461009D01*
X416150Y460977D01*
X416113Y460939D01*
X416071Y460910D01*
X416028Y460852D01*
X415978Y460801D01*
X415943Y460738D01*
X415924Y460712D01*
X415917Y460690D01*
X415897Y460654D01*
X414667Y457686D01*
X411094Y454113D01*
X406426Y452179D01*
X401374Y452179D01*
X396706Y454113D01*
X393133Y457686D01*
X391903Y460654D01*
X391865Y460715D01*
X391836Y460780D01*
X391801Y460819D01*
X391774Y460863D01*
X391718Y460909D01*
X391670Y460962D01*
X391624Y460987D01*
X391584Y461020D01*
X391517Y461046D01*
X391454Y461080D01*
X391403Y461089D01*
X391355Y461108D01*
X391283Y461111D01*
X391212Y461124D01*
X391161Y461116D01*
X391109Y461118D01*
X391040Y461098D01*
X390969Y461088D01*
X390923Y461064D01*
X390873Y461050D01*
X390814Y461009D01*
X390750Y460977D01*
X390713Y460939D01*
X390671Y460910D01*
X390628Y460852D01*
X390578Y460801D01*
X390543Y460738D01*
X390524Y460712D01*
X390517Y460690D01*
X390497Y460654D01*
X389267Y457686D01*
X385694Y454113D01*
X381026Y452179D01*
X375974Y452179D01*
X371306Y454113D01*
X367733Y457686D01*
X366503Y460654D01*
X366465Y460715D01*
X366436Y460780D01*
X366401Y460819D01*
X366374Y460863D01*
X366318Y460909D01*
X366270Y460962D01*
X366224Y460987D01*
X366184Y461020D01*
X366117Y461046D01*
X366054Y461080D01*
X366003Y461089D01*
X365955Y461108D01*
X365883Y461111D01*
X365812Y461124D01*
X365761Y461116D01*
X365709Y461118D01*
X365640Y461098D01*
X365569Y461088D01*
X365523Y461064D01*
X365473Y461050D01*
X365414Y461009D01*
X365350Y460977D01*
X365313Y460939D01*
X365271Y460910D01*
X365228Y460852D01*
X365178Y460801D01*
X365143Y460738D01*
X365124Y460712D01*
X365117Y460690D01*
X365097Y460654D01*
X363867Y457686D01*
X360294Y454113D01*
X355626Y452179D01*
X350574Y452179D01*
X345906Y454113D01*
X342333Y457686D01*
X341103Y460654D01*
X341065Y460715D01*
X341036Y460780D01*
X341001Y460819D01*
X340974Y460863D01*
X340918Y460909D01*
X340870Y460962D01*
X340824Y460987D01*
X340784Y461020D01*
X340717Y461046D01*
X340654Y461080D01*
X340603Y461089D01*
X340555Y461108D01*
X340483Y461111D01*
X340412Y461124D01*
X340361Y461116D01*
X340309Y461118D01*
X340240Y461098D01*
X340169Y461088D01*
X340123Y461064D01*
X340073Y461050D01*
X340014Y461009D01*
X339950Y460977D01*
X339913Y460939D01*
X339871Y460910D01*
X339828Y460852D01*
X339778Y460801D01*
X339743Y460738D01*
X339724Y460712D01*
X339717Y460690D01*
X339697Y460654D01*
X338467Y457686D01*
X334894Y454113D01*
X330226Y452179D01*
X325174Y452179D01*
X320506Y454113D01*
X316933Y457686D01*
X315703Y460654D01*
X315665Y460715D01*
X315636Y460780D01*
X315601Y460819D01*
X315574Y460863D01*
X315518Y460909D01*
X315470Y460962D01*
X315424Y460987D01*
X315384Y461020D01*
X315317Y461046D01*
X315254Y461080D01*
X315203Y461089D01*
X315155Y461108D01*
X315083Y461111D01*
X315012Y461124D01*
X314961Y461116D01*
X314909Y461118D01*
X314840Y461098D01*
X314769Y461088D01*
X314723Y461064D01*
X314673Y461050D01*
X314614Y461009D01*
X314550Y460977D01*
X314513Y460939D01*
X314471Y460910D01*
X314428Y460852D01*
X314378Y460801D01*
X314343Y460738D01*
X314324Y460712D01*
X314317Y460690D01*
X314297Y460654D01*
X313067Y457686D01*
X309494Y454113D01*
X304826Y452179D01*
X299774Y452179D01*
X295106Y454113D01*
X291533Y457686D01*
X290303Y460654D01*
X290265Y460715D01*
X290236Y460780D01*
X290201Y460819D01*
X290174Y460863D01*
X290118Y460909D01*
X290070Y460962D01*
X290024Y460987D01*
X289984Y461020D01*
X289917Y461046D01*
X289854Y461080D01*
X289803Y461089D01*
X289755Y461108D01*
X289683Y461111D01*
X289612Y461124D01*
X289561Y461116D01*
X289509Y461118D01*
X289440Y461098D01*
X289369Y461088D01*
X289323Y461064D01*
X289273Y461050D01*
X289214Y461009D01*
X289150Y460977D01*
X289113Y460939D01*
X289071Y460910D01*
X289028Y460852D01*
X288978Y460801D01*
X288943Y460738D01*
X288924Y460712D01*
X288917Y460690D01*
X288897Y460654D01*
X287667Y457686D01*
X284094Y454113D01*
X279426Y452179D01*
X274374Y452179D01*
X269706Y454113D01*
X266133Y457686D01*
X264903Y460654D01*
X264865Y460715D01*
X264836Y460780D01*
X264801Y460819D01*
X264774Y460863D01*
X264718Y460909D01*
X264670Y460962D01*
X264624Y460987D01*
X264584Y461020D01*
X264517Y461046D01*
X264454Y461080D01*
X264403Y461089D01*
X264355Y461108D01*
X264283Y461111D01*
X264212Y461124D01*
X264161Y461116D01*
X264109Y461118D01*
X264040Y461098D01*
X263969Y461088D01*
X263923Y461064D01*
X263873Y461050D01*
X263814Y461009D01*
X263750Y460977D01*
X263713Y460939D01*
X263671Y460910D01*
X263628Y460852D01*
X263578Y460801D01*
X263543Y460738D01*
X263524Y460712D01*
X263517Y460690D01*
X263497Y460654D01*
X262267Y457686D01*
X258694Y454113D01*
X254026Y452179D01*
X248974Y452179D01*
X244306Y454113D01*
X240733Y457686D01*
X239047Y461756D01*
X238994Y461842D01*
X238945Y461931D01*
X238929Y461946D01*
X238917Y461965D01*
X238839Y462029D01*
X238765Y462098D01*
X238745Y462107D01*
X238728Y462121D01*
X238633Y462158D01*
X238541Y462199D01*
X238519Y462202D01*
X238498Y462210D01*
X238397Y462214D01*
X238296Y462224D01*
X238275Y462219D01*
X238253Y462220D01*
X238155Y462192D01*
X238057Y462169D01*
X238038Y462158D01*
X238016Y462152D01*
X237933Y462094D01*
X237847Y462041D01*
X237832Y462024D01*
X237814Y462011D01*
X237754Y461930D01*
X237689Y461852D01*
X237677Y461827D01*
X237667Y461814D01*
X237657Y461783D01*
X237620Y461699D01*
X237164Y460297D01*
X236311Y458623D01*
X235206Y457102D01*
X233878Y455774D01*
X232357Y454669D01*
X230683Y453816D01*
X228896Y453235D01*
X227623Y453034D01*
X227623Y464118D01*
X227620Y464135D01*
X227622Y464151D01*
X227622Y464153D01*
X227622Y464157D01*
X227600Y464259D01*
X227583Y464361D01*
X227574Y464378D01*
X227570Y464398D01*
X227517Y464487D01*
X227468Y464578D01*
X227454Y464592D01*
X227444Y464609D01*
X227365Y464676D01*
X227290Y464747D01*
X227272Y464756D01*
X227257Y464769D01*
X227161Y464807D01*
X227067Y464851D01*
X227047Y464853D01*
X227029Y464861D01*
X226862Y464879D01*
X225338Y464879D01*
X225318Y464876D01*
X225299Y464878D01*
X225197Y464856D01*
X225095Y464839D01*
X225078Y464830D01*
X225058Y464826D01*
X224969Y464773D01*
X224878Y464724D01*
X224864Y464710D01*
X224847Y464700D01*
X224780Y464621D01*
X224709Y464546D01*
X224700Y464528D01*
X224687Y464513D01*
X224648Y464417D01*
X224605Y464323D01*
X224603Y464303D01*
X224595Y464285D01*
X224577Y464118D01*
X224577Y453034D01*
X223304Y453235D01*
X221517Y453816D01*
X219843Y454669D01*
X218322Y455774D01*
X216994Y457102D01*
X215889Y458623D01*
X215036Y460297D01*
X214580Y461699D01*
X214534Y461789D01*
X214493Y461882D01*
X214478Y461898D01*
X214467Y461918D01*
X214395Y461988D01*
X214326Y462063D01*
X214307Y462074D01*
X214291Y462089D01*
X214200Y462133D01*
X214111Y462182D01*
X214089Y462186D01*
X214069Y462195D01*
X213968Y462207D01*
X213869Y462225D01*
X213847Y462222D01*
X213825Y462225D01*
X213726Y462204D01*
X213625Y462190D01*
X213606Y462180D01*
X213584Y462175D01*
X213497Y462124D01*
X213406Y462078D01*
X213391Y462062D01*
X213371Y462051D01*
X213305Y461975D01*
X213234Y461903D01*
X213221Y461878D01*
X213210Y461866D01*
X213197Y461836D01*
X213153Y461756D01*
X211467Y457686D01*
X207894Y454113D01*
X203226Y452179D01*
X198174Y452179D01*
X193506Y454113D01*
X189933Y457686D01*
X188703Y460654D01*
X188665Y460715D01*
X188636Y460780D01*
X188601Y460819D01*
X188574Y460863D01*
X188518Y460909D01*
X188470Y460962D01*
X188424Y460987D01*
X188384Y461020D01*
X188317Y461046D01*
X188254Y461080D01*
X188203Y461089D01*
X188155Y461108D01*
X188083Y461111D01*
X188012Y461124D01*
X187961Y461116D01*
X187909Y461118D01*
X187840Y461098D01*
X187769Y461088D01*
X187723Y461064D01*
X187673Y461050D01*
X187614Y461009D01*
X187550Y460977D01*
X187513Y460939D01*
X187471Y460910D01*
X187428Y460852D01*
X187378Y460801D01*
X187343Y460738D01*
X187324Y460712D01*
X187317Y460690D01*
X187297Y460654D01*
X186067Y457686D01*
X182494Y454113D01*
X177826Y452179D01*
X172774Y452179D01*
X168106Y454113D01*
X164533Y457686D01*
X163303Y460654D01*
X163265Y460715D01*
X163236Y460780D01*
X163201Y460819D01*
X163174Y460863D01*
X163118Y460909D01*
X163070Y460962D01*
X163024Y460987D01*
X162984Y461020D01*
X162917Y461046D01*
X162854Y461080D01*
X162803Y461089D01*
X162755Y461108D01*
X162683Y461111D01*
X162612Y461124D01*
X162561Y461116D01*
X162509Y461118D01*
X162440Y461098D01*
X162369Y461088D01*
X162323Y461064D01*
X162273Y461050D01*
X162214Y461009D01*
X162150Y460977D01*
X162113Y460939D01*
X162071Y460910D01*
X162028Y460852D01*
X161978Y460801D01*
X161943Y460738D01*
X161924Y460712D01*
X161917Y460690D01*
X161897Y460654D01*
X160667Y457686D01*
X159776Y456794D01*
X159723Y456720D01*
X159663Y456651D01*
X159651Y456621D01*
X159632Y456594D01*
X159605Y456507D01*
X159571Y456423D01*
X159567Y456382D01*
X159560Y456359D01*
X159561Y456327D01*
X159553Y456256D01*
X159553Y169476D01*
X159554Y169469D01*
X159554Y169468D01*
X159554Y169465D01*
X159567Y169385D01*
X159575Y169295D01*
X159587Y169265D01*
X159592Y169233D01*
X159635Y169152D01*
X159671Y169068D01*
X159697Y169036D01*
X159708Y169015D01*
X159731Y168993D01*
X159776Y168937D01*
X176597Y152116D01*
X176671Y152063D01*
X176741Y152003D01*
X176771Y151991D01*
X176797Y151972D01*
X176884Y151945D01*
X176969Y151911D01*
X177010Y151907D01*
X177032Y151900D01*
X177064Y151901D01*
X177136Y151893D01*
X747526Y151893D01*
X747616Y151907D01*
X747707Y151915D01*
X747737Y151927D01*
X747769Y151932D01*
X747850Y151975D01*
X747934Y152011D01*
X747966Y152037D01*
X747987Y152048D01*
X748009Y152071D01*
X748065Y152116D01*
X835309Y239360D01*
X835362Y239434D01*
X835422Y239504D01*
X835434Y239534D01*
X835453Y239560D01*
X835480Y239647D01*
X835514Y239732D01*
X835518Y239773D01*
X835525Y239795D01*
X835524Y239827D01*
X835532Y239899D01*
X835532Y457863D01*
X835517Y457959D01*
X835507Y458056D01*
X835497Y458080D01*
X835493Y458105D01*
X835447Y458191D01*
X835407Y458280D01*
X835390Y458300D01*
X835377Y458323D01*
X835307Y458390D01*
X835241Y458462D01*
X835218Y458474D01*
X835199Y458492D01*
X835111Y458533D01*
X835025Y458580D01*
X835000Y458585D01*
X834976Y458596D01*
X834879Y458607D01*
X834783Y458624D01*
X834757Y458620D01*
X834732Y458623D01*
X834636Y458602D01*
X834540Y458588D01*
X834517Y458576D01*
X834491Y458571D01*
X834408Y458521D01*
X834321Y458477D01*
X834302Y458458D01*
X834280Y458445D01*
X834217Y458371D01*
X834149Y458301D01*
X834133Y458272D01*
X834120Y458258D01*
X834108Y458227D01*
X834068Y458154D01*
X833092Y455798D01*
X828582Y451288D01*
X822689Y448847D01*
X816311Y448847D01*
X810418Y451288D01*
X805908Y455798D01*
X803467Y461691D01*
X803467Y468069D01*
X805908Y473962D01*
X810418Y478472D01*
X816311Y480913D01*
X822689Y480913D01*
X828582Y478472D01*
X833092Y473962D01*
X834068Y471606D01*
X834119Y471523D01*
X834165Y471437D01*
X834183Y471419D01*
X834197Y471397D01*
X834273Y471335D01*
X834343Y471268D01*
X834367Y471257D01*
X834387Y471240D01*
X834478Y471205D01*
X834566Y471164D01*
X834592Y471161D01*
X834616Y471152D01*
X834714Y471148D01*
X834810Y471137D01*
X834836Y471143D01*
X834862Y471141D01*
X834956Y471169D01*
X835051Y471189D01*
X835073Y471203D01*
X835098Y471210D01*
X835178Y471266D01*
X835262Y471315D01*
X835279Y471335D01*
X835300Y471350D01*
X835359Y471428D01*
X835422Y471502D01*
X835432Y471527D01*
X835447Y471548D01*
X835477Y471640D01*
X835514Y471731D01*
X835517Y471763D01*
X835523Y471782D01*
X835523Y471815D01*
X835532Y471897D01*
X835532Y515635D01*
X837002Y519183D01*
X839824Y522005D01*
X850865Y533046D01*
X853687Y535868D01*
X857235Y537338D01*
X991945Y537338D01*
X995493Y535868D01*
X1050004Y481357D01*
X1056162Y475199D01*
X1056178Y475188D01*
X1056190Y475172D01*
X1056278Y475116D01*
X1056361Y475056D01*
X1056380Y475050D01*
X1056397Y475039D01*
X1056498Y475014D01*
X1056597Y474983D01*
X1056616Y474984D01*
X1056636Y474979D01*
X1056739Y474987D01*
X1056842Y474990D01*
X1056861Y474997D01*
X1056881Y474998D01*
X1056976Y475039D01*
X1057073Y475074D01*
X1057089Y475087D01*
X1057107Y475094D01*
X1057238Y475199D01*
X1059464Y477425D01*
X1059517Y477499D01*
X1059577Y477569D01*
X1059589Y477599D01*
X1059608Y477625D01*
X1059635Y477712D01*
X1059669Y477797D01*
X1059673Y477838D01*
X1059680Y477860D01*
X1059679Y477892D01*
X1059687Y477964D01*
X1059687Y489556D01*
X1059684Y489576D01*
X1059686Y489595D01*
X1059664Y489697D01*
X1059648Y489799D01*
X1059638Y489816D01*
X1059634Y489836D01*
X1059581Y489925D01*
X1059532Y490016D01*
X1059518Y490030D01*
X1059508Y490047D01*
X1059429Y490114D01*
X1059354Y490186D01*
X1059336Y490194D01*
X1059321Y490207D01*
X1059225Y490246D01*
X1059131Y490289D01*
X1059111Y490291D01*
X1059093Y490299D01*
X1058978Y490312D01*
X1057037Y492252D01*
X1057037Y510988D01*
X1058972Y512923D01*
X1079708Y512923D01*
X1081643Y510988D01*
X1081643Y492252D01*
X1079705Y490314D01*
X1079613Y490294D01*
X1079511Y490278D01*
X1079494Y490268D01*
X1079474Y490264D01*
X1079385Y490211D01*
X1079294Y490162D01*
X1079280Y490148D01*
X1079263Y490138D01*
X1079196Y490059D01*
X1079124Y489984D01*
X1079116Y489966D01*
X1079103Y489951D01*
X1079064Y489855D01*
X1079021Y489761D01*
X1079019Y489741D01*
X1079011Y489723D01*
X1078993Y489556D01*
X1078993Y471730D01*
X1078987Y471715D01*
X1078976Y471671D01*
X1078957Y471629D01*
X1078948Y471552D01*
X1078930Y471476D01*
X1078935Y471430D01*
X1078930Y471385D01*
X1078946Y471309D01*
X1078954Y471231D01*
X1078972Y471189D01*
X1078982Y471144D01*
X1079022Y471077D01*
X1079054Y471006D01*
X1079085Y470972D01*
X1079108Y470933D01*
X1079167Y470883D01*
X1079220Y470825D01*
X1079260Y470803D01*
X1079295Y470773D01*
X1079367Y470744D01*
X1079435Y470707D01*
X1079481Y470698D01*
X1079523Y470681D01*
X1079659Y470666D01*
X1079677Y470663D01*
X1079682Y470664D01*
X1079690Y470663D01*
X1096776Y470663D01*
X1096866Y470677D01*
X1096957Y470685D01*
X1096987Y470697D01*
X1097019Y470702D01*
X1097100Y470745D01*
X1097184Y470781D01*
X1097216Y470807D01*
X1097237Y470818D01*
X1097259Y470841D01*
X1097315Y470886D01*
X1107724Y481295D01*
X1107777Y481369D01*
X1107837Y481439D01*
X1107849Y481469D01*
X1107868Y481495D01*
X1107895Y481582D01*
X1107929Y481667D01*
X1107933Y481708D01*
X1107940Y481730D01*
X1107939Y481762D01*
X1107947Y481834D01*
X1107947Y489556D01*
X1107944Y489576D01*
X1107946Y489595D01*
X1107924Y489697D01*
X1107908Y489799D01*
X1107898Y489816D01*
X1107894Y489836D01*
X1107841Y489925D01*
X1107792Y490016D01*
X1107778Y490030D01*
X1107768Y490047D01*
X1107689Y490114D01*
X1107614Y490186D01*
X1107596Y490194D01*
X1107581Y490207D01*
X1107485Y490246D01*
X1107391Y490289D01*
X1107371Y490291D01*
X1107353Y490299D01*
X1107238Y490312D01*
X1105297Y492252D01*
X1105297Y510988D01*
X1107232Y512923D01*
X1127968Y512923D01*
X1129903Y510988D01*
X1129903Y492252D01*
X1127965Y490314D01*
X1127873Y490294D01*
X1127771Y490278D01*
X1127754Y490268D01*
X1127734Y490264D01*
X1127645Y490211D01*
X1127554Y490162D01*
X1127540Y490148D01*
X1127523Y490138D01*
X1127456Y490059D01*
X1127384Y489984D01*
X1127376Y489966D01*
X1127363Y489951D01*
X1127324Y489855D01*
X1127281Y489761D01*
X1127279Y489741D01*
X1127271Y489723D01*
X1127253Y489556D01*
X1127253Y475600D01*
X1125783Y472052D01*
X1122961Y469230D01*
X1111654Y457923D01*
X1111643Y457907D01*
X1111627Y457895D01*
X1111571Y457807D01*
X1111511Y457723D01*
X1111505Y457704D01*
X1111494Y457688D01*
X1111469Y457587D01*
X1111438Y457488D01*
X1111439Y457468D01*
X1111434Y457449D01*
X1111442Y457346D01*
X1111445Y457242D01*
X1111452Y457224D01*
X1111453Y457204D01*
X1111493Y457109D01*
X1111529Y457011D01*
X1111542Y456996D01*
X1111549Y456978D01*
X1111654Y456847D01*
X1112363Y456138D01*
X1112363Y435402D01*
X1110428Y433467D01*
X1091692Y433467D01*
X1089757Y435402D01*
X1089757Y443106D01*
X1089743Y443196D01*
X1089735Y443287D01*
X1089723Y443317D01*
X1089718Y443349D01*
X1089675Y443430D01*
X1089639Y443514D01*
X1089613Y443546D01*
X1089602Y443567D01*
X1089579Y443589D01*
X1089534Y443645D01*
X1082045Y451134D01*
X1081971Y451187D01*
X1081901Y451247D01*
X1081871Y451259D01*
X1081845Y451278D01*
X1081758Y451305D01*
X1081673Y451339D01*
X1081632Y451343D01*
X1081610Y451350D01*
X1081578Y451349D01*
X1081506Y451357D01*
X1066002Y451357D01*
X1065982Y451354D01*
X1065963Y451356D01*
X1065861Y451334D01*
X1065759Y451318D01*
X1065742Y451308D01*
X1065722Y451304D01*
X1065633Y451251D01*
X1065542Y451202D01*
X1065528Y451188D01*
X1065511Y451178D01*
X1065444Y451099D01*
X1065372Y451024D01*
X1065364Y451006D01*
X1065351Y450991D01*
X1065312Y450895D01*
X1065269Y450801D01*
X1065267Y450781D01*
X1065259Y450763D01*
X1065241Y450596D01*
X1065241Y449809D01*
X1057438Y449809D01*
X1057419Y449806D01*
X1057399Y449808D01*
X1057297Y449786D01*
X1057195Y449770D01*
X1057178Y449760D01*
X1057158Y449756D01*
X1057069Y449703D01*
X1056978Y449654D01*
X1056964Y449640D01*
X1056947Y449630D01*
X1056880Y449551D01*
X1056809Y449476D01*
X1056800Y449458D01*
X1056787Y449443D01*
X1056749Y449347D01*
X1056705Y449253D01*
X1056703Y449233D01*
X1056696Y449215D01*
X1056683Y449291D01*
X1056674Y449308D01*
X1056670Y449328D01*
X1056617Y449417D01*
X1056568Y449508D01*
X1056554Y449522D01*
X1056544Y449539D01*
X1056465Y449606D01*
X1056390Y449678D01*
X1056372Y449686D01*
X1056357Y449699D01*
X1056260Y449738D01*
X1056167Y449781D01*
X1056147Y449783D01*
X1056129Y449791D01*
X1055962Y449809D01*
X1048159Y449809D01*
X1048159Y451644D01*
X1048332Y452291D01*
X1048667Y452870D01*
X1049140Y453343D01*
X1049267Y453417D01*
X1049360Y453492D01*
X1049452Y453566D01*
X1049454Y453570D01*
X1049458Y453572D01*
X1049521Y453673D01*
X1049585Y453773D01*
X1049586Y453777D01*
X1049588Y453781D01*
X1049616Y453895D01*
X1049645Y454012D01*
X1049645Y454016D01*
X1049646Y454020D01*
X1049635Y454139D01*
X1049626Y454257D01*
X1049625Y454261D01*
X1049624Y454265D01*
X1049576Y454374D01*
X1049530Y454483D01*
X1049527Y454487D01*
X1049525Y454490D01*
X1049516Y454500D01*
X1049425Y454614D01*
X1047253Y456786D01*
X1047242Y456807D01*
X1047219Y456829D01*
X1047174Y456885D01*
X1037939Y466120D01*
X1037865Y466173D01*
X1037795Y466233D01*
X1037765Y466245D01*
X1037739Y466264D01*
X1037652Y466291D01*
X1037567Y466325D01*
X1037526Y466329D01*
X1037504Y466336D01*
X1037472Y466335D01*
X1037400Y466343D01*
X1020000Y466343D01*
X1019910Y466329D01*
X1019819Y466321D01*
X1019789Y466309D01*
X1019757Y466304D01*
X1019676Y466261D01*
X1019592Y466225D01*
X1019560Y466199D01*
X1019539Y466188D01*
X1019517Y466165D01*
X1019461Y466120D01*
X1010226Y456885D01*
X1010175Y456815D01*
X1008559Y455198D01*
X1008547Y455182D01*
X1008532Y455170D01*
X1008476Y455082D01*
X1008416Y454999D01*
X1008410Y454980D01*
X1008399Y454963D01*
X1008374Y454862D01*
X1008343Y454763D01*
X1008344Y454744D01*
X1008339Y454724D01*
X1008347Y454621D01*
X1008350Y454518D01*
X1008356Y454499D01*
X1008358Y454479D01*
X1008398Y454384D01*
X1008434Y454287D01*
X1008446Y454271D01*
X1008454Y454253D01*
X1008559Y454122D01*
X1010003Y452678D01*
X1010003Y443942D01*
X1008559Y442498D01*
X1008547Y442482D01*
X1008532Y442470D01*
X1008476Y442382D01*
X1008416Y442299D01*
X1008410Y442280D01*
X1008399Y442263D01*
X1008374Y442162D01*
X1008343Y442063D01*
X1008344Y442044D01*
X1008339Y442024D01*
X1008347Y441921D01*
X1008350Y441818D01*
X1008356Y441799D01*
X1008358Y441779D01*
X1008398Y441684D01*
X1008434Y441587D01*
X1008446Y441571D01*
X1008454Y441553D01*
X1008559Y441422D01*
X1010003Y439978D01*
X1010003Y431242D01*
X1008559Y429798D01*
X1008547Y429782D01*
X1008532Y429770D01*
X1008476Y429682D01*
X1008416Y429599D01*
X1008410Y429580D01*
X1008399Y429563D01*
X1008374Y429462D01*
X1008343Y429363D01*
X1008344Y429344D01*
X1008339Y429324D01*
X1008347Y429221D01*
X1008350Y429118D01*
X1008356Y429099D01*
X1008358Y429079D01*
X1008398Y428984D01*
X1008434Y428887D01*
X1008446Y428871D01*
X1008454Y428853D01*
X1008559Y428722D01*
X1010003Y427278D01*
X1010003Y418542D01*
X1007975Y416514D01*
X1007906Y416419D01*
X1007835Y416322D01*
X1007834Y416318D01*
X1007831Y416314D01*
X1007797Y416202D01*
X1007760Y416088D01*
X1007760Y416083D01*
X1007759Y416079D01*
X1007762Y415961D01*
X1007764Y415842D01*
X1007765Y415838D01*
X1007765Y415834D01*
X1007806Y415722D01*
X1007846Y415610D01*
X1007848Y415606D01*
X1007850Y415602D01*
X1007925Y415509D01*
X1007997Y415416D01*
X1008001Y415413D01*
X1008004Y415410D01*
X1008015Y415403D01*
X1008133Y415317D01*
X1008260Y415243D01*
X1008733Y414770D01*
X1009068Y414191D01*
X1009241Y413544D01*
X1009241Y411709D01*
X1001438Y411709D01*
X1001419Y411706D01*
X1001399Y411708D01*
X1001297Y411686D01*
X1001195Y411670D01*
X1001178Y411660D01*
X1001158Y411656D01*
X1001069Y411603D01*
X1000978Y411554D01*
X1000964Y411540D01*
X1000947Y411530D01*
X1000880Y411451D01*
X1000809Y411376D01*
X1000800Y411358D01*
X1000787Y411343D01*
X1000749Y411247D01*
X1000705Y411153D01*
X1000703Y411133D01*
X1000696Y411115D01*
X1000683Y411191D01*
X1000674Y411208D01*
X1000670Y411228D01*
X1000617Y411317D01*
X1000568Y411408D01*
X1000554Y411422D01*
X1000544Y411439D01*
X1000465Y411506D01*
X1000390Y411578D01*
X1000372Y411586D01*
X1000357Y411599D01*
X1000260Y411638D01*
X1000167Y411681D01*
X1000147Y411683D01*
X1000129Y411691D01*
X999962Y411709D01*
X992159Y411709D01*
X992159Y413544D01*
X992332Y414191D01*
X992667Y414770D01*
X993140Y415243D01*
X993267Y415317D01*
X993360Y415392D01*
X993452Y415466D01*
X993455Y415470D01*
X993458Y415472D01*
X993521Y415573D01*
X993585Y415673D01*
X993586Y415677D01*
X993588Y415681D01*
X993616Y415796D01*
X993645Y415912D01*
X993645Y415916D01*
X993646Y415920D01*
X993635Y416039D01*
X993626Y416157D01*
X993625Y416161D01*
X993624Y416165D01*
X993576Y416274D01*
X993530Y416383D01*
X993527Y416387D01*
X993525Y416390D01*
X993516Y416400D01*
X993425Y416514D01*
X993095Y416844D01*
X993021Y416897D01*
X992952Y416957D01*
X992921Y416969D01*
X992895Y416988D01*
X992808Y417015D01*
X992723Y417049D01*
X992682Y417053D01*
X992660Y417060D01*
X992628Y417059D01*
X992557Y417067D01*
X903104Y417067D01*
X903084Y417064D01*
X903065Y417066D01*
X902963Y417044D01*
X902861Y417028D01*
X902844Y417018D01*
X902824Y417014D01*
X902735Y416961D01*
X902644Y416912D01*
X902630Y416898D01*
X902613Y416888D01*
X902546Y416809D01*
X902474Y416734D01*
X902466Y416716D01*
X902453Y416701D01*
X902414Y416605D01*
X902371Y416511D01*
X902369Y416491D01*
X902361Y416473D01*
X902343Y416306D01*
X902343Y415652D01*
X900710Y414019D01*
X900699Y414003D01*
X900683Y413991D01*
X900627Y413904D01*
X900567Y413820D01*
X900561Y413801D01*
X900550Y413784D01*
X900525Y413683D01*
X900494Y413585D01*
X900495Y413565D01*
X900490Y413545D01*
X900498Y413442D01*
X900501Y413339D01*
X900508Y413320D01*
X900509Y413300D01*
X900549Y413205D01*
X900585Y413108D01*
X900598Y413092D01*
X900605Y413074D01*
X900710Y412943D01*
X901073Y412580D01*
X901408Y412001D01*
X901581Y411354D01*
X901581Y406043D01*
X892302Y406043D01*
X892282Y406040D01*
X892263Y406042D01*
X892161Y406020D01*
X892059Y406003D01*
X892042Y405994D01*
X892022Y405990D01*
X891933Y405937D01*
X891842Y405888D01*
X891828Y405874D01*
X891811Y405864D01*
X891744Y405785D01*
X891673Y405710D01*
X891664Y405692D01*
X891651Y405677D01*
X891612Y405581D01*
X891569Y405487D01*
X891567Y405467D01*
X891559Y405449D01*
X891541Y405282D01*
X891541Y404519D01*
X891539Y404519D01*
X891539Y405282D01*
X891536Y405302D01*
X891538Y405321D01*
X891516Y405423D01*
X891499Y405525D01*
X891490Y405542D01*
X891486Y405562D01*
X891433Y405651D01*
X891384Y405742D01*
X891370Y405756D01*
X891360Y405773D01*
X891281Y405840D01*
X891206Y405911D01*
X891188Y405920D01*
X891173Y405933D01*
X891077Y405972D01*
X890983Y406015D01*
X890963Y406017D01*
X890945Y406025D01*
X890778Y406043D01*
X881499Y406043D01*
X881499Y411354D01*
X881672Y412001D01*
X882007Y412580D01*
X882370Y412943D01*
X882381Y412959D01*
X882397Y412972D01*
X882453Y413059D01*
X882513Y413143D01*
X882519Y413162D01*
X882530Y413178D01*
X882555Y413279D01*
X882586Y413378D01*
X882585Y413398D01*
X882590Y413417D01*
X882582Y413520D01*
X882579Y413624D01*
X882572Y413642D01*
X882571Y413662D01*
X882531Y413757D01*
X882495Y413855D01*
X882482Y413870D01*
X882475Y413889D01*
X882370Y414019D01*
X880737Y415652D01*
X880737Y431388D01*
X882672Y433323D01*
X884936Y433323D01*
X884956Y433326D01*
X884975Y433324D01*
X885077Y433346D01*
X885179Y433362D01*
X885196Y433372D01*
X885216Y433376D01*
X885305Y433429D01*
X885396Y433478D01*
X885410Y433492D01*
X885427Y433502D01*
X885494Y433581D01*
X885566Y433656D01*
X885574Y433674D01*
X885587Y433689D01*
X885626Y433785D01*
X885669Y433879D01*
X885671Y433899D01*
X885679Y433917D01*
X885697Y434084D01*
X885697Y461266D01*
X885694Y461286D01*
X885696Y461305D01*
X885674Y461407D01*
X885658Y461509D01*
X885648Y461526D01*
X885644Y461546D01*
X885591Y461635D01*
X885542Y461726D01*
X885528Y461740D01*
X885518Y461757D01*
X885439Y461824D01*
X885364Y461896D01*
X885346Y461904D01*
X885331Y461917D01*
X885235Y461956D01*
X885141Y461999D01*
X885121Y462001D01*
X885103Y462009D01*
X884936Y462027D01*
X882672Y462027D01*
X880737Y463962D01*
X880737Y479698D01*
X881831Y480792D01*
X881843Y480808D01*
X881858Y480820D01*
X881914Y480908D01*
X881974Y480991D01*
X881980Y481010D01*
X881991Y481027D01*
X882016Y481128D01*
X882047Y481227D01*
X882046Y481246D01*
X882051Y481266D01*
X882043Y481369D01*
X882040Y481472D01*
X882034Y481491D01*
X882032Y481511D01*
X881992Y481606D01*
X881956Y481703D01*
X881944Y481719D01*
X881936Y481737D01*
X881831Y481868D01*
X880737Y482962D01*
X880737Y484226D01*
X880734Y484246D01*
X880736Y484265D01*
X880714Y484367D01*
X880698Y484469D01*
X880688Y484486D01*
X880684Y484506D01*
X880631Y484595D01*
X880582Y484686D01*
X880568Y484700D01*
X880558Y484717D01*
X880479Y484784D01*
X880404Y484856D01*
X880386Y484864D01*
X880371Y484877D01*
X880275Y484916D01*
X880181Y484959D01*
X880161Y484961D01*
X880143Y484969D01*
X879976Y484987D01*
X879645Y484987D01*
X879555Y484973D01*
X879464Y484965D01*
X879435Y484953D01*
X879403Y484948D01*
X879322Y484905D01*
X879238Y484869D01*
X879206Y484843D01*
X879185Y484832D01*
X879163Y484809D01*
X879107Y484764D01*
X868650Y474307D01*
X868597Y474233D01*
X868537Y474163D01*
X868525Y474133D01*
X868506Y474107D01*
X868479Y474020D01*
X868445Y473935D01*
X868441Y473894D01*
X868434Y473872D01*
X868435Y473840D01*
X868427Y473769D01*
X868427Y366014D01*
X868430Y365994D01*
X868428Y365975D01*
X868450Y365873D01*
X868466Y365771D01*
X868476Y365754D01*
X868480Y365734D01*
X868533Y365645D01*
X868582Y365554D01*
X868596Y365540D01*
X868606Y365523D01*
X868685Y365456D01*
X868760Y365384D01*
X868778Y365376D01*
X868793Y365363D01*
X868889Y365324D01*
X868983Y365281D01*
X869003Y365279D01*
X869021Y365271D01*
X869188Y365253D01*
X870556Y365253D01*
X870576Y365256D01*
X870595Y365254D01*
X870697Y365276D01*
X870799Y365292D01*
X870816Y365302D01*
X870836Y365306D01*
X870925Y365359D01*
X871016Y365408D01*
X871030Y365422D01*
X871047Y365432D01*
X871114Y365511D01*
X871186Y365586D01*
X871194Y365604D01*
X871207Y365619D01*
X871246Y365715D01*
X871289Y365809D01*
X871291Y365829D01*
X871299Y365847D01*
X871317Y366014D01*
X871317Y369778D01*
X873252Y371713D01*
X891988Y371713D01*
X893923Y369778D01*
X893923Y349042D01*
X891988Y347107D01*
X873252Y347107D01*
X871317Y349042D01*
X871317Y352806D01*
X871314Y352826D01*
X871316Y352845D01*
X871294Y352947D01*
X871278Y353049D01*
X871268Y353066D01*
X871264Y353086D01*
X871211Y353175D01*
X871162Y353266D01*
X871148Y353280D01*
X871138Y353297D01*
X871059Y353364D01*
X870984Y353436D01*
X870966Y353444D01*
X870951Y353457D01*
X870855Y353496D01*
X870761Y353539D01*
X870741Y353541D01*
X870723Y353549D01*
X870556Y353567D01*
X869188Y353567D01*
X869168Y353564D01*
X869149Y353566D01*
X869047Y353544D01*
X868945Y353528D01*
X868928Y353518D01*
X868908Y353514D01*
X868819Y353461D01*
X868728Y353412D01*
X868714Y353398D01*
X868697Y353388D01*
X868630Y353309D01*
X868558Y353234D01*
X868550Y353216D01*
X868537Y353201D01*
X868498Y353105D01*
X868455Y353011D01*
X868453Y352991D01*
X868445Y352973D01*
X868427Y352806D01*
X868427Y253941D01*
X868441Y253851D01*
X868449Y253760D01*
X868461Y253731D01*
X868466Y253699D01*
X868509Y253618D01*
X868545Y253534D01*
X868571Y253502D01*
X868582Y253481D01*
X868605Y253459D01*
X868650Y253403D01*
X907730Y214323D01*
X907746Y214312D01*
X907758Y214296D01*
X907845Y214240D01*
X907929Y214180D01*
X907948Y214174D01*
X907965Y214163D01*
X908066Y214138D01*
X908164Y214107D01*
X908184Y214108D01*
X908204Y214103D01*
X908307Y214111D01*
X908410Y214114D01*
X908429Y214121D01*
X908449Y214122D01*
X908544Y214163D01*
X908641Y214198D01*
X908657Y214211D01*
X908675Y214218D01*
X908806Y214323D01*
X909483Y215000D01*
X913497Y216663D01*
X917843Y216663D01*
X921857Y215000D01*
X924930Y211927D01*
X926593Y207913D01*
X926593Y188327D01*
X924930Y184313D01*
X921857Y181240D01*
X917843Y179577D01*
X913497Y179577D01*
X909483Y181240D01*
X906410Y184313D01*
X904747Y188327D01*
X904747Y200465D01*
X904733Y200555D01*
X904725Y200646D01*
X904713Y200675D01*
X904708Y200707D01*
X904665Y200788D01*
X904629Y200872D01*
X904603Y200904D01*
X904592Y200925D01*
X904569Y200947D01*
X904524Y201003D01*
X857631Y247896D01*
X856741Y250044D01*
X856741Y477666D01*
X857631Y479814D01*
X873600Y495783D01*
X875748Y496673D01*
X879976Y496673D01*
X879996Y496676D01*
X880015Y496674D01*
X880117Y496696D01*
X880219Y496712D01*
X880236Y496722D01*
X880256Y496726D01*
X880345Y496779D01*
X880436Y496828D01*
X880450Y496842D01*
X880467Y496852D01*
X880534Y496931D01*
X880606Y497006D01*
X880614Y497024D01*
X880627Y497039D01*
X880666Y497135D01*
X880709Y497229D01*
X880711Y497249D01*
X880719Y497267D01*
X880737Y497434D01*
X880737Y498698D01*
X882672Y500633D01*
X900408Y500633D01*
X902343Y498698D01*
X902343Y496824D01*
X902345Y496813D01*
X902344Y496806D01*
X902345Y496799D01*
X902344Y496785D01*
X902366Y496683D01*
X902382Y496581D01*
X902392Y496564D01*
X902396Y496544D01*
X902449Y496455D01*
X902498Y496364D01*
X902512Y496350D01*
X902522Y496333D01*
X902601Y496266D01*
X902676Y496194D01*
X902694Y496186D01*
X902709Y496173D01*
X902805Y496134D01*
X902899Y496091D01*
X902919Y496089D01*
X902937Y496081D01*
X903104Y496063D01*
X925356Y496063D01*
X925376Y496066D01*
X925395Y496064D01*
X925497Y496086D01*
X925599Y496102D01*
X925616Y496112D01*
X925636Y496116D01*
X925725Y496169D01*
X925816Y496218D01*
X925830Y496232D01*
X925847Y496242D01*
X925914Y496321D01*
X925986Y496396D01*
X925994Y496414D01*
X926007Y496429D01*
X926040Y496510D01*
X928052Y498523D01*
X944128Y498523D01*
X944199Y498534D01*
X944271Y498536D01*
X944320Y498554D01*
X944371Y498562D01*
X944434Y498596D01*
X944502Y498621D01*
X944543Y498653D01*
X944589Y498678D01*
X944638Y498729D01*
X944694Y498774D01*
X944722Y498818D01*
X944758Y498856D01*
X944788Y498921D01*
X944827Y498981D01*
X944840Y499032D01*
X944862Y499079D01*
X944869Y499150D01*
X944887Y499220D01*
X944883Y499272D01*
X944889Y499323D01*
X944873Y499394D01*
X944868Y499465D01*
X944848Y499513D01*
X944836Y499564D01*
X944800Y499625D01*
X944772Y499691D01*
X944727Y499747D01*
X944710Y499775D01*
X944692Y499790D01*
X944667Y499822D01*
X926680Y517809D01*
X926606Y517862D01*
X926536Y517922D01*
X926506Y517934D01*
X926480Y517953D01*
X926393Y517980D01*
X926308Y518014D01*
X926267Y518018D01*
X926245Y518025D01*
X926213Y518024D01*
X926141Y518032D01*
X863469Y518032D01*
X863379Y518018D01*
X863288Y518010D01*
X863258Y517998D01*
X863226Y517993D01*
X863145Y517950D01*
X863061Y517914D01*
X863029Y517888D01*
X863008Y517877D01*
X862986Y517854D01*
X862930Y517809D01*
X855061Y509940D01*
X855008Y509866D01*
X854948Y509796D01*
X854936Y509766D01*
X854917Y509740D01*
X854890Y509653D01*
X854856Y509568D01*
X854852Y509527D01*
X854845Y509505D01*
X854846Y509473D01*
X854838Y509401D01*
X854838Y233665D01*
X853368Y230117D01*
X764759Y141508D01*
X764748Y141492D01*
X764732Y141480D01*
X764676Y141392D01*
X764616Y141309D01*
X764610Y141290D01*
X764599Y141273D01*
X764574Y141172D01*
X764543Y141073D01*
X764544Y141054D01*
X764539Y141034D01*
X764547Y140931D01*
X764550Y140828D01*
X764557Y140809D01*
X764558Y140789D01*
X764598Y140694D01*
X764634Y140597D01*
X764647Y140581D01*
X764654Y140563D01*
X764759Y140432D01*
X793715Y111476D01*
X793789Y111423D01*
X793859Y111363D01*
X793889Y111351D01*
X793915Y111332D01*
X794002Y111305D01*
X794087Y111271D01*
X794128Y111267D01*
X794150Y111260D01*
X794182Y111261D01*
X794254Y111253D01*
X942072Y111253D01*
X942143Y111264D01*
X942215Y111266D01*
X942264Y111284D01*
X942315Y111292D01*
X942378Y111326D01*
X942446Y111351D01*
X942486Y111383D01*
X942533Y111408D01*
X942582Y111460D01*
X942638Y111504D01*
X942666Y111548D01*
X942702Y111586D01*
X942732Y111651D01*
X942771Y111711D01*
X942784Y111762D01*
X942806Y111809D01*
X942813Y111880D01*
X942831Y111950D01*
X942827Y112002D01*
X942833Y112053D01*
X942817Y112124D01*
X942812Y112195D01*
X942791Y112243D01*
X942780Y112294D01*
X942744Y112355D01*
X942715Y112421D01*
X942671Y112477D01*
X942654Y112505D01*
X942636Y112520D01*
X942611Y112552D01*
X941970Y113193D01*
X940307Y117207D01*
X940307Y121553D01*
X941970Y125567D01*
X945043Y128640D01*
X949057Y130303D01*
X968643Y130303D01*
X972657Y128640D01*
X975730Y125567D01*
X977393Y121553D01*
X977393Y117207D01*
X975730Y113193D01*
X975089Y112552D01*
X975047Y112494D01*
X974998Y112442D01*
X974976Y112395D01*
X974946Y112353D01*
X974925Y112284D01*
X974894Y112219D01*
X974889Y112167D01*
X974873Y112117D01*
X974875Y112046D01*
X974867Y111975D01*
X974878Y111924D01*
X974880Y111872D01*
X974904Y111804D01*
X974920Y111734D01*
X974946Y111689D01*
X974964Y111641D01*
X975009Y111585D01*
X975046Y111523D01*
X975085Y111489D01*
X975118Y111449D01*
X975178Y111410D01*
X975233Y111363D01*
X975281Y111344D01*
X975325Y111316D01*
X975394Y111298D01*
X975461Y111271D01*
X975532Y111263D01*
X975563Y111255D01*
X975587Y111257D01*
X975628Y111253D01*
X1341886Y111253D01*
X1341976Y111267D01*
X1342067Y111275D01*
X1342097Y111287D01*
X1342129Y111292D01*
X1342210Y111335D01*
X1342294Y111371D01*
X1342326Y111397D01*
X1342347Y111408D01*
X1342369Y111431D01*
X1342425Y111476D01*
X1421922Y190973D01*
X1421975Y191047D01*
X1422035Y191117D01*
X1422047Y191147D01*
X1422066Y191173D01*
X1422093Y191260D01*
X1422127Y191345D01*
X1422131Y191386D01*
X1422138Y191408D01*
X1422137Y191440D01*
X1422145Y191512D01*
X1422145Y192274D01*
X1428246Y198375D01*
X1436874Y198375D01*
X1442975Y192274D01*
X1442975Y183646D01*
X1436874Y177545D01*
X1436112Y177545D01*
X1436021Y177531D01*
X1435931Y177523D01*
X1435901Y177511D01*
X1435869Y177506D01*
X1435788Y177463D01*
X1435704Y177427D01*
X1435672Y177401D01*
X1435651Y177390D01*
X1435629Y177367D01*
X1435573Y177322D01*
X1354490Y96239D01*
X1351668Y93417D01*
X1348120Y91947D01*
X970784Y91947D01*
X970694Y91933D01*
X970603Y91925D01*
X970573Y91913D01*
X970541Y91908D01*
X970460Y91865D01*
X970376Y91829D01*
X970344Y91803D01*
X970323Y91792D01*
X970301Y91769D01*
X970245Y91724D01*
X944596Y66075D01*
X944543Y66001D01*
X944483Y65931D01*
X944471Y65901D01*
X944452Y65875D01*
X944425Y65788D01*
X944391Y65703D01*
X944387Y65662D01*
X944380Y65640D01*
X944381Y65608D01*
X944373Y65536D01*
X944373Y58787D01*
X942710Y54773D01*
X939637Y51700D01*
X935623Y50037D01*
X931277Y50037D01*
X927263Y51700D01*
X924190Y54773D01*
X922527Y58787D01*
X922527Y78373D01*
X924190Y82387D01*
X927263Y85460D01*
X931277Y87123D01*
X935623Y87123D01*
X937075Y86521D01*
X937189Y86494D01*
X937302Y86466D01*
X937309Y86466D01*
X937315Y86465D01*
X937431Y86476D01*
X937548Y86485D01*
X937553Y86487D01*
X937560Y86488D01*
X937667Y86536D01*
X937774Y86581D01*
X937780Y86586D01*
X937784Y86588D01*
X937798Y86601D01*
X937905Y86686D01*
X941867Y90648D01*
X941909Y90706D01*
X941958Y90758D01*
X941980Y90805D01*
X942010Y90847D01*
X942031Y90916D01*
X942062Y90981D01*
X942067Y91033D01*
X942083Y91083D01*
X942081Y91154D01*
X942089Y91225D01*
X942078Y91276D01*
X942076Y91328D01*
X942052Y91396D01*
X942036Y91466D01*
X942010Y91511D01*
X941992Y91559D01*
X941947Y91615D01*
X941910Y91677D01*
X941871Y91711D01*
X941838Y91751D01*
X941778Y91790D01*
X941723Y91837D01*
X941675Y91856D01*
X941631Y91884D01*
X941562Y91902D01*
X941495Y91929D01*
X941424Y91937D01*
X941393Y91945D01*
X941369Y91943D01*
X941328Y91947D01*
X788020Y91947D01*
X784472Y93417D01*
X781650Y96239D01*
X750143Y127746D01*
X750127Y127757D01*
X750115Y127773D01*
X750027Y127829D01*
X749944Y127889D01*
X749925Y127895D01*
X749908Y127906D01*
X749807Y127931D01*
X749708Y127962D01*
X749689Y127961D01*
X749669Y127966D01*
X749566Y127958D01*
X749463Y127955D01*
X749444Y127948D01*
X749424Y127947D01*
X749329Y127907D01*
X749232Y127871D01*
X749216Y127858D01*
X749198Y127851D01*
X749067Y127746D01*
X737076Y115755D01*
X737023Y115681D01*
X736963Y115611D01*
X736951Y115581D01*
X736932Y115555D01*
X736905Y115468D01*
X736871Y115383D01*
X736867Y115342D01*
X736860Y115320D01*
X736861Y115288D01*
X736853Y115216D01*
X736853Y110512D01*
X734918Y108577D01*
X719182Y108577D01*
X718088Y109671D01*
X718072Y109683D01*
X718060Y109698D01*
X717972Y109754D01*
X717889Y109814D01*
X717870Y109820D01*
X717853Y109831D01*
X717752Y109856D01*
X717653Y109887D01*
X717634Y109886D01*
X717614Y109891D01*
X717511Y109883D01*
X717408Y109880D01*
X717389Y109874D01*
X717369Y109872D01*
X717274Y109832D01*
X717177Y109796D01*
X717161Y109784D01*
X717143Y109776D01*
X717012Y109671D01*
X715918Y108577D01*
X714654Y108577D01*
X714634Y108574D01*
X714615Y108576D01*
X714513Y108554D01*
X714411Y108538D01*
X714394Y108528D01*
X714374Y108524D01*
X714285Y108471D01*
X714194Y108422D01*
X714180Y108408D01*
X714163Y108398D01*
X714096Y108319D01*
X714024Y108244D01*
X714016Y108226D01*
X714003Y108211D01*
X713964Y108115D01*
X713921Y108021D01*
X713919Y108001D01*
X713911Y107983D01*
X713893Y107816D01*
X713893Y101378D01*
X713907Y101288D01*
X713915Y101197D01*
X713927Y101167D01*
X713932Y101135D01*
X713975Y101054D01*
X714011Y100970D01*
X714037Y100938D01*
X714048Y100918D01*
X714071Y100895D01*
X714116Y100839D01*
X719483Y95472D01*
X721233Y93722D01*
X722123Y91574D01*
X722123Y69850D01*
X722126Y69830D01*
X722124Y69811D01*
X722146Y69709D01*
X722162Y69607D01*
X722172Y69590D01*
X722176Y69570D01*
X722229Y69481D01*
X722278Y69390D01*
X722292Y69376D01*
X722302Y69359D01*
X722381Y69292D01*
X722456Y69220D01*
X722474Y69212D01*
X722489Y69199D01*
X722585Y69160D01*
X722679Y69117D01*
X722699Y69115D01*
X722717Y69107D01*
X722884Y69089D01*
X737762Y69089D01*
X739910Y68199D01*
X756069Y52040D01*
X756143Y51987D01*
X756213Y51927D01*
X756243Y51915D01*
X756269Y51896D01*
X756356Y51869D01*
X756441Y51835D01*
X756482Y51831D01*
X756504Y51824D01*
X756536Y51825D01*
X756607Y51817D01*
X768745Y51817D01*
X772759Y50154D01*
X775832Y47081D01*
X777495Y43067D01*
X777495Y38721D01*
X775832Y34707D01*
X772759Y31634D01*
X768745Y29971D01*
X749159Y29971D01*
X745145Y31634D01*
X742072Y34707D01*
X740409Y38721D01*
X740409Y43067D01*
X742072Y47081D01*
X742749Y47758D01*
X742760Y47774D01*
X742776Y47786D01*
X742832Y47874D01*
X742892Y47958D01*
X742898Y47977D01*
X742909Y47993D01*
X742934Y48094D01*
X742965Y48193D01*
X742964Y48213D01*
X742969Y48232D01*
X742961Y48335D01*
X742958Y48439D01*
X742951Y48457D01*
X742950Y48477D01*
X742910Y48572D01*
X742874Y48670D01*
X742861Y48685D01*
X742854Y48703D01*
X742749Y48834D01*
X734403Y57180D01*
X734329Y57233D01*
X734259Y57293D01*
X734229Y57305D01*
X734203Y57324D01*
X734116Y57351D01*
X734031Y57385D01*
X733990Y57389D01*
X733968Y57396D01*
X733936Y57395D01*
X733865Y57403D01*
X719015Y57403D01*
X718925Y57389D01*
X718834Y57381D01*
X718805Y57369D01*
X718773Y57364D01*
X718692Y57321D01*
X718608Y57285D01*
X718576Y57259D01*
X718555Y57248D01*
X718533Y57225D01*
X718477Y57180D01*
X710131Y48834D01*
X710120Y48818D01*
X710104Y48806D01*
X710048Y48719D01*
X709988Y48635D01*
X709982Y48616D01*
X709971Y48599D01*
X709946Y48498D01*
X709915Y48400D01*
X709916Y48380D01*
X709911Y48360D01*
X709919Y48257D01*
X709922Y48154D01*
X709929Y48135D01*
X709930Y48115D01*
X709971Y48020D01*
X710006Y47923D01*
X710019Y47907D01*
X710026Y47889D01*
X710131Y47758D01*
X710808Y47081D01*
X712471Y43067D01*
X712471Y38721D01*
X710808Y34707D01*
X707735Y31634D01*
X703721Y29971D01*
X684135Y29971D01*
X680121Y31634D01*
X677048Y34707D01*
X675385Y38721D01*
X675385Y43067D01*
X677048Y47081D01*
X680121Y50154D01*
X684135Y51817D01*
X696273Y51817D01*
X696363Y51831D01*
X696454Y51839D01*
X696483Y51851D01*
X696515Y51856D01*
X696596Y51899D01*
X696680Y51935D01*
X696712Y51961D01*
X696733Y51972D01*
X696755Y51995D01*
X696811Y52040D01*
X710214Y65443D01*
X710257Y65502D01*
X710302Y65550D01*
X710309Y65566D01*
X710327Y65587D01*
X710339Y65617D01*
X710358Y65643D01*
X710383Y65724D01*
X710405Y65773D01*
X710407Y65785D01*
X710419Y65815D01*
X710423Y65856D01*
X710430Y65878D01*
X710429Y65910D01*
X710437Y65981D01*
X710437Y78788D01*
X710426Y78859D01*
X710424Y78930D01*
X710406Y78979D01*
X710398Y79031D01*
X710364Y79094D01*
X710339Y79161D01*
X710307Y79202D01*
X710282Y79248D01*
X710230Y79297D01*
X710186Y79353D01*
X710142Y79382D01*
X710104Y79418D01*
X710039Y79448D01*
X709979Y79486D01*
X709928Y79499D01*
X709881Y79521D01*
X709810Y79529D01*
X709740Y79547D01*
X709688Y79542D01*
X709637Y79548D01*
X709566Y79533D01*
X709495Y79527D01*
X709447Y79507D01*
X709396Y79496D01*
X709335Y79459D01*
X709269Y79431D01*
X709213Y79386D01*
X709185Y79370D01*
X709170Y79352D01*
X709138Y79326D01*
X708167Y78356D01*
X706873Y77416D01*
X705448Y76690D01*
X703927Y76195D01*
X702348Y75945D01*
X695451Y75945D01*
X695451Y85344D01*
X695448Y85364D01*
X695450Y85383D01*
X695428Y85485D01*
X695411Y85587D01*
X695402Y85604D01*
X695398Y85624D01*
X695345Y85713D01*
X695296Y85804D01*
X695282Y85818D01*
X695272Y85835D01*
X695193Y85902D01*
X695118Y85973D01*
X695100Y85982D01*
X695085Y85995D01*
X694989Y86033D01*
X694895Y86077D01*
X694875Y86079D01*
X694857Y86087D01*
X694690Y86105D01*
X693927Y86105D01*
X693927Y86107D01*
X694690Y86107D01*
X694710Y86110D01*
X694729Y86108D01*
X694831Y86130D01*
X694933Y86147D01*
X694950Y86156D01*
X694970Y86160D01*
X695059Y86213D01*
X695150Y86262D01*
X695164Y86276D01*
X695181Y86286D01*
X695248Y86365D01*
X695319Y86440D01*
X695328Y86458D01*
X695341Y86473D01*
X695380Y86569D01*
X695423Y86663D01*
X695425Y86683D01*
X695433Y86701D01*
X695451Y86868D01*
X695451Y96267D01*
X701571Y96267D01*
X701616Y96274D01*
X701662Y96272D01*
X701737Y96294D01*
X701813Y96306D01*
X701854Y96328D01*
X701898Y96341D01*
X701962Y96385D01*
X702031Y96422D01*
X702062Y96455D01*
X702100Y96481D01*
X702146Y96543D01*
X702200Y96600D01*
X702219Y96642D01*
X702247Y96678D01*
X702271Y96752D01*
X702304Y96823D01*
X702309Y96869D01*
X702323Y96912D01*
X702322Y96990D01*
X702331Y97067D01*
X702321Y97112D01*
X702321Y97158D01*
X702282Y97289D01*
X702279Y97308D01*
X702276Y97312D01*
X702274Y97319D01*
X702207Y97480D01*
X702207Y107816D01*
X702204Y107836D01*
X702206Y107855D01*
X702184Y107957D01*
X702168Y108059D01*
X702158Y108076D01*
X702154Y108096D01*
X702101Y108185D01*
X702052Y108276D01*
X702038Y108290D01*
X702028Y108307D01*
X701949Y108374D01*
X701874Y108446D01*
X701856Y108454D01*
X701841Y108467D01*
X701745Y108506D01*
X701651Y108549D01*
X701631Y108551D01*
X701613Y108559D01*
X701446Y108577D01*
X700182Y108577D01*
X698247Y110512D01*
X698247Y128248D01*
X700182Y130183D01*
X715918Y130183D01*
X717012Y129089D01*
X717028Y129077D01*
X717040Y129062D01*
X717128Y129006D01*
X717211Y128946D01*
X717230Y128940D01*
X717247Y128929D01*
X717348Y128904D01*
X717447Y128873D01*
X717466Y128874D01*
X717486Y128869D01*
X717589Y128877D01*
X717692Y128880D01*
X717711Y128886D01*
X717731Y128888D01*
X717826Y128928D01*
X717923Y128964D01*
X717939Y128976D01*
X717957Y128984D01*
X718088Y129089D01*
X719182Y130183D01*
X723886Y130183D01*
X723976Y130197D01*
X724067Y130205D01*
X724097Y130217D01*
X724129Y130222D01*
X724210Y130265D01*
X724294Y130301D01*
X724326Y130327D01*
X724347Y130338D01*
X724369Y130361D01*
X724425Y130406D01*
X725307Y131288D01*
X725349Y131346D01*
X725398Y131398D01*
X725420Y131445D01*
X725450Y131487D01*
X725471Y131556D01*
X725502Y131621D01*
X725507Y131673D01*
X725523Y131723D01*
X725521Y131794D01*
X725529Y131865D01*
X725518Y131916D01*
X725516Y131968D01*
X725492Y132036D01*
X725476Y132106D01*
X725450Y132151D01*
X725432Y132199D01*
X725387Y132255D01*
X725350Y132317D01*
X725311Y132351D01*
X725278Y132391D01*
X725218Y132430D01*
X725163Y132477D01*
X725115Y132496D01*
X725071Y132524D01*
X725002Y132542D01*
X724935Y132569D01*
X724864Y132577D01*
X724833Y132585D01*
X724809Y132583D01*
X724768Y132587D01*
X474214Y132587D01*
X474124Y132573D01*
X474033Y132565D01*
X474003Y132553D01*
X473971Y132548D01*
X473890Y132505D01*
X473806Y132469D01*
X473774Y132443D01*
X473753Y132432D01*
X473731Y132409D01*
X473675Y132364D01*
X456406Y115095D01*
X456353Y115021D01*
X456293Y114951D01*
X456281Y114921D01*
X456262Y114895D01*
X456235Y114808D01*
X456201Y114723D01*
X456197Y114682D01*
X456190Y114660D01*
X456191Y114628D01*
X456183Y114556D01*
X456183Y110512D01*
X454248Y108577D01*
X438512Y108577D01*
X437418Y109671D01*
X437402Y109683D01*
X437390Y109698D01*
X437302Y109754D01*
X437219Y109814D01*
X437200Y109820D01*
X437183Y109831D01*
X437082Y109856D01*
X436983Y109887D01*
X436964Y109886D01*
X436944Y109891D01*
X436841Y109883D01*
X436738Y109880D01*
X436719Y109874D01*
X436699Y109872D01*
X436604Y109832D01*
X436507Y109796D01*
X436491Y109784D01*
X436473Y109776D01*
X436342Y109671D01*
X435248Y108577D01*
X433984Y108577D01*
X433964Y108574D01*
X433945Y108576D01*
X433843Y108554D01*
X433741Y108538D01*
X433724Y108528D01*
X433704Y108524D01*
X433615Y108471D01*
X433524Y108422D01*
X433510Y108408D01*
X433493Y108398D01*
X433426Y108319D01*
X433354Y108244D01*
X433346Y108226D01*
X433333Y108211D01*
X433294Y108115D01*
X433251Y108021D01*
X433249Y108001D01*
X433241Y107983D01*
X433223Y107816D01*
X433223Y100255D01*
X433237Y100165D01*
X433245Y100074D01*
X433257Y100045D01*
X433262Y100013D01*
X433305Y99932D01*
X433341Y99848D01*
X433367Y99816D01*
X433378Y99795D01*
X433401Y99773D01*
X433420Y99750D01*
X433424Y99743D01*
X433428Y99739D01*
X433446Y99717D01*
X439293Y93870D01*
X440183Y91722D01*
X440183Y69850D01*
X440186Y69830D01*
X440184Y69811D01*
X440206Y69709D01*
X440222Y69607D01*
X440232Y69590D01*
X440236Y69570D01*
X440289Y69481D01*
X440338Y69390D01*
X440352Y69376D01*
X440362Y69359D01*
X440441Y69292D01*
X440516Y69220D01*
X440534Y69212D01*
X440549Y69199D01*
X440645Y69160D01*
X440739Y69117D01*
X440759Y69115D01*
X440777Y69107D01*
X440944Y69089D01*
X455822Y69089D01*
X457970Y68199D01*
X474129Y52040D01*
X474203Y51987D01*
X474273Y51927D01*
X474303Y51915D01*
X474329Y51896D01*
X474416Y51869D01*
X474501Y51835D01*
X474542Y51831D01*
X474564Y51824D01*
X474596Y51825D01*
X474667Y51817D01*
X486805Y51817D01*
X490819Y50154D01*
X493892Y47081D01*
X495555Y43067D01*
X495555Y38721D01*
X493892Y34707D01*
X490819Y31634D01*
X486805Y29971D01*
X467219Y29971D01*
X463205Y31634D01*
X460132Y34707D01*
X458469Y38721D01*
X458469Y43067D01*
X460132Y47081D01*
X460809Y47758D01*
X460820Y47774D01*
X460836Y47786D01*
X460892Y47874D01*
X460952Y47958D01*
X460958Y47977D01*
X460969Y47993D01*
X460994Y48094D01*
X461025Y48193D01*
X461024Y48213D01*
X461029Y48232D01*
X461021Y48335D01*
X461018Y48439D01*
X461011Y48457D01*
X461010Y48477D01*
X460970Y48572D01*
X460934Y48670D01*
X460921Y48685D01*
X460914Y48703D01*
X460809Y48834D01*
X452463Y57180D01*
X452389Y57233D01*
X452319Y57293D01*
X452289Y57305D01*
X452263Y57324D01*
X452176Y57351D01*
X452091Y57385D01*
X452050Y57389D01*
X452028Y57396D01*
X451996Y57395D01*
X451925Y57403D01*
X437075Y57403D01*
X436985Y57389D01*
X436894Y57381D01*
X436865Y57369D01*
X436833Y57364D01*
X436752Y57321D01*
X436668Y57285D01*
X436636Y57259D01*
X436615Y57248D01*
X436593Y57225D01*
X436537Y57180D01*
X428191Y48834D01*
X428180Y48818D01*
X428164Y48806D01*
X428108Y48719D01*
X428048Y48635D01*
X428042Y48616D01*
X428031Y48599D01*
X428006Y48498D01*
X427975Y48400D01*
X427976Y48380D01*
X427971Y48360D01*
X427979Y48257D01*
X427982Y48154D01*
X427989Y48135D01*
X427990Y48115D01*
X428031Y48020D01*
X428066Y47923D01*
X428079Y47907D01*
X428086Y47889D01*
X428191Y47758D01*
X428868Y47081D01*
X430531Y43067D01*
X430531Y38721D01*
X428868Y34707D01*
X425795Y31634D01*
X421781Y29971D01*
X402195Y29971D01*
X398181Y31634D01*
X395108Y34707D01*
X393445Y38721D01*
X393445Y43067D01*
X395108Y47081D01*
X398181Y50154D01*
X402195Y51817D01*
X414333Y51817D01*
X414423Y51831D01*
X414514Y51839D01*
X414543Y51851D01*
X414575Y51856D01*
X414656Y51899D01*
X414740Y51935D01*
X414772Y51961D01*
X414793Y51972D01*
X414815Y51995D01*
X414871Y52040D01*
X428274Y65443D01*
X428317Y65502D01*
X428362Y65550D01*
X428370Y65566D01*
X428387Y65587D01*
X428399Y65617D01*
X428418Y65643D01*
X428443Y65724D01*
X428465Y65773D01*
X428467Y65785D01*
X428479Y65815D01*
X428483Y65856D01*
X428490Y65878D01*
X428489Y65910D01*
X428497Y65981D01*
X428497Y78788D01*
X428486Y78859D01*
X428484Y78930D01*
X428466Y78979D01*
X428458Y79031D01*
X428424Y79094D01*
X428399Y79161D01*
X428367Y79202D01*
X428342Y79248D01*
X428290Y79297D01*
X428246Y79353D01*
X428202Y79382D01*
X428164Y79418D01*
X428099Y79448D01*
X428039Y79486D01*
X427988Y79499D01*
X427941Y79521D01*
X427870Y79529D01*
X427800Y79547D01*
X427748Y79542D01*
X427697Y79548D01*
X427626Y79533D01*
X427555Y79527D01*
X427507Y79507D01*
X427456Y79496D01*
X427395Y79459D01*
X427329Y79431D01*
X427273Y79386D01*
X427245Y79370D01*
X427230Y79352D01*
X427198Y79326D01*
X426227Y78356D01*
X424933Y77416D01*
X423508Y76690D01*
X421987Y76195D01*
X420408Y75945D01*
X413511Y75945D01*
X413511Y85344D01*
X413508Y85364D01*
X413510Y85383D01*
X413488Y85485D01*
X413471Y85587D01*
X413462Y85604D01*
X413458Y85624D01*
X413405Y85713D01*
X413356Y85804D01*
X413342Y85818D01*
X413332Y85835D01*
X413253Y85902D01*
X413178Y85973D01*
X413160Y85982D01*
X413145Y85995D01*
X413049Y86033D01*
X412955Y86077D01*
X412935Y86079D01*
X412917Y86087D01*
X412750Y86105D01*
X411987Y86105D01*
X411987Y86107D01*
X412750Y86107D01*
X412770Y86110D01*
X412789Y86108D01*
X412891Y86130D01*
X412993Y86147D01*
X413010Y86156D01*
X413030Y86160D01*
X413119Y86213D01*
X413210Y86262D01*
X413224Y86276D01*
X413241Y86286D01*
X413308Y86365D01*
X413379Y86440D01*
X413388Y86458D01*
X413401Y86473D01*
X413440Y86569D01*
X413483Y86663D01*
X413485Y86683D01*
X413493Y86701D01*
X413511Y86868D01*
X413511Y96267D01*
X420408Y96267D01*
X420657Y96227D01*
X420737Y96228D01*
X420815Y96219D01*
X420859Y96228D01*
X420903Y96228D01*
X420978Y96254D01*
X421056Y96271D01*
X421094Y96294D01*
X421136Y96308D01*
X421199Y96357D01*
X421267Y96397D01*
X421296Y96431D01*
X421331Y96458D01*
X421375Y96524D01*
X421427Y96584D01*
X421443Y96625D01*
X421468Y96662D01*
X421489Y96738D01*
X421519Y96812D01*
X421525Y96871D01*
X421533Y96899D01*
X421531Y96927D01*
X421537Y96979D01*
X421537Y107816D01*
X421534Y107836D01*
X421536Y107855D01*
X421514Y107957D01*
X421498Y108059D01*
X421488Y108076D01*
X421484Y108096D01*
X421431Y108185D01*
X421382Y108276D01*
X421368Y108290D01*
X421358Y108307D01*
X421279Y108374D01*
X421204Y108446D01*
X421186Y108454D01*
X421171Y108467D01*
X421075Y108506D01*
X420981Y108549D01*
X420961Y108551D01*
X420943Y108559D01*
X420776Y108577D01*
X419512Y108577D01*
X417577Y110512D01*
X417577Y128248D01*
X419512Y130183D01*
X435248Y130183D01*
X436342Y129089D01*
X436358Y129077D01*
X436370Y129062D01*
X436458Y129006D01*
X436541Y128946D01*
X436560Y128940D01*
X436577Y128929D01*
X436678Y128904D01*
X436777Y128873D01*
X436796Y128874D01*
X436816Y128869D01*
X436919Y128877D01*
X437022Y128880D01*
X437041Y128886D01*
X437061Y128888D01*
X437156Y128928D01*
X437253Y128964D01*
X437269Y128976D01*
X437287Y128984D01*
X437418Y129089D01*
X438512Y130183D01*
X443876Y130183D01*
X443966Y130197D01*
X444057Y130205D01*
X444087Y130217D01*
X444119Y130222D01*
X444200Y130265D01*
X444284Y130301D01*
X444316Y130327D01*
X444337Y130338D01*
X444359Y130361D01*
X444415Y130406D01*
X445297Y131288D01*
X445339Y131346D01*
X445388Y131398D01*
X445410Y131445D01*
X445440Y131487D01*
X445461Y131556D01*
X445492Y131621D01*
X445497Y131673D01*
X445513Y131723D01*
X445511Y131794D01*
X445519Y131865D01*
X445508Y131916D01*
X445506Y131968D01*
X445482Y132036D01*
X445466Y132106D01*
X445440Y132151D01*
X445422Y132199D01*
X445377Y132255D01*
X445340Y132317D01*
X445301Y132351D01*
X445268Y132391D01*
X445208Y132430D01*
X445153Y132477D01*
X445105Y132496D01*
X445061Y132524D01*
X444992Y132542D01*
X444925Y132569D01*
X444854Y132577D01*
X444823Y132585D01*
X444799Y132583D01*
X444758Y132587D01*
X177136Y132587D01*
X177046Y132573D01*
X176955Y132565D01*
X176925Y132553D01*
X176893Y132548D01*
X176812Y132505D01*
X176728Y132469D01*
X176696Y132443D01*
X176675Y132432D01*
X176653Y132409D01*
X176597Y132364D01*
X159988Y115755D01*
X159935Y115681D01*
X159875Y115611D01*
X159863Y115581D01*
X159844Y115555D01*
X159817Y115468D01*
X159783Y115383D01*
X159779Y115342D01*
X159772Y115320D01*
X159773Y115288D01*
X159765Y115216D01*
X159765Y110512D01*
X157830Y108577D01*
X142094Y108577D01*
X141000Y109671D01*
X140984Y109683D01*
X140972Y109698D01*
X140884Y109754D01*
X140801Y109814D01*
X140782Y109820D01*
X140765Y109831D01*
X140664Y109856D01*
X140565Y109887D01*
X140546Y109886D01*
X140526Y109891D01*
X140423Y109883D01*
X140320Y109880D01*
X140301Y109874D01*
X140281Y109872D01*
X140186Y109832D01*
X140089Y109796D01*
X140073Y109784D01*
X140055Y109776D01*
X139924Y109671D01*
X138830Y108577D01*
X137566Y108577D01*
X137546Y108574D01*
X137527Y108576D01*
X137425Y108554D01*
X137323Y108538D01*
X137306Y108528D01*
X137286Y108524D01*
X137197Y108471D01*
X137106Y108422D01*
X137092Y108408D01*
X137075Y108398D01*
X137008Y108319D01*
X136936Y108244D01*
X136928Y108226D01*
X136915Y108211D01*
X136876Y108115D01*
X136833Y108021D01*
X136831Y108001D01*
X136823Y107983D01*
X136805Y107816D01*
X136805Y100616D01*
X136819Y100526D01*
X136827Y100435D01*
X136839Y100405D01*
X136844Y100373D01*
X136887Y100292D01*
X136923Y100208D01*
X136949Y100176D01*
X136960Y100156D01*
X136983Y100133D01*
X137028Y100077D01*
X142113Y94992D01*
X143003Y92844D01*
X143003Y68580D01*
X143006Y68560D01*
X143004Y68541D01*
X143026Y68439D01*
X143042Y68337D01*
X143052Y68320D01*
X143056Y68300D01*
X143109Y68211D01*
X143158Y68120D01*
X143172Y68106D01*
X143182Y68089D01*
X143261Y68022D01*
X143336Y67950D01*
X143354Y67942D01*
X143369Y67929D01*
X143465Y67890D01*
X143559Y67847D01*
X143579Y67845D01*
X143597Y67837D01*
X143764Y67819D01*
X161182Y67819D01*
X163330Y66929D01*
X165080Y65179D01*
X178219Y52040D01*
X178293Y51987D01*
X178363Y51927D01*
X178393Y51915D01*
X178419Y51896D01*
X178506Y51869D01*
X178591Y51835D01*
X178632Y51831D01*
X178654Y51824D01*
X178686Y51825D01*
X178757Y51817D01*
X190895Y51817D01*
X194909Y50154D01*
X197982Y47081D01*
X199645Y43067D01*
X199645Y38721D01*
X197982Y34707D01*
X194909Y31634D01*
X190895Y29971D01*
X171309Y29971D01*
X167295Y31634D01*
X164222Y34707D01*
X162559Y38721D01*
X162559Y43067D01*
X164222Y47081D01*
X164899Y47758D01*
X164910Y47774D01*
X164926Y47786D01*
X164982Y47874D01*
X165042Y47958D01*
X165048Y47977D01*
X165059Y47993D01*
X165084Y48094D01*
X165115Y48193D01*
X165114Y48213D01*
X165119Y48232D01*
X165111Y48335D01*
X165108Y48439D01*
X165101Y48457D01*
X165100Y48477D01*
X165060Y48572D01*
X165024Y48670D01*
X165011Y48685D01*
X165004Y48703D01*
X164899Y48834D01*
X157823Y55910D01*
X157749Y55963D01*
X157679Y56023D01*
X157649Y56035D01*
X157623Y56054D01*
X157536Y56081D01*
X157451Y56115D01*
X157410Y56119D01*
X157388Y56126D01*
X157356Y56125D01*
X157285Y56133D01*
X139895Y56133D01*
X139805Y56119D01*
X139714Y56111D01*
X139685Y56099D01*
X139653Y56094D01*
X139572Y56051D01*
X139488Y56015D01*
X139456Y55989D01*
X139435Y55978D01*
X139413Y55955D01*
X139357Y55910D01*
X132281Y48834D01*
X132270Y48818D01*
X132254Y48806D01*
X132198Y48719D01*
X132138Y48635D01*
X132132Y48616D01*
X132121Y48599D01*
X132096Y48498D01*
X132065Y48400D01*
X132066Y48380D01*
X132061Y48360D01*
X132069Y48257D01*
X132072Y48154D01*
X132079Y48135D01*
X132080Y48115D01*
X132121Y48020D01*
X132156Y47923D01*
X132169Y47907D01*
X132176Y47889D01*
X132281Y47758D01*
X132958Y47081D01*
X134621Y43067D01*
X134621Y38721D01*
X132958Y34707D01*
X129885Y31634D01*
X125871Y29971D01*
X106285Y29971D01*
G37*
%LPD*%
%LPC*%
G36*
X1168767Y17017D02*
X1168767Y17017D01*
X1164753Y18680D01*
X1161680Y21753D01*
X1160017Y25767D01*
X1160017Y30113D01*
X1161680Y34127D01*
X1164753Y37200D01*
X1168767Y38863D01*
X1188353Y38863D01*
X1191279Y37651D01*
X1191343Y37636D01*
X1191403Y37611D01*
X1191486Y37602D01*
X1191518Y37595D01*
X1191538Y37596D01*
X1191570Y37593D01*
X1242826Y37593D01*
X1242916Y37607D01*
X1243007Y37615D01*
X1243037Y37627D01*
X1243069Y37632D01*
X1243150Y37675D01*
X1243234Y37711D01*
X1243266Y37737D01*
X1243287Y37748D01*
X1243309Y37771D01*
X1243365Y37816D01*
X1246787Y41238D01*
X1246829Y41296D01*
X1246878Y41348D01*
X1246900Y41395D01*
X1246930Y41437D01*
X1246951Y41506D01*
X1246982Y41571D01*
X1246987Y41623D01*
X1247003Y41673D01*
X1247001Y41744D01*
X1247009Y41815D01*
X1246998Y41866D01*
X1246996Y41918D01*
X1246972Y41986D01*
X1246956Y42056D01*
X1246930Y42101D01*
X1246912Y42149D01*
X1246867Y42205D01*
X1246830Y42267D01*
X1246791Y42301D01*
X1246758Y42341D01*
X1246698Y42380D01*
X1246643Y42427D01*
X1246595Y42446D01*
X1246551Y42474D01*
X1246482Y42492D01*
X1246415Y42519D01*
X1246344Y42527D01*
X1246313Y42535D01*
X1246289Y42533D01*
X1246248Y42537D01*
X1232312Y42537D01*
X1231385Y43464D01*
X1231311Y43517D01*
X1231242Y43577D01*
X1231211Y43589D01*
X1231185Y43608D01*
X1231098Y43635D01*
X1231013Y43669D01*
X1230972Y43673D01*
X1230950Y43680D01*
X1230918Y43679D01*
X1230847Y43687D01*
X1191570Y43687D01*
X1191505Y43677D01*
X1191440Y43676D01*
X1191360Y43653D01*
X1191327Y43648D01*
X1191310Y43638D01*
X1191279Y43629D01*
X1188353Y42417D01*
X1168767Y42417D01*
X1164753Y44080D01*
X1161680Y47153D01*
X1160017Y51167D01*
X1160017Y55513D01*
X1161680Y59527D01*
X1164753Y62600D01*
X1168767Y64263D01*
X1188353Y64263D01*
X1191279Y63051D01*
X1191343Y63036D01*
X1191403Y63011D01*
X1191486Y63002D01*
X1191518Y62995D01*
X1191538Y62996D01*
X1191570Y62993D01*
X1230847Y62993D01*
X1230937Y63007D01*
X1231028Y63015D01*
X1231057Y63027D01*
X1231089Y63032D01*
X1231170Y63075D01*
X1231254Y63111D01*
X1231286Y63137D01*
X1231307Y63148D01*
X1231329Y63171D01*
X1231385Y63216D01*
X1232312Y64143D01*
X1248048Y64143D01*
X1249142Y63049D01*
X1249158Y63037D01*
X1249170Y63022D01*
X1249258Y62966D01*
X1249341Y62906D01*
X1249360Y62900D01*
X1249377Y62889D01*
X1249478Y62864D01*
X1249577Y62833D01*
X1249596Y62834D01*
X1249616Y62829D01*
X1249719Y62837D01*
X1249822Y62840D01*
X1249841Y62846D01*
X1249861Y62848D01*
X1249956Y62888D01*
X1250053Y62924D01*
X1250069Y62936D01*
X1250087Y62944D01*
X1250218Y63049D01*
X1251312Y64143D01*
X1267048Y64143D01*
X1267975Y63216D01*
X1268049Y63163D01*
X1268118Y63103D01*
X1268149Y63091D01*
X1268175Y63072D01*
X1268262Y63045D01*
X1268347Y63011D01*
X1268388Y63007D01*
X1268410Y63000D01*
X1268442Y63001D01*
X1268513Y62993D01*
X1319340Y62993D01*
X1322459Y61701D01*
X1322523Y61686D01*
X1322584Y61661D01*
X1322667Y61652D01*
X1322699Y61645D01*
X1322718Y61646D01*
X1322751Y61643D01*
X1325788Y61643D01*
X1327723Y59708D01*
X1327723Y50651D01*
X1327734Y50581D01*
X1327736Y50509D01*
X1327754Y50460D01*
X1327762Y50409D01*
X1327796Y50345D01*
X1327821Y50278D01*
X1327853Y50237D01*
X1327878Y50191D01*
X1327930Y50142D01*
X1327974Y50086D01*
X1328018Y50058D01*
X1328056Y50022D01*
X1328121Y49992D01*
X1328181Y49953D01*
X1328232Y49940D01*
X1328279Y49918D01*
X1328350Y49910D01*
X1328420Y49893D01*
X1328472Y49897D01*
X1328523Y49891D01*
X1328594Y49906D01*
X1328665Y49912D01*
X1328713Y49932D01*
X1328764Y49943D01*
X1328825Y49980D01*
X1328891Y50008D01*
X1328947Y50053D01*
X1328975Y50070D01*
X1328990Y50087D01*
X1329022Y50113D01*
X1331052Y52143D01*
X1347788Y52143D01*
X1349790Y50141D01*
X1349829Y50075D01*
X1349878Y49984D01*
X1349892Y49970D01*
X1349902Y49953D01*
X1349981Y49886D01*
X1350056Y49814D01*
X1350074Y49806D01*
X1350089Y49793D01*
X1350185Y49754D01*
X1350279Y49711D01*
X1350299Y49709D01*
X1350317Y49701D01*
X1350484Y49683D01*
X1372065Y49683D01*
X1372155Y49697D01*
X1372246Y49705D01*
X1372275Y49717D01*
X1372307Y49722D01*
X1372388Y49765D01*
X1372472Y49801D01*
X1372504Y49827D01*
X1372525Y49838D01*
X1372547Y49861D01*
X1372603Y49906D01*
X1380990Y58293D01*
X1383138Y59183D01*
X1406146Y59183D01*
X1406166Y59186D01*
X1406185Y59184D01*
X1406287Y59206D01*
X1406389Y59222D01*
X1406406Y59232D01*
X1406426Y59236D01*
X1406515Y59289D01*
X1406606Y59338D01*
X1406620Y59352D01*
X1406637Y59362D01*
X1406704Y59441D01*
X1406776Y59516D01*
X1406784Y59534D01*
X1406797Y59549D01*
X1406836Y59645D01*
X1406879Y59739D01*
X1406881Y59759D01*
X1406889Y59777D01*
X1406907Y59944D01*
X1406907Y62208D01*
X1408842Y64143D01*
X1424578Y64143D01*
X1425672Y63049D01*
X1425688Y63037D01*
X1425700Y63022D01*
X1425788Y62966D01*
X1425871Y62906D01*
X1425890Y62900D01*
X1425907Y62889D01*
X1426008Y62864D01*
X1426107Y62833D01*
X1426126Y62834D01*
X1426146Y62829D01*
X1426249Y62837D01*
X1426352Y62840D01*
X1426371Y62846D01*
X1426391Y62848D01*
X1426486Y62888D01*
X1426583Y62924D01*
X1426599Y62936D01*
X1426617Y62944D01*
X1426748Y63049D01*
X1427842Y64143D01*
X1437935Y64143D01*
X1438025Y64157D01*
X1438116Y64165D01*
X1438145Y64177D01*
X1438177Y64182D01*
X1438258Y64225D01*
X1438342Y64261D01*
X1438374Y64287D01*
X1438395Y64298D01*
X1438417Y64321D01*
X1438473Y64366D01*
X1454434Y80327D01*
X1454487Y80401D01*
X1454547Y80471D01*
X1454559Y80501D01*
X1454578Y80527D01*
X1454605Y80614D01*
X1454639Y80699D01*
X1454643Y80740D01*
X1454650Y80762D01*
X1454649Y80794D01*
X1454657Y80865D01*
X1454657Y385885D01*
X1454643Y385975D01*
X1454635Y386066D01*
X1454623Y386095D01*
X1454618Y386127D01*
X1454575Y386208D01*
X1454539Y386292D01*
X1454513Y386324D01*
X1454502Y386345D01*
X1454479Y386367D01*
X1454434Y386423D01*
X1434935Y405922D01*
X1434861Y405975D01*
X1434791Y406035D01*
X1434761Y406047D01*
X1434735Y406066D01*
X1434648Y406093D01*
X1434563Y406127D01*
X1434522Y406131D01*
X1434500Y406138D01*
X1434468Y406137D01*
X1434397Y406145D01*
X1428246Y406145D01*
X1422145Y412246D01*
X1422145Y420874D01*
X1428246Y426975D01*
X1436874Y426975D01*
X1442975Y420874D01*
X1442975Y414723D01*
X1442989Y414633D01*
X1442997Y414542D01*
X1443009Y414513D01*
X1443014Y414481D01*
X1443057Y414400D01*
X1443093Y414316D01*
X1443119Y414284D01*
X1443130Y414263D01*
X1443153Y414241D01*
X1443198Y414185D01*
X1465453Y391930D01*
X1466343Y389782D01*
X1466343Y76968D01*
X1465453Y74820D01*
X1445736Y55103D01*
X1445683Y55029D01*
X1445667Y55011D01*
X1445644Y54987D01*
X1445642Y54981D01*
X1445623Y54959D01*
X1445611Y54929D01*
X1445592Y54903D01*
X1445566Y54818D01*
X1445541Y54764D01*
X1445540Y54752D01*
X1445531Y54731D01*
X1445527Y54690D01*
X1445520Y54668D01*
X1445521Y54636D01*
X1445513Y54565D01*
X1445513Y44472D01*
X1443578Y42537D01*
X1427842Y42537D01*
X1426748Y43631D01*
X1426732Y43643D01*
X1426720Y43658D01*
X1426632Y43714D01*
X1426549Y43774D01*
X1426530Y43780D01*
X1426513Y43791D01*
X1426412Y43816D01*
X1426313Y43847D01*
X1426294Y43846D01*
X1426274Y43851D01*
X1426171Y43843D01*
X1426068Y43840D01*
X1426049Y43834D01*
X1426029Y43832D01*
X1425934Y43792D01*
X1425837Y43756D01*
X1425821Y43744D01*
X1425803Y43736D01*
X1425672Y43631D01*
X1424578Y42537D01*
X1408842Y42537D01*
X1406907Y44472D01*
X1406907Y46736D01*
X1406904Y46756D01*
X1406906Y46775D01*
X1406884Y46877D01*
X1406868Y46979D01*
X1406858Y46996D01*
X1406854Y47016D01*
X1406801Y47105D01*
X1406752Y47196D01*
X1406738Y47210D01*
X1406728Y47227D01*
X1406649Y47294D01*
X1406574Y47366D01*
X1406556Y47374D01*
X1406541Y47387D01*
X1406445Y47426D01*
X1406351Y47469D01*
X1406331Y47471D01*
X1406313Y47479D01*
X1406146Y47497D01*
X1387035Y47497D01*
X1386945Y47483D01*
X1386854Y47475D01*
X1386825Y47463D01*
X1386793Y47458D01*
X1386712Y47415D01*
X1386628Y47379D01*
X1386596Y47353D01*
X1386575Y47342D01*
X1386553Y47319D01*
X1386497Y47274D01*
X1378110Y38887D01*
X1375962Y37997D01*
X1350484Y37997D01*
X1350464Y37994D01*
X1350445Y37996D01*
X1350343Y37974D01*
X1350241Y37958D01*
X1350224Y37948D01*
X1350204Y37944D01*
X1350115Y37891D01*
X1350024Y37842D01*
X1350010Y37828D01*
X1349993Y37818D01*
X1349926Y37739D01*
X1349854Y37664D01*
X1349846Y37646D01*
X1349833Y37631D01*
X1349800Y37550D01*
X1347788Y35537D01*
X1331052Y35537D01*
X1329117Y37472D01*
X1329117Y46529D01*
X1329106Y46599D01*
X1329104Y46671D01*
X1329086Y46720D01*
X1329078Y46771D01*
X1329044Y46835D01*
X1329019Y46902D01*
X1328987Y46943D01*
X1328962Y46989D01*
X1328910Y47038D01*
X1328866Y47094D01*
X1328822Y47122D01*
X1328784Y47158D01*
X1328719Y47188D01*
X1328659Y47227D01*
X1328608Y47240D01*
X1328561Y47262D01*
X1328490Y47270D01*
X1328420Y47287D01*
X1328368Y47283D01*
X1328317Y47289D01*
X1328246Y47274D01*
X1328175Y47268D01*
X1328127Y47248D01*
X1328076Y47237D01*
X1328015Y47200D01*
X1327949Y47172D01*
X1327893Y47127D01*
X1327865Y47110D01*
X1327850Y47093D01*
X1327818Y47067D01*
X1325788Y45037D01*
X1322751Y45037D01*
X1322686Y45027D01*
X1322620Y45026D01*
X1322540Y45003D01*
X1322508Y44998D01*
X1322491Y44988D01*
X1322459Y44979D01*
X1319340Y43687D01*
X1269594Y43687D01*
X1269574Y43684D01*
X1269555Y43686D01*
X1269453Y43664D01*
X1269351Y43648D01*
X1269334Y43638D01*
X1269314Y43634D01*
X1269225Y43581D01*
X1269134Y43532D01*
X1269120Y43518D01*
X1269103Y43508D01*
X1269036Y43429D01*
X1268964Y43354D01*
X1268956Y43336D01*
X1268943Y43321D01*
X1268904Y43225D01*
X1268861Y43131D01*
X1268859Y43111D01*
X1268851Y43093D01*
X1268833Y42926D01*
X1268833Y38060D01*
X1267363Y34512D01*
X1252608Y19757D01*
X1249060Y18287D01*
X1191570Y18287D01*
X1191505Y18277D01*
X1191440Y18276D01*
X1191360Y18253D01*
X1191327Y18248D01*
X1191310Y18238D01*
X1191279Y18229D01*
X1188353Y17017D01*
X1168767Y17017D01*
G37*
%LPD*%
%LPC*%
G36*
X964297Y179577D02*
X964297Y179577D01*
X960283Y181240D01*
X957210Y184313D01*
X955547Y188327D01*
X955547Y207913D01*
X957210Y211927D01*
X960345Y215062D01*
X960357Y215069D01*
X960361Y215074D01*
X960366Y215077D01*
X960440Y215166D01*
X960517Y215256D01*
X960519Y215262D01*
X960523Y215266D01*
X960564Y215374D01*
X960609Y215484D01*
X960610Y215491D01*
X960611Y215496D01*
X960612Y215513D01*
X960627Y215651D01*
X960627Y240495D01*
X960613Y240585D01*
X960605Y240676D01*
X960593Y240705D01*
X960588Y240737D01*
X960545Y240818D01*
X960509Y240902D01*
X960483Y240934D01*
X960472Y240955D01*
X960449Y240977D01*
X960404Y241033D01*
X954263Y247174D01*
X954189Y247227D01*
X954119Y247287D01*
X954089Y247299D01*
X954063Y247318D01*
X953976Y247345D01*
X953891Y247379D01*
X953850Y247383D01*
X953828Y247390D01*
X953796Y247389D01*
X953725Y247397D01*
X943632Y247397D01*
X941697Y249332D01*
X941697Y265068D01*
X942791Y266162D01*
X942803Y266178D01*
X942818Y266190D01*
X942874Y266278D01*
X942934Y266361D01*
X942940Y266380D01*
X942951Y266397D01*
X942976Y266498D01*
X943007Y266597D01*
X943006Y266616D01*
X943011Y266636D01*
X943003Y266739D01*
X943000Y266842D01*
X942994Y266861D01*
X942992Y266881D01*
X942952Y266976D01*
X942916Y267073D01*
X942904Y267089D01*
X942896Y267107D01*
X942791Y267238D01*
X941697Y268332D01*
X941697Y284068D01*
X943632Y286003D01*
X953725Y286003D01*
X953815Y286017D01*
X953906Y286025D01*
X953935Y286037D01*
X953967Y286042D01*
X954048Y286085D01*
X954132Y286121D01*
X954164Y286147D01*
X954185Y286158D01*
X954207Y286181D01*
X954263Y286226D01*
X959104Y291067D01*
X959157Y291141D01*
X959217Y291211D01*
X959229Y291241D01*
X959248Y291267D01*
X959275Y291354D01*
X959309Y291439D01*
X959313Y291480D01*
X959320Y291502D01*
X959319Y291534D01*
X959327Y291605D01*
X959327Y317390D01*
X959324Y317410D01*
X959326Y317429D01*
X959304Y317531D01*
X959288Y317633D01*
X959278Y317650D01*
X959274Y317670D01*
X959221Y317759D01*
X959172Y317850D01*
X959158Y317864D01*
X959148Y317881D01*
X959069Y317948D01*
X958994Y318020D01*
X958976Y318028D01*
X958961Y318041D01*
X958865Y318080D01*
X958771Y318123D01*
X958751Y318125D01*
X958733Y318133D01*
X958566Y318151D01*
X955802Y318151D01*
X953867Y320086D01*
X953867Y340822D01*
X955802Y342757D01*
X958566Y342757D01*
X958586Y342760D01*
X958605Y342758D01*
X958707Y342780D01*
X958809Y342796D01*
X958826Y342806D01*
X958846Y342810D01*
X958935Y342863D01*
X959026Y342912D01*
X959040Y342926D01*
X959057Y342936D01*
X959124Y343015D01*
X959196Y343090D01*
X959204Y343108D01*
X959217Y343123D01*
X959256Y343219D01*
X959299Y343313D01*
X959301Y343333D01*
X959309Y343351D01*
X959327Y343518D01*
X959327Y356732D01*
X960217Y358880D01*
X991100Y389763D01*
X992161Y390203D01*
X992244Y390254D01*
X992330Y390300D01*
X992348Y390318D01*
X992370Y390332D01*
X992433Y390408D01*
X992500Y390478D01*
X992511Y390502D01*
X992527Y390522D01*
X992562Y390613D01*
X992603Y390701D01*
X992606Y390727D01*
X992615Y390751D01*
X992620Y390849D01*
X992630Y390945D01*
X992625Y390971D01*
X992626Y390997D01*
X992599Y391091D01*
X992578Y391186D01*
X992565Y391208D01*
X992557Y391233D01*
X992502Y391313D01*
X992452Y391397D01*
X992432Y391414D01*
X992417Y391435D01*
X992339Y391494D01*
X992265Y391557D01*
X992241Y391567D01*
X992220Y391582D01*
X992127Y391612D01*
X992037Y391649D01*
X992004Y391652D01*
X991986Y391658D01*
X991953Y391658D01*
X991870Y391667D01*
X983175Y391667D01*
X983085Y391653D01*
X982994Y391645D01*
X982965Y391633D01*
X982933Y391628D01*
X982852Y391585D01*
X982768Y391549D01*
X982736Y391523D01*
X982715Y391512D01*
X982693Y391489D01*
X982637Y391444D01*
X904066Y312873D01*
X904013Y312799D01*
X903953Y312729D01*
X903941Y312699D01*
X903922Y312673D01*
X903895Y312586D01*
X903861Y312501D01*
X903857Y312460D01*
X903850Y312438D01*
X903851Y312406D01*
X903843Y312335D01*
X903843Y304352D01*
X901908Y302417D01*
X881172Y302417D01*
X879237Y304352D01*
X879237Y323088D01*
X881172Y325023D01*
X899375Y325023D01*
X899465Y325037D01*
X899556Y325045D01*
X899585Y325057D01*
X899617Y325062D01*
X899698Y325105D01*
X899782Y325141D01*
X899814Y325167D01*
X899835Y325178D01*
X899857Y325201D01*
X899913Y325246D01*
X977130Y402463D01*
X979278Y403353D01*
X992557Y403353D01*
X992647Y403367D01*
X992738Y403375D01*
X992767Y403387D01*
X992799Y403392D01*
X992880Y403435D01*
X992964Y403471D01*
X992996Y403497D01*
X993017Y403508D01*
X993039Y403531D01*
X993095Y403576D01*
X993425Y403906D01*
X993494Y404002D01*
X993565Y404098D01*
X993566Y404102D01*
X993569Y404105D01*
X993603Y404218D01*
X993640Y404332D01*
X993640Y404337D01*
X993641Y404341D01*
X993638Y404459D01*
X993636Y404578D01*
X993635Y404582D01*
X993635Y404586D01*
X993594Y404697D01*
X993554Y404810D01*
X993552Y404814D01*
X993550Y404817D01*
X993476Y404910D01*
X993403Y405004D01*
X993399Y405007D01*
X993396Y405010D01*
X993385Y405017D01*
X993267Y405103D01*
X993140Y405177D01*
X992667Y405650D01*
X992332Y406229D01*
X992159Y406876D01*
X992159Y408711D01*
X999962Y408711D01*
X999981Y408714D01*
X1000001Y408712D01*
X1000103Y408734D01*
X1000205Y408750D01*
X1000222Y408760D01*
X1000242Y408764D01*
X1000331Y408817D01*
X1000422Y408866D01*
X1000436Y408880D01*
X1000453Y408890D01*
X1000520Y408969D01*
X1000591Y409044D01*
X1000600Y409062D01*
X1000613Y409077D01*
X1000651Y409173D01*
X1000695Y409267D01*
X1000697Y409287D01*
X1000704Y409305D01*
X1000717Y409229D01*
X1000726Y409212D01*
X1000730Y409192D01*
X1000783Y409103D01*
X1000832Y409012D01*
X1000846Y408998D01*
X1000856Y408981D01*
X1000935Y408914D01*
X1001010Y408842D01*
X1001028Y408834D01*
X1001043Y408821D01*
X1001140Y408782D01*
X1001233Y408739D01*
X1001253Y408737D01*
X1001271Y408729D01*
X1001438Y408711D01*
X1009241Y408711D01*
X1009241Y406876D01*
X1009068Y406229D01*
X1008733Y405650D01*
X1008260Y405177D01*
X1008133Y405103D01*
X1008040Y405028D01*
X1007948Y404954D01*
X1007946Y404950D01*
X1007942Y404948D01*
X1007879Y404847D01*
X1007815Y404747D01*
X1007814Y404743D01*
X1007812Y404739D01*
X1007784Y404624D01*
X1007755Y404508D01*
X1007755Y404504D01*
X1007754Y404500D01*
X1007765Y404381D01*
X1007774Y404263D01*
X1007775Y404259D01*
X1007776Y404255D01*
X1007824Y404146D01*
X1007870Y404037D01*
X1007873Y404033D01*
X1007875Y404030D01*
X1007884Y404020D01*
X1007975Y403906D01*
X1010003Y401878D01*
X1010003Y393142D01*
X1008559Y391698D01*
X1008547Y391682D01*
X1008532Y391670D01*
X1008476Y391582D01*
X1008416Y391499D01*
X1008410Y391480D01*
X1008399Y391463D01*
X1008374Y391362D01*
X1008343Y391263D01*
X1008344Y391244D01*
X1008339Y391224D01*
X1008347Y391121D01*
X1008350Y391018D01*
X1008356Y390999D01*
X1008358Y390979D01*
X1008398Y390884D01*
X1008434Y390787D01*
X1008446Y390771D01*
X1008454Y390753D01*
X1008559Y390622D01*
X1010003Y389178D01*
X1010003Y380442D01*
X1008559Y378998D01*
X1008547Y378982D01*
X1008532Y378970D01*
X1008476Y378882D01*
X1008416Y378799D01*
X1008410Y378780D01*
X1008399Y378763D01*
X1008374Y378662D01*
X1008343Y378563D01*
X1008344Y378544D01*
X1008339Y378524D01*
X1008347Y378421D01*
X1008350Y378318D01*
X1008356Y378299D01*
X1008358Y378279D01*
X1008398Y378184D01*
X1008434Y378087D01*
X1008446Y378071D01*
X1008454Y378053D01*
X1008559Y377922D01*
X1010003Y376478D01*
X1010003Y367742D01*
X1008068Y365807D01*
X1007304Y365807D01*
X1007284Y365804D01*
X1007265Y365806D01*
X1007163Y365784D01*
X1007061Y365768D01*
X1007044Y365758D01*
X1007024Y365754D01*
X1006935Y365701D01*
X1006844Y365652D01*
X1006830Y365638D01*
X1006813Y365628D01*
X1006746Y365549D01*
X1006674Y365474D01*
X1006666Y365456D01*
X1006653Y365441D01*
X1006614Y365345D01*
X1006571Y365251D01*
X1006569Y365231D01*
X1006561Y365213D01*
X1006543Y365046D01*
X1006543Y359518D01*
X1005653Y357370D01*
X999236Y350953D01*
X999183Y350879D01*
X999123Y350809D01*
X999111Y350779D01*
X999092Y350753D01*
X999065Y350666D01*
X999031Y350581D01*
X999027Y350540D01*
X999020Y350518D01*
X999021Y350486D01*
X999013Y350415D01*
X999013Y343518D01*
X999016Y343498D01*
X999014Y343479D01*
X999036Y343377D01*
X999052Y343275D01*
X999062Y343258D01*
X999066Y343238D01*
X999119Y343149D01*
X999168Y343058D01*
X999182Y343044D01*
X999192Y343027D01*
X999271Y342960D01*
X999346Y342888D01*
X999364Y342880D01*
X999379Y342867D01*
X999475Y342828D01*
X999569Y342785D01*
X999589Y342783D01*
X999607Y342775D01*
X999774Y342757D01*
X1002538Y342757D01*
X1004473Y340822D01*
X1004473Y320086D01*
X1002538Y318151D01*
X999774Y318151D01*
X999754Y318148D01*
X999735Y318150D01*
X999633Y318128D01*
X999531Y318112D01*
X999514Y318102D01*
X999494Y318098D01*
X999405Y318045D01*
X999314Y317996D01*
X999300Y317982D01*
X999283Y317972D01*
X999216Y317893D01*
X999144Y317818D01*
X999136Y317800D01*
X999123Y317785D01*
X999084Y317689D01*
X999041Y317595D01*
X999039Y317575D01*
X999031Y317557D01*
X999013Y317390D01*
X999013Y291605D01*
X999027Y291515D01*
X999035Y291424D01*
X999047Y291395D01*
X999052Y291363D01*
X999095Y291282D01*
X999131Y291198D01*
X999157Y291166D01*
X999168Y291145D01*
X999191Y291123D01*
X999236Y291067D01*
X1004077Y286226D01*
X1004151Y286173D01*
X1004221Y286113D01*
X1004251Y286101D01*
X1004277Y286082D01*
X1004364Y286055D01*
X1004449Y286021D01*
X1004490Y286017D01*
X1004512Y286010D01*
X1004544Y286011D01*
X1004615Y286003D01*
X1014708Y286003D01*
X1016643Y284068D01*
X1016643Y268332D01*
X1015549Y267238D01*
X1015537Y267222D01*
X1015522Y267210D01*
X1015466Y267122D01*
X1015406Y267039D01*
X1015400Y267020D01*
X1015389Y267003D01*
X1015364Y266902D01*
X1015333Y266803D01*
X1015334Y266784D01*
X1015329Y266764D01*
X1015337Y266661D01*
X1015340Y266558D01*
X1015346Y266539D01*
X1015348Y266519D01*
X1015388Y266424D01*
X1015424Y266327D01*
X1015436Y266311D01*
X1015444Y266293D01*
X1015549Y266162D01*
X1016643Y265068D01*
X1016643Y249332D01*
X1014708Y247397D01*
X1004615Y247397D01*
X1004525Y247383D01*
X1004434Y247375D01*
X1004405Y247363D01*
X1004373Y247358D01*
X1004292Y247315D01*
X1004208Y247279D01*
X1004176Y247253D01*
X1004155Y247242D01*
X1004133Y247219D01*
X1004077Y247174D01*
X997936Y241033D01*
X997883Y240959D01*
X997823Y240889D01*
X997811Y240859D01*
X997792Y240833D01*
X997765Y240746D01*
X997731Y240661D01*
X997727Y240620D01*
X997720Y240598D01*
X997721Y240566D01*
X997713Y240495D01*
X997713Y215651D01*
X997732Y215535D01*
X997749Y215419D01*
X997752Y215414D01*
X997752Y215408D01*
X997807Y215305D01*
X997861Y215200D01*
X997865Y215196D01*
X997868Y215191D01*
X997931Y215131D01*
X997950Y215107D01*
X1001130Y211927D01*
X1002793Y207913D01*
X1002793Y188327D01*
X1001130Y184313D01*
X998057Y181240D01*
X994043Y179577D01*
X989697Y179577D01*
X985683Y181240D01*
X982610Y184313D01*
X980947Y188327D01*
X980947Y207913D01*
X982610Y211927D01*
X985745Y215062D01*
X985757Y215069D01*
X985761Y215074D01*
X985766Y215077D01*
X985840Y215166D01*
X985917Y215256D01*
X985919Y215262D01*
X985923Y215266D01*
X985964Y215374D01*
X986009Y215484D01*
X986010Y215491D01*
X986011Y215496D01*
X986012Y215513D01*
X986027Y215651D01*
X986027Y244392D01*
X986917Y246540D01*
X988667Y248290D01*
X994814Y254437D01*
X994867Y254511D01*
X994927Y254581D01*
X994939Y254611D01*
X994958Y254637D01*
X994985Y254724D01*
X995019Y254809D01*
X995023Y254850D01*
X995030Y254872D01*
X995029Y254904D01*
X995037Y254975D01*
X995037Y265068D01*
X996131Y266162D01*
X996143Y266178D01*
X996158Y266190D01*
X996214Y266278D01*
X996274Y266361D01*
X996280Y266380D01*
X996291Y266397D01*
X996316Y266498D01*
X996347Y266597D01*
X996346Y266616D01*
X996351Y266636D01*
X996343Y266739D01*
X996340Y266842D01*
X996334Y266861D01*
X996332Y266881D01*
X996292Y266976D01*
X996256Y267073D01*
X996244Y267089D01*
X996236Y267107D01*
X996131Y267238D01*
X995037Y268332D01*
X995037Y278425D01*
X995023Y278515D01*
X995015Y278606D01*
X995003Y278635D01*
X994998Y278667D01*
X994955Y278748D01*
X994919Y278832D01*
X994893Y278864D01*
X994882Y278885D01*
X994859Y278907D01*
X994814Y278963D01*
X988217Y285560D01*
X987327Y287708D01*
X987327Y317390D01*
X987324Y317410D01*
X987326Y317429D01*
X987304Y317531D01*
X987288Y317633D01*
X987278Y317650D01*
X987274Y317670D01*
X987221Y317759D01*
X987172Y317850D01*
X987158Y317864D01*
X987148Y317881D01*
X987069Y317948D01*
X986994Y318020D01*
X986976Y318028D01*
X986961Y318041D01*
X986865Y318080D01*
X986771Y318123D01*
X986751Y318125D01*
X986733Y318133D01*
X986566Y318151D01*
X983802Y318151D01*
X981867Y320086D01*
X981867Y340822D01*
X983802Y342757D01*
X986566Y342757D01*
X986586Y342760D01*
X986605Y342758D01*
X986707Y342780D01*
X986809Y342796D01*
X986826Y342806D01*
X986846Y342810D01*
X986935Y342863D01*
X987026Y342912D01*
X987040Y342926D01*
X987057Y342936D01*
X987124Y343015D01*
X987196Y343090D01*
X987204Y343108D01*
X987217Y343123D01*
X987256Y343219D01*
X987299Y343313D01*
X987301Y343333D01*
X987309Y343351D01*
X987327Y343518D01*
X987327Y354312D01*
X988217Y356460D01*
X994634Y362877D01*
X994687Y362951D01*
X994747Y363021D01*
X994759Y363051D01*
X994778Y363077D01*
X994805Y363164D01*
X994839Y363249D01*
X994843Y363290D01*
X994850Y363312D01*
X994849Y363344D01*
X994857Y363415D01*
X994857Y365046D01*
X994854Y365066D01*
X994856Y365085D01*
X994834Y365187D01*
X994818Y365289D01*
X994808Y365306D01*
X994804Y365326D01*
X994751Y365415D01*
X994702Y365506D01*
X994688Y365520D01*
X994678Y365537D01*
X994599Y365604D01*
X994524Y365676D01*
X994506Y365684D01*
X994491Y365697D01*
X994395Y365736D01*
X994301Y365779D01*
X994281Y365781D01*
X994263Y365789D01*
X994096Y365807D01*
X993332Y365807D01*
X991397Y367742D01*
X991397Y371697D01*
X991386Y371767D01*
X991384Y371839D01*
X991366Y371888D01*
X991358Y371939D01*
X991324Y372003D01*
X991299Y372070D01*
X991267Y372111D01*
X991242Y372157D01*
X991190Y372206D01*
X991146Y372262D01*
X991102Y372290D01*
X991064Y372326D01*
X990999Y372356D01*
X990939Y372395D01*
X990888Y372408D01*
X990841Y372430D01*
X990770Y372438D01*
X990700Y372455D01*
X990648Y372451D01*
X990597Y372457D01*
X990526Y372442D01*
X990455Y372436D01*
X990407Y372416D01*
X990356Y372405D01*
X990295Y372368D01*
X990229Y372340D01*
X990173Y372295D01*
X990145Y372278D01*
X990130Y372261D01*
X990098Y372235D01*
X971236Y353373D01*
X971183Y353299D01*
X971123Y353229D01*
X971111Y353199D01*
X971092Y353173D01*
X971065Y353086D01*
X971031Y353001D01*
X971027Y352960D01*
X971020Y352938D01*
X971021Y352906D01*
X971013Y352835D01*
X971013Y343518D01*
X971016Y343498D01*
X971014Y343479D01*
X971036Y343377D01*
X971052Y343275D01*
X971062Y343258D01*
X971066Y343238D01*
X971119Y343149D01*
X971168Y343058D01*
X971182Y343044D01*
X971192Y343027D01*
X971271Y342960D01*
X971346Y342888D01*
X971364Y342880D01*
X971379Y342867D01*
X971475Y342828D01*
X971569Y342785D01*
X971589Y342783D01*
X971607Y342775D01*
X971774Y342757D01*
X974538Y342757D01*
X976473Y340822D01*
X976473Y320086D01*
X974538Y318151D01*
X971774Y318151D01*
X971754Y318148D01*
X971735Y318150D01*
X971633Y318128D01*
X971531Y318112D01*
X971514Y318102D01*
X971494Y318098D01*
X971405Y318045D01*
X971314Y317996D01*
X971300Y317982D01*
X971283Y317972D01*
X971216Y317893D01*
X971144Y317818D01*
X971136Y317800D01*
X971123Y317785D01*
X971084Y317689D01*
X971041Y317595D01*
X971039Y317575D01*
X971031Y317557D01*
X971013Y317390D01*
X971013Y287708D01*
X970123Y285560D01*
X963526Y278963D01*
X963473Y278889D01*
X963413Y278819D01*
X963401Y278789D01*
X963382Y278763D01*
X963355Y278676D01*
X963321Y278591D01*
X963317Y278550D01*
X963310Y278528D01*
X963311Y278496D01*
X963303Y278425D01*
X963303Y268332D01*
X962209Y267238D01*
X962197Y267222D01*
X962182Y267210D01*
X962126Y267122D01*
X962066Y267039D01*
X962060Y267020D01*
X962049Y267003D01*
X962024Y266902D01*
X961993Y266803D01*
X961994Y266784D01*
X961989Y266764D01*
X961997Y266661D01*
X962000Y266558D01*
X962006Y266539D01*
X962008Y266519D01*
X962048Y266424D01*
X962084Y266327D01*
X962096Y266311D01*
X962104Y266293D01*
X962209Y266162D01*
X963303Y265068D01*
X963303Y254975D01*
X963317Y254885D01*
X963325Y254794D01*
X963337Y254765D01*
X963342Y254733D01*
X963385Y254652D01*
X963421Y254568D01*
X963447Y254536D01*
X963458Y254515D01*
X963481Y254493D01*
X963526Y254437D01*
X971423Y246540D01*
X972313Y244392D01*
X972313Y215651D01*
X972332Y215535D01*
X972349Y215419D01*
X972352Y215414D01*
X972352Y215408D01*
X972407Y215305D01*
X972461Y215200D01*
X972465Y215196D01*
X972468Y215191D01*
X972531Y215131D01*
X972550Y215107D01*
X975730Y211927D01*
X977393Y207913D01*
X977393Y188327D01*
X975730Y184313D01*
X972657Y181240D01*
X968643Y179577D01*
X964297Y179577D01*
G37*
%LPD*%
%LPC*%
G36*
X878190Y157987D02*
X878190Y157987D01*
X874642Y159457D01*
X871927Y162172D01*
X870457Y165720D01*
X870457Y169560D01*
X871927Y173108D01*
X874642Y175823D01*
X878190Y177293D01*
X1096536Y177293D01*
X1096626Y177307D01*
X1096717Y177315D01*
X1096747Y177327D01*
X1096779Y177332D01*
X1096860Y177375D01*
X1096944Y177411D01*
X1096976Y177437D01*
X1096997Y177448D01*
X1097019Y177471D01*
X1097075Y177516D01*
X1106884Y187325D01*
X1106937Y187399D01*
X1106997Y187469D01*
X1107009Y187499D01*
X1107028Y187525D01*
X1107055Y187612D01*
X1107089Y187697D01*
X1107093Y187738D01*
X1107100Y187760D01*
X1107099Y187792D01*
X1107107Y187864D01*
X1107107Y199568D01*
X1109042Y201503D01*
X1133778Y201503D01*
X1135713Y199568D01*
X1135713Y198614D01*
X1135716Y198594D01*
X1135714Y198575D01*
X1135736Y198473D01*
X1135752Y198371D01*
X1135762Y198354D01*
X1135766Y198334D01*
X1135819Y198245D01*
X1135868Y198154D01*
X1135882Y198140D01*
X1135892Y198123D01*
X1135971Y198056D01*
X1136046Y197984D01*
X1136064Y197976D01*
X1136079Y197963D01*
X1136175Y197924D01*
X1136269Y197881D01*
X1136289Y197879D01*
X1136307Y197871D01*
X1136474Y197853D01*
X1173409Y197853D01*
X1173499Y197867D01*
X1173590Y197875D01*
X1173620Y197887D01*
X1173652Y197892D01*
X1173732Y197935D01*
X1173816Y197971D01*
X1173848Y197997D01*
X1173869Y198008D01*
X1173891Y198031D01*
X1173947Y198076D01*
X1174246Y198375D01*
X1182874Y198375D01*
X1188975Y192274D01*
X1188975Y183646D01*
X1182874Y177545D01*
X1174246Y177545D01*
X1173467Y178324D01*
X1173393Y178377D01*
X1173324Y178437D01*
X1173294Y178449D01*
X1173267Y178468D01*
X1173180Y178495D01*
X1173096Y178529D01*
X1173055Y178533D01*
X1173032Y178540D01*
X1173000Y178539D01*
X1172929Y178547D01*
X1136474Y178547D01*
X1136454Y178544D01*
X1136435Y178546D01*
X1136333Y178524D01*
X1136231Y178508D01*
X1136214Y178498D01*
X1136194Y178494D01*
X1136105Y178441D01*
X1136014Y178392D01*
X1136000Y178378D01*
X1135983Y178368D01*
X1135916Y178289D01*
X1135844Y178214D01*
X1135836Y178196D01*
X1135823Y178181D01*
X1135784Y178085D01*
X1135741Y177991D01*
X1135739Y177971D01*
X1135731Y177953D01*
X1135713Y177786D01*
X1135713Y176832D01*
X1133778Y174897D01*
X1122074Y174897D01*
X1121984Y174883D01*
X1121893Y174875D01*
X1121863Y174863D01*
X1121831Y174858D01*
X1121750Y174815D01*
X1121666Y174779D01*
X1121634Y174753D01*
X1121613Y174742D01*
X1121591Y174719D01*
X1121535Y174674D01*
X1106318Y159457D01*
X1102770Y157987D01*
X878190Y157987D01*
G37*
%LPD*%
%LPC*%
G36*
X1174246Y380745D02*
X1174246Y380745D01*
X1168145Y386846D01*
X1168145Y390906D01*
X1168142Y390926D01*
X1168144Y390945D01*
X1168122Y391047D01*
X1168106Y391149D01*
X1168096Y391166D01*
X1168092Y391186D01*
X1168039Y391275D01*
X1167990Y391366D01*
X1167976Y391380D01*
X1167966Y391397D01*
X1167887Y391464D01*
X1167812Y391536D01*
X1167794Y391544D01*
X1167779Y391557D01*
X1167683Y391596D01*
X1167589Y391639D01*
X1167569Y391641D01*
X1167551Y391649D01*
X1167384Y391667D01*
X1064843Y391667D01*
X1064753Y391653D01*
X1064662Y391645D01*
X1064633Y391633D01*
X1064601Y391628D01*
X1064520Y391585D01*
X1064436Y391549D01*
X1064404Y391523D01*
X1064383Y391512D01*
X1064361Y391489D01*
X1064305Y391444D01*
X1063975Y391114D01*
X1063906Y391018D01*
X1063835Y390922D01*
X1063834Y390918D01*
X1063831Y390915D01*
X1063796Y390801D01*
X1063760Y390688D01*
X1063760Y390683D01*
X1063759Y390679D01*
X1063762Y390561D01*
X1063764Y390442D01*
X1063765Y390438D01*
X1063765Y390434D01*
X1063806Y390323D01*
X1063846Y390210D01*
X1063848Y390206D01*
X1063850Y390203D01*
X1063924Y390110D01*
X1063997Y390016D01*
X1064001Y390013D01*
X1064004Y390010D01*
X1064015Y390003D01*
X1064133Y389917D01*
X1064260Y389843D01*
X1064733Y389370D01*
X1065068Y388791D01*
X1065241Y388144D01*
X1065241Y386309D01*
X1057438Y386309D01*
X1057419Y386306D01*
X1057399Y386308D01*
X1057297Y386286D01*
X1057195Y386270D01*
X1057178Y386260D01*
X1057158Y386256D01*
X1057069Y386203D01*
X1056978Y386154D01*
X1056964Y386140D01*
X1056947Y386130D01*
X1056880Y386051D01*
X1056809Y385976D01*
X1056800Y385958D01*
X1056787Y385943D01*
X1056749Y385847D01*
X1056705Y385753D01*
X1056703Y385733D01*
X1056696Y385715D01*
X1056683Y385791D01*
X1056674Y385808D01*
X1056670Y385828D01*
X1056617Y385917D01*
X1056568Y386008D01*
X1056554Y386022D01*
X1056544Y386039D01*
X1056465Y386106D01*
X1056390Y386178D01*
X1056372Y386186D01*
X1056357Y386199D01*
X1056260Y386238D01*
X1056167Y386281D01*
X1056147Y386283D01*
X1056129Y386291D01*
X1055962Y386309D01*
X1048159Y386309D01*
X1048159Y388144D01*
X1048332Y388791D01*
X1048667Y389370D01*
X1049140Y389843D01*
X1049267Y389917D01*
X1049360Y389992D01*
X1049452Y390066D01*
X1049454Y390070D01*
X1049458Y390072D01*
X1049521Y390173D01*
X1049585Y390273D01*
X1049586Y390277D01*
X1049588Y390281D01*
X1049616Y390394D01*
X1049645Y390512D01*
X1049645Y390516D01*
X1049646Y390520D01*
X1049635Y390639D01*
X1049626Y390757D01*
X1049625Y390761D01*
X1049624Y390765D01*
X1049576Y390874D01*
X1049530Y390983D01*
X1049527Y390987D01*
X1049525Y390990D01*
X1049516Y391000D01*
X1049425Y391114D01*
X1047397Y393142D01*
X1047397Y401878D01*
X1048841Y403322D01*
X1048853Y403338D01*
X1048868Y403350D01*
X1048924Y403438D01*
X1048984Y403521D01*
X1048990Y403540D01*
X1049001Y403557D01*
X1049026Y403658D01*
X1049057Y403757D01*
X1049056Y403776D01*
X1049061Y403796D01*
X1049053Y403899D01*
X1049050Y404002D01*
X1049044Y404021D01*
X1049042Y404041D01*
X1049002Y404136D01*
X1048966Y404233D01*
X1048954Y404249D01*
X1048946Y404267D01*
X1048841Y404398D01*
X1047397Y405842D01*
X1047397Y414578D01*
X1048841Y416022D01*
X1048853Y416038D01*
X1048868Y416050D01*
X1048924Y416138D01*
X1048984Y416221D01*
X1048990Y416240D01*
X1049001Y416257D01*
X1049026Y416358D01*
X1049057Y416457D01*
X1049056Y416476D01*
X1049061Y416496D01*
X1049053Y416599D01*
X1049050Y416702D01*
X1049044Y416721D01*
X1049042Y416741D01*
X1049002Y416836D01*
X1048966Y416933D01*
X1048954Y416949D01*
X1048946Y416967D01*
X1048841Y417098D01*
X1047397Y418542D01*
X1047397Y427278D01*
X1049425Y429306D01*
X1049494Y429401D01*
X1049565Y429498D01*
X1049566Y429502D01*
X1049569Y429506D01*
X1049603Y429618D01*
X1049640Y429732D01*
X1049640Y429737D01*
X1049641Y429741D01*
X1049638Y429859D01*
X1049636Y429978D01*
X1049635Y429982D01*
X1049635Y429986D01*
X1049594Y430098D01*
X1049554Y430210D01*
X1049552Y430214D01*
X1049550Y430218D01*
X1049475Y430311D01*
X1049454Y430338D01*
X1049449Y430346D01*
X1049445Y430350D01*
X1049403Y430404D01*
X1049399Y430407D01*
X1049396Y430410D01*
X1049385Y430417D01*
X1049267Y430503D01*
X1049140Y430577D01*
X1048667Y431050D01*
X1048332Y431629D01*
X1048159Y432276D01*
X1048159Y434111D01*
X1055962Y434111D01*
X1055981Y434114D01*
X1056001Y434112D01*
X1056103Y434134D01*
X1056205Y434150D01*
X1056222Y434160D01*
X1056242Y434164D01*
X1056331Y434217D01*
X1056422Y434266D01*
X1056436Y434280D01*
X1056453Y434290D01*
X1056520Y434369D01*
X1056591Y434444D01*
X1056600Y434462D01*
X1056613Y434477D01*
X1056651Y434573D01*
X1056695Y434667D01*
X1056697Y434687D01*
X1056704Y434705D01*
X1056717Y434629D01*
X1056726Y434612D01*
X1056730Y434592D01*
X1056783Y434503D01*
X1056832Y434412D01*
X1056846Y434398D01*
X1056856Y434381D01*
X1056935Y434314D01*
X1057010Y434242D01*
X1057028Y434234D01*
X1057043Y434221D01*
X1057140Y434182D01*
X1057233Y434139D01*
X1057253Y434137D01*
X1057271Y434129D01*
X1057438Y434111D01*
X1065241Y434111D01*
X1065241Y432276D01*
X1065068Y431629D01*
X1064733Y431050D01*
X1064260Y430577D01*
X1064133Y430503D01*
X1064099Y430476D01*
X1064072Y430462D01*
X1064040Y430428D01*
X1063948Y430354D01*
X1063946Y430350D01*
X1063942Y430348D01*
X1063879Y430247D01*
X1063815Y430147D01*
X1063814Y430143D01*
X1063812Y430139D01*
X1063784Y430024D01*
X1063755Y429908D01*
X1063755Y429904D01*
X1063754Y429900D01*
X1063765Y429781D01*
X1063774Y429663D01*
X1063775Y429659D01*
X1063776Y429655D01*
X1063824Y429546D01*
X1063870Y429437D01*
X1063873Y429433D01*
X1063875Y429430D01*
X1063884Y429420D01*
X1063975Y429306D01*
X1066003Y427278D01*
X1066003Y418542D01*
X1064813Y417352D01*
X1064771Y417294D01*
X1064722Y417242D01*
X1064700Y417195D01*
X1064669Y417153D01*
X1064648Y417084D01*
X1064618Y417019D01*
X1064612Y416967D01*
X1064597Y416917D01*
X1064599Y416846D01*
X1064591Y416775D01*
X1064602Y416724D01*
X1064603Y416672D01*
X1064628Y416604D01*
X1064643Y416534D01*
X1064670Y416489D01*
X1064688Y416441D01*
X1064733Y416385D01*
X1064770Y416323D01*
X1064809Y416289D01*
X1064842Y416249D01*
X1064902Y416210D01*
X1064956Y416163D01*
X1065005Y416144D01*
X1065049Y416116D01*
X1065118Y416098D01*
X1065185Y416071D01*
X1065256Y416063D01*
X1065287Y416055D01*
X1065310Y416057D01*
X1065351Y416053D01*
X1167384Y416053D01*
X1167404Y416056D01*
X1167423Y416054D01*
X1167525Y416076D01*
X1167627Y416092D01*
X1167644Y416102D01*
X1167664Y416106D01*
X1167753Y416159D01*
X1167844Y416208D01*
X1167858Y416222D01*
X1167875Y416232D01*
X1167942Y416311D01*
X1168014Y416386D01*
X1168022Y416404D01*
X1168035Y416419D01*
X1168074Y416515D01*
X1168117Y416609D01*
X1168119Y416629D01*
X1168127Y416647D01*
X1168145Y416814D01*
X1168145Y420874D01*
X1174246Y426975D01*
X1182874Y426975D01*
X1188975Y420874D01*
X1188975Y412246D01*
X1182874Y406145D01*
X1176723Y406145D01*
X1176633Y406131D01*
X1176542Y406123D01*
X1176513Y406111D01*
X1176481Y406106D01*
X1176400Y406063D01*
X1176316Y406027D01*
X1176284Y406001D01*
X1176263Y405990D01*
X1176241Y405967D01*
X1176185Y405922D01*
X1175520Y405257D01*
X1173845Y404563D01*
X1173784Y404525D01*
X1173719Y404496D01*
X1173681Y404461D01*
X1173636Y404434D01*
X1173591Y404378D01*
X1173538Y404330D01*
X1173513Y404284D01*
X1173480Y404244D01*
X1173454Y404177D01*
X1173419Y404114D01*
X1173410Y404063D01*
X1173391Y404015D01*
X1173388Y403943D01*
X1173376Y403872D01*
X1173383Y403821D01*
X1173381Y403769D01*
X1173401Y403700D01*
X1173411Y403629D01*
X1173435Y403583D01*
X1173450Y403533D01*
X1173490Y403474D01*
X1173523Y403410D01*
X1173560Y403373D01*
X1173590Y403331D01*
X1173647Y403288D01*
X1173698Y403238D01*
X1173761Y403203D01*
X1173787Y403184D01*
X1173809Y403177D01*
X1173845Y403157D01*
X1175520Y402463D01*
X1176185Y401798D01*
X1176259Y401745D01*
X1176329Y401685D01*
X1176359Y401673D01*
X1176385Y401654D01*
X1176472Y401627D01*
X1176557Y401593D01*
X1176598Y401589D01*
X1176620Y401582D01*
X1176652Y401583D01*
X1176723Y401575D01*
X1182874Y401575D01*
X1188975Y395474D01*
X1188975Y386846D01*
X1182874Y380745D01*
X1174246Y380745D01*
G37*
%LPD*%
%LPC*%
G36*
X66311Y448847D02*
X66311Y448847D01*
X60418Y451288D01*
X55908Y455798D01*
X53467Y461691D01*
X53467Y468069D01*
X55908Y473962D01*
X60418Y478472D01*
X66311Y480913D01*
X72689Y480913D01*
X78582Y478472D01*
X83092Y473962D01*
X85533Y468069D01*
X85533Y461691D01*
X83092Y455798D01*
X78582Y451288D01*
X72689Y448847D01*
X66311Y448847D01*
G37*
%LPD*%
%LPC*%
G36*
X22211Y517367D02*
X22211Y517367D01*
X16318Y519808D01*
X11808Y524318D01*
X9367Y530211D01*
X9367Y536589D01*
X11808Y542482D01*
X16318Y546992D01*
X22211Y549433D01*
X28589Y549433D01*
X34482Y546992D01*
X38992Y542482D01*
X41433Y536589D01*
X41433Y530211D01*
X38992Y524318D01*
X34482Y519808D01*
X28589Y517367D01*
X22211Y517367D01*
G37*
%LPD*%
%LPC*%
G36*
X1470011Y517367D02*
X1470011Y517367D01*
X1464118Y519808D01*
X1459608Y524318D01*
X1457167Y530211D01*
X1457167Y536589D01*
X1459608Y542482D01*
X1464118Y546992D01*
X1470011Y549433D01*
X1476389Y549433D01*
X1482282Y546992D01*
X1486792Y542482D01*
X1489233Y536589D01*
X1489233Y530211D01*
X1486792Y524318D01*
X1482282Y519808D01*
X1476389Y517367D01*
X1470011Y517367D01*
G37*
%LPD*%
%LPC*%
G36*
X66311Y138847D02*
X66311Y138847D01*
X60418Y141288D01*
X55908Y145798D01*
X53467Y151691D01*
X53467Y158069D01*
X55908Y163962D01*
X60418Y168472D01*
X66311Y170913D01*
X72689Y170913D01*
X78582Y168472D01*
X83092Y163962D01*
X85533Y158069D01*
X85533Y151691D01*
X83092Y145798D01*
X78582Y141288D01*
X72689Y138847D01*
X66311Y138847D01*
G37*
%LPD*%
%LPC*%
G36*
X1470011Y9367D02*
X1470011Y9367D01*
X1464118Y11808D01*
X1459608Y16318D01*
X1457167Y22211D01*
X1457167Y28589D01*
X1459608Y34482D01*
X1464118Y38992D01*
X1470011Y41433D01*
X1476389Y41433D01*
X1482282Y38992D01*
X1486792Y34482D01*
X1489233Y28589D01*
X1489233Y22211D01*
X1486792Y16318D01*
X1482282Y11808D01*
X1476389Y9367D01*
X1470011Y9367D01*
G37*
%LPD*%
%LPC*%
G36*
X22211Y9367D02*
X22211Y9367D01*
X16318Y11808D01*
X11808Y16318D01*
X9367Y22211D01*
X9367Y28589D01*
X11808Y34482D01*
X16318Y38992D01*
X22211Y41433D01*
X28589Y41433D01*
X34482Y38992D01*
X38992Y34482D01*
X41433Y28589D01*
X41433Y22211D01*
X38992Y16318D01*
X34482Y11808D01*
X28589Y9367D01*
X22211Y9367D01*
G37*
%LPD*%
%LPC*%
G36*
X816311Y138847D02*
X816311Y138847D01*
X810418Y141288D01*
X805908Y145798D01*
X803467Y151691D01*
X803467Y158069D01*
X805908Y163962D01*
X810418Y168472D01*
X816311Y170913D01*
X822689Y170913D01*
X828582Y168472D01*
X833092Y163962D01*
X835533Y158069D01*
X835533Y151691D01*
X833092Y145798D01*
X828582Y141288D01*
X822689Y138847D01*
X816311Y138847D01*
G37*
%LPD*%
%LPC*%
G36*
X1428246Y380745D02*
X1428246Y380745D01*
X1422145Y386846D01*
X1422145Y395474D01*
X1428246Y401575D01*
X1436874Y401575D01*
X1442975Y395474D01*
X1442975Y386846D01*
X1436874Y380745D01*
X1428246Y380745D01*
G37*
%LPD*%
%LPC*%
G36*
X1428246Y507745D02*
X1428246Y507745D01*
X1422145Y513846D01*
X1422145Y522474D01*
X1428246Y528575D01*
X1436874Y528575D01*
X1442975Y522474D01*
X1442975Y513846D01*
X1436874Y507745D01*
X1428246Y507745D01*
G37*
%LPD*%
%LPC*%
G36*
X1174246Y507745D02*
X1174246Y507745D01*
X1168145Y513846D01*
X1168145Y522474D01*
X1174246Y528575D01*
X1182874Y528575D01*
X1188975Y522474D01*
X1188975Y513846D01*
X1182874Y507745D01*
X1174246Y507745D01*
G37*
%LPD*%
%LPC*%
G36*
X1428246Y355345D02*
X1428246Y355345D01*
X1422145Y361446D01*
X1422145Y370074D01*
X1428246Y376175D01*
X1436874Y376175D01*
X1442975Y370074D01*
X1442975Y361446D01*
X1436874Y355345D01*
X1428246Y355345D01*
G37*
%LPD*%
%LPC*%
G36*
X1174246Y355345D02*
X1174246Y355345D01*
X1168145Y361446D01*
X1168145Y370074D01*
X1174246Y376175D01*
X1182874Y376175D01*
X1188975Y370074D01*
X1188975Y361446D01*
X1182874Y355345D01*
X1174246Y355345D01*
G37*
%LPD*%
%LPC*%
G36*
X1428246Y456945D02*
X1428246Y456945D01*
X1422145Y463046D01*
X1422145Y471674D01*
X1428246Y477775D01*
X1436874Y477775D01*
X1442975Y471674D01*
X1442975Y463046D01*
X1436874Y456945D01*
X1428246Y456945D01*
G37*
%LPD*%
%LPC*%
G36*
X1428246Y482345D02*
X1428246Y482345D01*
X1422145Y488446D01*
X1422145Y497074D01*
X1428246Y503175D01*
X1436874Y503175D01*
X1442975Y497074D01*
X1442975Y488446D01*
X1436874Y482345D01*
X1428246Y482345D01*
G37*
%LPD*%
%LPC*%
G36*
X1174246Y482345D02*
X1174246Y482345D01*
X1168145Y488446D01*
X1168145Y497074D01*
X1174246Y503175D01*
X1182874Y503175D01*
X1188975Y497074D01*
X1188975Y488446D01*
X1182874Y482345D01*
X1174246Y482345D01*
G37*
%LPD*%
%LPC*%
G36*
X1428246Y228345D02*
X1428246Y228345D01*
X1422145Y234446D01*
X1422145Y243074D01*
X1428246Y249175D01*
X1436874Y249175D01*
X1442975Y243074D01*
X1442975Y234446D01*
X1436874Y228345D01*
X1428246Y228345D01*
G37*
%LPD*%
%LPC*%
G36*
X1174246Y456945D02*
X1174246Y456945D01*
X1168145Y463046D01*
X1168145Y471674D01*
X1174246Y477775D01*
X1182874Y477775D01*
X1188975Y471674D01*
X1188975Y463046D01*
X1182874Y456945D01*
X1174246Y456945D01*
G37*
%LPD*%
%LPC*%
G36*
X1174246Y228345D02*
X1174246Y228345D01*
X1168145Y234446D01*
X1168145Y243074D01*
X1174246Y249175D01*
X1182874Y249175D01*
X1188975Y243074D01*
X1188975Y234446D01*
X1182874Y228345D01*
X1174246Y228345D01*
G37*
%LPD*%
%LPC*%
G36*
X1174246Y253745D02*
X1174246Y253745D01*
X1168145Y259846D01*
X1168145Y268474D01*
X1174246Y274575D01*
X1182874Y274575D01*
X1188975Y268474D01*
X1188975Y259846D01*
X1182874Y253745D01*
X1174246Y253745D01*
G37*
%LPD*%
%LPC*%
G36*
X1174246Y431545D02*
X1174246Y431545D01*
X1168145Y437646D01*
X1168145Y446274D01*
X1174246Y452375D01*
X1182874Y452375D01*
X1188975Y446274D01*
X1188975Y437646D01*
X1182874Y431545D01*
X1174246Y431545D01*
G37*
%LPD*%
%LPC*%
G36*
X1428246Y431545D02*
X1428246Y431545D01*
X1422145Y437646D01*
X1422145Y446274D01*
X1428246Y452375D01*
X1436874Y452375D01*
X1442975Y446274D01*
X1442975Y437646D01*
X1436874Y431545D01*
X1428246Y431545D01*
G37*
%LPD*%
%LPC*%
G36*
X1174246Y329945D02*
X1174246Y329945D01*
X1168145Y336046D01*
X1168145Y344674D01*
X1174246Y350775D01*
X1182874Y350775D01*
X1188975Y344674D01*
X1188975Y336046D01*
X1182874Y329945D01*
X1174246Y329945D01*
G37*
%LPD*%
%LPC*%
G36*
X1428246Y304545D02*
X1428246Y304545D01*
X1422145Y310646D01*
X1422145Y319274D01*
X1428246Y325375D01*
X1436874Y325375D01*
X1442975Y319274D01*
X1442975Y310646D01*
X1436874Y304545D01*
X1428246Y304545D01*
G37*
%LPD*%
%LPC*%
G36*
X1174246Y304545D02*
X1174246Y304545D01*
X1168145Y310646D01*
X1168145Y319274D01*
X1174246Y325375D01*
X1182874Y325375D01*
X1188975Y319274D01*
X1188975Y310646D01*
X1182874Y304545D01*
X1174246Y304545D01*
G37*
%LPD*%
%LPC*%
G36*
X1428246Y279145D02*
X1428246Y279145D01*
X1422145Y285246D01*
X1422145Y293874D01*
X1428246Y299975D01*
X1436874Y299975D01*
X1442975Y293874D01*
X1442975Y285246D01*
X1436874Y279145D01*
X1428246Y279145D01*
G37*
%LPD*%
%LPC*%
G36*
X1428246Y329945D02*
X1428246Y329945D01*
X1422145Y336046D01*
X1422145Y344674D01*
X1428246Y350775D01*
X1436874Y350775D01*
X1442975Y344674D01*
X1442975Y336046D01*
X1436874Y329945D01*
X1428246Y329945D01*
G37*
%LPD*%
%LPC*%
G36*
X1428246Y253745D02*
X1428246Y253745D01*
X1422145Y259846D01*
X1422145Y268474D01*
X1428246Y274575D01*
X1436874Y274575D01*
X1442975Y268474D01*
X1442975Y259846D01*
X1436874Y253745D01*
X1428246Y253745D01*
G37*
%LPD*%
%LPC*%
G36*
X1428246Y533145D02*
X1428246Y533145D01*
X1422145Y539246D01*
X1422145Y547874D01*
X1428246Y553975D01*
X1436874Y553975D01*
X1442975Y547874D01*
X1442975Y539246D01*
X1436874Y533145D01*
X1428246Y533145D01*
G37*
%LPD*%
%LPC*%
G36*
X1174246Y533145D02*
X1174246Y533145D01*
X1168145Y539246D01*
X1168145Y547874D01*
X1174246Y553975D01*
X1182874Y553975D01*
X1188975Y547874D01*
X1188975Y539246D01*
X1182874Y533145D01*
X1174246Y533145D01*
G37*
%LPD*%
%LPC*%
G36*
X1174246Y279145D02*
X1174246Y279145D01*
X1168145Y285246D01*
X1168145Y293874D01*
X1174246Y299975D01*
X1182874Y299975D01*
X1188975Y293874D01*
X1188975Y285246D01*
X1182874Y279145D01*
X1174246Y279145D01*
G37*
%LPD*%
%LPC*%
G36*
X1122933Y219723D02*
X1122933Y219723D01*
X1122933Y230741D01*
X1132744Y230741D01*
X1133391Y230568D01*
X1133970Y230233D01*
X1134443Y229760D01*
X1134778Y229181D01*
X1134951Y228534D01*
X1134951Y219723D01*
X1122933Y219723D01*
G37*
%LPD*%
%LPC*%
G36*
X1107869Y219723D02*
X1107869Y219723D01*
X1107869Y228534D01*
X1108042Y229181D01*
X1108377Y229760D01*
X1108850Y230233D01*
X1109429Y230568D01*
X1110076Y230741D01*
X1119887Y230741D01*
X1119887Y219723D01*
X1107869Y219723D01*
G37*
%LPD*%
%LPC*%
G36*
X1122933Y205659D02*
X1122933Y205659D01*
X1122933Y216677D01*
X1134951Y216677D01*
X1134951Y207866D01*
X1134778Y207219D01*
X1134443Y206640D01*
X1133970Y206167D01*
X1133391Y205832D01*
X1132744Y205659D01*
X1122933Y205659D01*
G37*
%LPD*%
%LPC*%
G36*
X1110076Y205659D02*
X1110076Y205659D01*
X1109429Y205832D01*
X1108850Y206167D01*
X1108377Y206640D01*
X1108042Y207219D01*
X1107869Y207866D01*
X1107869Y216677D01*
X1119887Y216677D01*
X1119887Y205659D01*
X1110076Y205659D01*
G37*
%LPD*%
%LPC*%
G36*
X942593Y199643D02*
X942593Y199643D01*
X942593Y215786D01*
X943449Y215651D01*
X944970Y215156D01*
X946395Y214430D01*
X947689Y213490D01*
X948820Y212359D01*
X949760Y211065D01*
X950486Y209640D01*
X950981Y208119D01*
X951231Y206540D01*
X951231Y199643D01*
X942593Y199643D01*
G37*
%LPD*%
%LPC*%
G36*
X985773Y70103D02*
X985773Y70103D01*
X985773Y86246D01*
X986629Y86111D01*
X988150Y85616D01*
X989575Y84890D01*
X990869Y83950D01*
X992000Y82819D01*
X992940Y81525D01*
X993666Y80100D01*
X994161Y78579D01*
X994411Y77000D01*
X994411Y70103D01*
X985773Y70103D01*
G37*
%LPD*%
%LPC*%
G36*
X760475Y87629D02*
X760475Y87629D01*
X760475Y96267D01*
X767372Y96267D01*
X768951Y96017D01*
X770472Y95522D01*
X771897Y94796D01*
X773191Y93856D01*
X774322Y92725D01*
X775262Y91431D01*
X775988Y90006D01*
X776483Y88485D01*
X776618Y87629D01*
X760475Y87629D01*
G37*
%LPD*%
%LPC*%
G36*
X182625Y87629D02*
X182625Y87629D01*
X182625Y96267D01*
X189522Y96267D01*
X191101Y96017D01*
X192622Y95522D01*
X194047Y94796D01*
X195341Y93856D01*
X196472Y92725D01*
X197412Y91431D01*
X198138Y90006D01*
X198633Y88485D01*
X198768Y87629D01*
X182625Y87629D01*
G37*
%LPD*%
%LPC*%
G36*
X478535Y87629D02*
X478535Y87629D01*
X478535Y96267D01*
X485432Y96267D01*
X487011Y96017D01*
X488532Y95522D01*
X489957Y94796D01*
X491251Y93856D01*
X492382Y92725D01*
X493322Y91431D01*
X494048Y90006D01*
X494543Y88485D01*
X494678Y87629D01*
X478535Y87629D01*
G37*
%LPD*%
%LPC*%
G36*
X394322Y87629D02*
X394322Y87629D01*
X394457Y88485D01*
X394952Y90006D01*
X395678Y91431D01*
X396618Y92725D01*
X397749Y93856D01*
X399043Y94796D01*
X400468Y95522D01*
X401989Y96017D01*
X403568Y96267D01*
X410465Y96267D01*
X410465Y87629D01*
X394322Y87629D01*
G37*
%LPD*%
%LPC*%
G36*
X459346Y87629D02*
X459346Y87629D01*
X459481Y88485D01*
X459976Y90006D01*
X460702Y91431D01*
X461642Y92725D01*
X462773Y93856D01*
X464067Y94796D01*
X465492Y95522D01*
X467013Y96017D01*
X468592Y96267D01*
X475489Y96267D01*
X475489Y87629D01*
X459346Y87629D01*
G37*
%LPD*%
%LPC*%
G36*
X741286Y87629D02*
X741286Y87629D01*
X741421Y88485D01*
X741916Y90006D01*
X742642Y91431D01*
X743582Y92725D01*
X744713Y93856D01*
X746007Y94796D01*
X747432Y95522D01*
X748953Y96017D01*
X750532Y96267D01*
X757429Y96267D01*
X757429Y87629D01*
X741286Y87629D01*
G37*
%LPD*%
%LPC*%
G36*
X676262Y87629D02*
X676262Y87629D01*
X676397Y88485D01*
X676892Y90006D01*
X677618Y91431D01*
X678558Y92725D01*
X679689Y93856D01*
X680983Y94796D01*
X682408Y95522D01*
X683929Y96017D01*
X685508Y96267D01*
X692405Y96267D01*
X692405Y87629D01*
X676262Y87629D01*
G37*
%LPD*%
%LPC*%
G36*
X98412Y87629D02*
X98412Y87629D01*
X98547Y88485D01*
X99042Y90006D01*
X99768Y91431D01*
X100708Y92725D01*
X101839Y93856D01*
X103133Y94796D01*
X104558Y95522D01*
X106079Y96017D01*
X107658Y96267D01*
X114555Y96267D01*
X114555Y87629D01*
X98412Y87629D01*
G37*
%LPD*%
%LPC*%
G36*
X163436Y87629D02*
X163436Y87629D01*
X163571Y88485D01*
X164066Y90006D01*
X164792Y91431D01*
X165732Y92725D01*
X166863Y93856D01*
X168157Y94796D01*
X169582Y95522D01*
X171103Y96017D01*
X172682Y96267D01*
X179579Y96267D01*
X179579Y87629D01*
X163436Y87629D01*
G37*
%LPD*%
%LPC*%
G36*
X985773Y67057D02*
X985773Y67057D01*
X994411Y67057D01*
X994411Y60160D01*
X994161Y58581D01*
X993666Y57060D01*
X992940Y55635D01*
X992000Y54341D01*
X990869Y53210D01*
X989575Y52270D01*
X988150Y51544D01*
X986629Y51049D01*
X985773Y50914D01*
X985773Y67057D01*
G37*
%LPD*%
%LPC*%
G36*
X942593Y196597D02*
X942593Y196597D01*
X951231Y196597D01*
X951231Y189700D01*
X950981Y188121D01*
X950486Y186600D01*
X949760Y185175D01*
X948820Y183881D01*
X947689Y182750D01*
X946395Y181810D01*
X944970Y181084D01*
X943449Y180589D01*
X942593Y180454D01*
X942593Y196597D01*
G37*
%LPD*%
%LPC*%
G36*
X760475Y75945D02*
X760475Y75945D01*
X760475Y84583D01*
X776618Y84583D01*
X776483Y83727D01*
X775988Y82206D01*
X775262Y80781D01*
X774322Y79487D01*
X773191Y78356D01*
X771897Y77416D01*
X770472Y76690D01*
X768951Y76195D01*
X767372Y75945D01*
X760475Y75945D01*
G37*
%LPD*%
%LPC*%
G36*
X478535Y75945D02*
X478535Y75945D01*
X478535Y84583D01*
X494678Y84583D01*
X494543Y83727D01*
X494048Y82206D01*
X493322Y80781D01*
X492382Y79487D01*
X491251Y78356D01*
X489957Y77416D01*
X488532Y76690D01*
X487011Y76195D01*
X485432Y75945D01*
X478535Y75945D01*
G37*
%LPD*%
%LPC*%
G36*
X182625Y75945D02*
X182625Y75945D01*
X182625Y84583D01*
X198768Y84583D01*
X198633Y83727D01*
X198138Y82206D01*
X197412Y80781D01*
X196472Y79487D01*
X195341Y78356D01*
X194047Y77416D01*
X192622Y76690D01*
X191101Y76195D01*
X189522Y75945D01*
X182625Y75945D01*
G37*
%LPD*%
%LPC*%
G36*
X930909Y199643D02*
X930909Y199643D01*
X930909Y206540D01*
X931159Y208119D01*
X931654Y209640D01*
X932380Y211065D01*
X933320Y212359D01*
X934451Y213490D01*
X935745Y214430D01*
X937170Y215156D01*
X938691Y215651D01*
X939547Y215786D01*
X939547Y199643D01*
X930909Y199643D01*
G37*
%LPD*%
%LPC*%
G36*
X974089Y70103D02*
X974089Y70103D01*
X974089Y77000D01*
X974339Y78579D01*
X974834Y80100D01*
X975560Y81525D01*
X976500Y82819D01*
X977631Y83950D01*
X978925Y84890D01*
X980350Y85616D01*
X981871Y86111D01*
X982727Y86246D01*
X982727Y70103D01*
X974089Y70103D01*
G37*
%LPD*%
%LPC*%
G36*
X403568Y75945D02*
X403568Y75945D01*
X401989Y76195D01*
X400468Y76690D01*
X399043Y77416D01*
X397749Y78356D01*
X396618Y79487D01*
X395678Y80781D01*
X394952Y82206D01*
X394457Y83727D01*
X394322Y84583D01*
X410465Y84583D01*
X410465Y75945D01*
X403568Y75945D01*
G37*
%LPD*%
%LPC*%
G36*
X685508Y75945D02*
X685508Y75945D01*
X683929Y76195D01*
X682408Y76690D01*
X680983Y77416D01*
X679689Y78356D01*
X678558Y79487D01*
X677618Y80781D01*
X676892Y82206D01*
X676397Y83727D01*
X676262Y84583D01*
X692405Y84583D01*
X692405Y75945D01*
X685508Y75945D01*
G37*
%LPD*%
%LPC*%
G36*
X172682Y75945D02*
X172682Y75945D01*
X171103Y76195D01*
X169582Y76690D01*
X168157Y77416D01*
X166863Y78356D01*
X165732Y79487D01*
X164792Y80781D01*
X164066Y82206D01*
X163571Y83727D01*
X163436Y84583D01*
X179579Y84583D01*
X179579Y75945D01*
X172682Y75945D01*
G37*
%LPD*%
%LPC*%
G36*
X981871Y51049D02*
X981871Y51049D01*
X980350Y51544D01*
X978925Y52270D01*
X977631Y53210D01*
X976500Y54341D01*
X975560Y55635D01*
X974834Y57060D01*
X974339Y58581D01*
X974089Y60160D01*
X974089Y67057D01*
X982727Y67057D01*
X982727Y50914D01*
X981871Y51049D01*
G37*
%LPD*%
%LPC*%
G36*
X107658Y75945D02*
X107658Y75945D01*
X106079Y76195D01*
X104558Y76690D01*
X103133Y77416D01*
X101839Y78356D01*
X100708Y79487D01*
X99768Y80781D01*
X99042Y82206D01*
X98547Y83727D01*
X98412Y84583D01*
X114555Y84583D01*
X114555Y75945D01*
X107658Y75945D01*
G37*
%LPD*%
%LPC*%
G36*
X938691Y180589D02*
X938691Y180589D01*
X937170Y181084D01*
X935745Y181810D01*
X934451Y182750D01*
X933320Y183881D01*
X932380Y185175D01*
X931654Y186600D01*
X931159Y188121D01*
X930909Y189700D01*
X930909Y196597D01*
X939547Y196597D01*
X939547Y180454D01*
X938691Y180589D01*
G37*
%LPD*%
%LPC*%
G36*
X750532Y75945D02*
X750532Y75945D01*
X748953Y76195D01*
X747432Y76690D01*
X746007Y77416D01*
X744713Y78356D01*
X743582Y79487D01*
X742642Y80781D01*
X741916Y82206D01*
X741421Y83727D01*
X741286Y84583D01*
X757429Y84583D01*
X757429Y75945D01*
X750532Y75945D01*
G37*
%LPD*%
%LPC*%
G36*
X468592Y75945D02*
X468592Y75945D01*
X467013Y76195D01*
X465492Y76690D01*
X464067Y77416D01*
X462773Y78356D01*
X461642Y79487D01*
X460702Y80781D01*
X459976Y82206D01*
X459481Y83727D01*
X459346Y84583D01*
X475489Y84583D01*
X475489Y75945D01*
X468592Y75945D01*
G37*
%LPD*%
%LPC*%
G36*
X112561Y466403D02*
X112561Y466403D01*
X112561Y474612D01*
X112734Y475259D01*
X113069Y475838D01*
X113542Y476311D01*
X114121Y476646D01*
X114768Y476819D01*
X122977Y476819D01*
X122977Y466403D01*
X112561Y466403D01*
G37*
%LPD*%
%LPC*%
G36*
X114768Y452941D02*
X114768Y452941D01*
X114121Y453114D01*
X113542Y453449D01*
X113069Y453922D01*
X112734Y454501D01*
X112561Y455148D01*
X112561Y463357D01*
X122977Y463357D01*
X122977Y452941D01*
X114768Y452941D01*
G37*
%LPD*%
%LPC*%
G36*
X1119123Y531143D02*
X1119123Y531143D01*
X1119123Y540161D01*
X1126934Y540161D01*
X1127581Y539988D01*
X1128160Y539653D01*
X1128633Y539180D01*
X1128968Y538601D01*
X1129141Y537954D01*
X1129141Y531143D01*
X1119123Y531143D01*
G37*
%LPD*%
%LPC*%
G36*
X1070863Y531143D02*
X1070863Y531143D01*
X1070863Y540161D01*
X1078674Y540161D01*
X1079321Y539988D01*
X1079900Y539653D01*
X1080373Y539180D01*
X1080708Y538601D01*
X1080881Y537954D01*
X1080881Y531143D01*
X1070863Y531143D01*
G37*
%LPD*%
%LPC*%
G36*
X1130583Y447293D02*
X1130583Y447293D01*
X1130583Y457311D01*
X1137394Y457311D01*
X1138041Y457138D01*
X1138620Y456803D01*
X1139093Y456330D01*
X1139428Y455751D01*
X1139601Y455104D01*
X1139601Y447293D01*
X1130583Y447293D01*
G37*
%LPD*%
%LPC*%
G36*
X912143Y360933D02*
X912143Y360933D01*
X912143Y370951D01*
X918954Y370951D01*
X919601Y370778D01*
X920180Y370443D01*
X920653Y369970D01*
X920988Y369391D01*
X921161Y368744D01*
X921161Y360933D01*
X912143Y360933D01*
G37*
%LPD*%
%LPC*%
G36*
X893063Y287243D02*
X893063Y287243D01*
X893063Y296261D01*
X900874Y296261D01*
X901521Y296088D01*
X902100Y295753D01*
X902573Y295280D01*
X902908Y294701D01*
X903081Y294054D01*
X903081Y287243D01*
X893063Y287243D01*
G37*
%LPD*%
%LPC*%
G36*
X893063Y284197D02*
X893063Y284197D01*
X903081Y284197D01*
X903081Y277386D01*
X902908Y276739D01*
X902573Y276160D01*
X902100Y275687D01*
X901521Y275352D01*
X900874Y275179D01*
X893063Y275179D01*
X893063Y284197D01*
G37*
%LPD*%
%LPC*%
G36*
X1106059Y531143D02*
X1106059Y531143D01*
X1106059Y537954D01*
X1106232Y538601D01*
X1106567Y539180D01*
X1107040Y539653D01*
X1107619Y539988D01*
X1108266Y540161D01*
X1116077Y540161D01*
X1116077Y531143D01*
X1106059Y531143D01*
G37*
%LPD*%
%LPC*%
G36*
X1057799Y531143D02*
X1057799Y531143D01*
X1057799Y537954D01*
X1057972Y538601D01*
X1058307Y539180D01*
X1058780Y539653D01*
X1059359Y539988D01*
X1060006Y540161D01*
X1067817Y540161D01*
X1067817Y531143D01*
X1057799Y531143D01*
G37*
%LPD*%
%LPC*%
G36*
X879999Y287243D02*
X879999Y287243D01*
X879999Y294054D01*
X880172Y294701D01*
X880507Y295280D01*
X880980Y295753D01*
X881559Y296088D01*
X882206Y296261D01*
X890017Y296261D01*
X890017Y287243D01*
X879999Y287243D01*
G37*
%LPD*%
%LPC*%
G36*
X1119123Y519079D02*
X1119123Y519079D01*
X1119123Y528097D01*
X1129141Y528097D01*
X1129141Y521286D01*
X1128968Y520639D01*
X1128633Y520060D01*
X1128160Y519587D01*
X1127581Y519252D01*
X1126934Y519079D01*
X1119123Y519079D01*
G37*
%LPD*%
%LPC*%
G36*
X1070863Y519079D02*
X1070863Y519079D01*
X1070863Y528097D01*
X1080881Y528097D01*
X1080881Y521286D01*
X1080708Y520639D01*
X1080373Y520060D01*
X1079900Y519587D01*
X1079321Y519252D01*
X1078674Y519079D01*
X1070863Y519079D01*
G37*
%LPD*%
%LPC*%
G36*
X1118519Y447293D02*
X1118519Y447293D01*
X1118519Y455104D01*
X1118692Y455751D01*
X1119027Y456330D01*
X1119500Y456803D01*
X1120079Y457138D01*
X1120726Y457311D01*
X1127537Y457311D01*
X1127537Y447293D01*
X1118519Y447293D01*
G37*
%LPD*%
%LPC*%
G36*
X900079Y360933D02*
X900079Y360933D01*
X900079Y368744D01*
X900252Y369391D01*
X900587Y369970D01*
X901060Y370443D01*
X901639Y370778D01*
X902286Y370951D01*
X909097Y370951D01*
X909097Y360933D01*
X900079Y360933D01*
G37*
%LPD*%
%LPC*%
G36*
X912143Y347869D02*
X912143Y347869D01*
X912143Y357887D01*
X921161Y357887D01*
X921161Y350076D01*
X920988Y349429D01*
X920653Y348850D01*
X920180Y348377D01*
X919601Y348042D01*
X918954Y347869D01*
X912143Y347869D01*
G37*
%LPD*%
%LPC*%
G36*
X1130583Y434229D02*
X1130583Y434229D01*
X1130583Y444247D01*
X1139601Y444247D01*
X1139601Y436436D01*
X1139428Y435789D01*
X1139093Y435210D01*
X1138620Y434737D01*
X1138041Y434402D01*
X1137394Y434229D01*
X1130583Y434229D01*
G37*
%LPD*%
%LPC*%
G36*
X1120726Y434229D02*
X1120726Y434229D01*
X1120079Y434402D01*
X1119500Y434737D01*
X1119027Y435210D01*
X1118692Y435789D01*
X1118519Y436436D01*
X1118519Y444247D01*
X1127537Y444247D01*
X1127537Y434229D01*
X1120726Y434229D01*
G37*
%LPD*%
%LPC*%
G36*
X902286Y347869D02*
X902286Y347869D01*
X901639Y348042D01*
X901060Y348377D01*
X900587Y348850D01*
X900252Y349429D01*
X900079Y350076D01*
X900079Y357887D01*
X909097Y357887D01*
X909097Y347869D01*
X902286Y347869D01*
G37*
%LPD*%
%LPC*%
G36*
X882206Y275179D02*
X882206Y275179D01*
X881559Y275352D01*
X880980Y275687D01*
X880507Y276160D01*
X880172Y276739D01*
X879999Y277386D01*
X879999Y284197D01*
X890017Y284197D01*
X890017Y275179D01*
X882206Y275179D01*
G37*
%LPD*%
%LPC*%
G36*
X1060006Y519079D02*
X1060006Y519079D01*
X1059359Y519252D01*
X1058780Y519587D01*
X1058307Y520060D01*
X1057972Y520639D01*
X1057799Y521286D01*
X1057799Y528097D01*
X1067817Y528097D01*
X1067817Y519079D01*
X1060006Y519079D01*
G37*
%LPD*%
%LPC*%
G36*
X1108266Y519079D02*
X1108266Y519079D01*
X1107619Y519252D01*
X1107040Y519587D01*
X1106567Y520060D01*
X1106232Y520639D01*
X1106059Y521286D01*
X1106059Y528097D01*
X1116077Y528097D01*
X1116077Y519079D01*
X1108266Y519079D01*
G37*
%LPD*%
%LPC*%
G36*
X507023Y466403D02*
X507023Y466403D01*
X507023Y476726D01*
X508296Y476525D01*
X510083Y475944D01*
X511757Y475091D01*
X513278Y473986D01*
X514606Y472658D01*
X515711Y471137D01*
X516564Y469463D01*
X517145Y467676D01*
X517346Y466403D01*
X507023Y466403D01*
G37*
%LPD*%
%LPC*%
G36*
X507023Y463357D02*
X507023Y463357D01*
X517346Y463357D01*
X517145Y462084D01*
X516564Y460297D01*
X515711Y458623D01*
X514606Y457102D01*
X513278Y455774D01*
X511757Y454669D01*
X510083Y453816D01*
X508296Y453235D01*
X507023Y453034D01*
X507023Y463357D01*
G37*
%LPD*%
%LPC*%
G36*
X893063Y395479D02*
X893063Y395479D01*
X893063Y402997D01*
X901581Y402997D01*
X901581Y397686D01*
X901408Y397039D01*
X901073Y396460D01*
X900600Y395987D01*
X900021Y395652D01*
X899374Y395479D01*
X893063Y395479D01*
G37*
%LPD*%
%LPC*%
G36*
X883706Y395479D02*
X883706Y395479D01*
X883059Y395652D01*
X882480Y395987D01*
X882007Y396460D01*
X881672Y397039D01*
X881499Y397686D01*
X881499Y402997D01*
X890017Y402997D01*
X890017Y395479D01*
X883706Y395479D01*
G37*
%LPD*%
%LPC*%
G36*
X1180083Y214883D02*
X1180083Y214883D01*
X1180083Y223013D01*
X1182558Y223013D01*
X1188213Y217358D01*
X1188213Y214883D01*
X1180083Y214883D01*
G37*
%LPD*%
%LPC*%
G36*
X1434083Y214883D02*
X1434083Y214883D01*
X1434083Y223013D01*
X1436558Y223013D01*
X1442213Y217358D01*
X1442213Y214883D01*
X1434083Y214883D01*
G37*
%LPD*%
%LPC*%
G36*
X1434083Y203707D02*
X1434083Y203707D01*
X1434083Y211837D01*
X1442213Y211837D01*
X1442213Y209362D01*
X1436558Y203707D01*
X1434083Y203707D01*
G37*
%LPD*%
%LPC*%
G36*
X1180083Y203707D02*
X1180083Y203707D01*
X1180083Y211837D01*
X1188213Y211837D01*
X1188213Y209362D01*
X1182558Y203707D01*
X1180083Y203707D01*
G37*
%LPD*%
%LPC*%
G36*
X1168907Y214883D02*
X1168907Y214883D01*
X1168907Y217358D01*
X1174562Y223013D01*
X1177037Y223013D01*
X1177037Y214883D01*
X1168907Y214883D01*
G37*
%LPD*%
%LPC*%
G36*
X1422907Y214883D02*
X1422907Y214883D01*
X1422907Y217358D01*
X1428562Y223013D01*
X1431037Y223013D01*
X1431037Y214883D01*
X1422907Y214883D01*
G37*
%LPD*%
%LPC*%
G36*
X1428562Y203707D02*
X1428562Y203707D01*
X1422907Y209362D01*
X1422907Y211837D01*
X1431037Y211837D01*
X1431037Y203707D01*
X1428562Y203707D01*
G37*
%LPD*%
%LPC*%
G36*
X1174562Y203707D02*
X1174562Y203707D01*
X1168907Y209362D01*
X1168907Y211837D01*
X1177037Y211837D01*
X1177037Y203707D01*
X1174562Y203707D01*
G37*
%LPD*%
%LPC*%
G36*
X1340943Y64363D02*
X1340943Y64363D01*
X1340943Y70381D01*
X1346754Y70381D01*
X1347401Y70208D01*
X1347980Y69873D01*
X1348453Y69400D01*
X1348788Y68821D01*
X1348961Y68174D01*
X1348961Y64363D01*
X1340943Y64363D01*
G37*
%LPD*%
%LPC*%
G36*
X1329879Y64363D02*
X1329879Y64363D01*
X1329879Y68174D01*
X1330052Y68821D01*
X1330387Y69400D01*
X1330860Y69873D01*
X1331439Y70208D01*
X1332086Y70381D01*
X1337897Y70381D01*
X1337897Y64363D01*
X1329879Y64363D01*
G37*
%LPD*%
%LPC*%
G36*
X1340943Y55299D02*
X1340943Y55299D01*
X1340943Y61317D01*
X1348961Y61317D01*
X1348961Y57506D01*
X1348788Y56859D01*
X1348453Y56280D01*
X1347980Y55807D01*
X1347401Y55472D01*
X1346754Y55299D01*
X1340943Y55299D01*
G37*
%LPD*%
%LPC*%
G36*
X1332086Y55299D02*
X1332086Y55299D01*
X1331439Y55472D01*
X1330860Y55807D01*
X1330387Y56280D01*
X1330052Y56859D01*
X1329879Y57506D01*
X1329879Y61317D01*
X1337897Y61317D01*
X1337897Y55299D01*
X1332086Y55299D01*
G37*
%LPD*%
%LPC*%
G36*
X1058199Y373609D02*
X1058199Y373609D01*
X1058199Y377651D01*
X1063034Y377651D01*
X1063681Y377478D01*
X1064260Y377143D01*
X1064733Y376670D01*
X1065068Y376091D01*
X1065241Y375444D01*
X1065241Y373609D01*
X1058199Y373609D01*
G37*
%LPD*%
%LPC*%
G36*
X1058199Y437109D02*
X1058199Y437109D01*
X1058199Y441151D01*
X1063034Y441151D01*
X1063681Y440978D01*
X1064260Y440643D01*
X1064733Y440170D01*
X1065068Y439591D01*
X1065241Y438944D01*
X1065241Y437109D01*
X1058199Y437109D01*
G37*
%LPD*%
%LPC*%
G36*
X1048159Y373609D02*
X1048159Y373609D01*
X1048159Y375444D01*
X1048332Y376091D01*
X1048667Y376670D01*
X1049140Y377143D01*
X1049719Y377478D01*
X1050366Y377651D01*
X1055201Y377651D01*
X1055201Y373609D01*
X1048159Y373609D01*
G37*
%LPD*%
%LPC*%
G36*
X1048159Y437109D02*
X1048159Y437109D01*
X1048159Y438944D01*
X1048332Y439591D01*
X1048667Y440170D01*
X1049140Y440643D01*
X1049719Y440978D01*
X1050366Y441151D01*
X1055201Y441151D01*
X1055201Y437109D01*
X1048159Y437109D01*
G37*
%LPD*%
%LPC*%
G36*
X1058199Y366569D02*
X1058199Y366569D01*
X1058199Y370611D01*
X1065241Y370611D01*
X1065241Y368776D01*
X1065068Y368129D01*
X1064733Y367550D01*
X1064260Y367077D01*
X1063681Y366742D01*
X1063034Y366569D01*
X1058199Y366569D01*
G37*
%LPD*%
%LPC*%
G36*
X1058199Y379269D02*
X1058199Y379269D01*
X1058199Y383311D01*
X1065241Y383311D01*
X1065241Y381476D01*
X1065068Y380829D01*
X1064733Y380250D01*
X1064260Y379777D01*
X1063681Y379442D01*
X1063034Y379269D01*
X1058199Y379269D01*
G37*
%LPD*%
%LPC*%
G36*
X1058199Y442769D02*
X1058199Y442769D01*
X1058199Y446811D01*
X1065241Y446811D01*
X1065241Y444976D01*
X1065068Y444329D01*
X1064733Y443750D01*
X1064260Y443277D01*
X1063681Y442942D01*
X1063034Y442769D01*
X1058199Y442769D01*
G37*
%LPD*%
%LPC*%
G36*
X1050366Y379269D02*
X1050366Y379269D01*
X1049719Y379442D01*
X1049140Y379777D01*
X1048667Y380250D01*
X1048332Y380829D01*
X1048159Y381476D01*
X1048159Y383311D01*
X1055201Y383311D01*
X1055201Y379269D01*
X1050366Y379269D01*
G37*
%LPD*%
%LPC*%
G36*
X1050366Y442769D02*
X1050366Y442769D01*
X1049719Y442942D01*
X1049140Y443277D01*
X1048667Y443750D01*
X1048332Y444329D01*
X1048159Y444976D01*
X1048159Y446811D01*
X1055201Y446811D01*
X1055201Y442769D01*
X1050366Y442769D01*
G37*
%LPD*%
%LPC*%
G36*
X1050366Y366569D02*
X1050366Y366569D01*
X1049719Y366742D01*
X1049140Y367077D01*
X1048667Y367550D01*
X1048332Y368129D01*
X1048159Y368776D01*
X1048159Y370611D01*
X1055201Y370611D01*
X1055201Y366569D01*
X1050366Y366569D01*
G37*
%LPD*%
%LPC*%
G36*
X984249Y68579D02*
X984249Y68579D01*
X984249Y68581D01*
X984251Y68581D01*
X984251Y68579D01*
X984249Y68579D01*
G37*
%LPD*%
%LPC*%
G36*
X941069Y198119D02*
X941069Y198119D01*
X941069Y198121D01*
X941071Y198121D01*
X941071Y198119D01*
X941069Y198119D01*
G37*
%LPD*%
%LPC*%
G36*
X1178559Y213359D02*
X1178559Y213359D01*
X1178559Y213361D01*
X1178561Y213361D01*
X1178561Y213359D01*
X1178559Y213359D01*
G37*
%LPD*%
%LPC*%
G36*
X1432559Y213359D02*
X1432559Y213359D01*
X1432559Y213361D01*
X1432561Y213361D01*
X1432561Y213359D01*
X1432559Y213359D01*
G37*
%LPD*%
%LPC*%
G36*
X758951Y86105D02*
X758951Y86105D01*
X758951Y86107D01*
X758953Y86107D01*
X758953Y86105D01*
X758951Y86105D01*
G37*
%LPD*%
%LPC*%
G36*
X181101Y86105D02*
X181101Y86105D01*
X181101Y86107D01*
X181103Y86107D01*
X181103Y86105D01*
X181101Y86105D01*
G37*
%LPD*%
%LPC*%
G36*
X477011Y86105D02*
X477011Y86105D01*
X477011Y86107D01*
X477013Y86107D01*
X477013Y86105D01*
X477011Y86105D01*
G37*
%LPD*%
%LPC*%
G36*
X1069339Y529619D02*
X1069339Y529619D01*
X1069339Y529621D01*
X1069341Y529621D01*
X1069341Y529619D01*
X1069339Y529619D01*
G37*
%LPD*%
%LPC*%
G36*
X1117599Y529619D02*
X1117599Y529619D01*
X1117599Y529621D01*
X1117601Y529621D01*
X1117601Y529619D01*
X1117599Y529619D01*
G37*
%LPD*%
%LPC*%
G36*
X1339419Y62839D02*
X1339419Y62839D01*
X1339419Y62841D01*
X1339421Y62841D01*
X1339421Y62839D01*
X1339419Y62839D01*
G37*
%LPD*%
%LPC*%
G36*
X1129059Y445769D02*
X1129059Y445769D01*
X1129059Y445771D01*
X1129061Y445771D01*
X1129061Y445769D01*
X1129059Y445769D01*
G37*
%LPD*%
%LPC*%
G36*
X891539Y285719D02*
X891539Y285719D01*
X891539Y285721D01*
X891541Y285721D01*
X891541Y285719D01*
X891539Y285719D01*
G37*
%LPD*%
%LPC*%
G36*
X910619Y359409D02*
X910619Y359409D01*
X910619Y359411D01*
X910621Y359411D01*
X910621Y359409D01*
X910619Y359409D01*
G37*
%LPD*%
%LPC*%
G36*
X1121409Y218199D02*
X1121409Y218199D01*
X1121409Y218201D01*
X1121411Y218201D01*
X1121411Y218199D01*
X1121409Y218199D01*
G37*
%LPD*%
D10*
X1121410Y188200D03*
X1121410Y218200D03*
D11*
X1069340Y529620D03*
X1069340Y501620D03*
D12*
X993170Y330454D03*
X965170Y330454D03*
D11*
X891540Y313720D03*
X891540Y285720D03*
D12*
X882620Y359410D03*
X910620Y359410D03*
D11*
X1117600Y529620D03*
X1117600Y501620D03*
D12*
X1129060Y445770D03*
X1101060Y445770D03*
D13*
X1170940Y53340D02*
X1186180Y53340D01*
X1186180Y27940D02*
X1170940Y27940D01*
D14*
X124500Y464880D03*
D15*
X149900Y464880D03*
X175300Y464880D03*
X200700Y464880D03*
X226100Y464880D03*
X251500Y464880D03*
X276900Y464880D03*
X302300Y464880D03*
X327700Y464880D03*
X353100Y464880D03*
X378500Y464880D03*
X403900Y464880D03*
X429300Y464880D03*
X454700Y464880D03*
X480100Y464880D03*
X505500Y464880D03*
D16*
X958420Y480720D03*
X936420Y490220D03*
X958420Y499720D03*
X1339420Y43840D03*
X1339420Y62840D03*
X1317420Y53340D03*
D17*
X130962Y119380D03*
X149962Y119380D03*
X1435710Y53340D03*
X1416710Y53340D03*
D18*
X952500Y257200D03*
X952500Y276200D03*
X1005840Y257200D03*
X1005840Y276200D03*
X891540Y423520D03*
X891540Y404520D03*
X891540Y471830D03*
X891540Y490830D03*
D17*
X1259180Y53340D03*
X1240180Y53340D03*
X708050Y119380D03*
X727050Y119380D03*
X427380Y119380D03*
X446380Y119380D03*
D13*
X991870Y190500D02*
X991870Y205740D01*
X966470Y205740D02*
X966470Y190500D01*
X941070Y190500D02*
X941070Y205740D01*
X915670Y205740D02*
X915670Y190500D01*
D19*
X1432560Y187960D03*
X1432560Y264160D03*
X1432560Y289560D03*
X1432560Y365760D03*
X1178560Y264160D03*
X1178560Y238760D03*
X1178560Y289560D03*
X1432560Y238760D03*
X1432560Y391160D03*
X1432560Y416560D03*
X1432560Y441960D03*
X1432560Y518160D03*
X1432560Y543560D03*
X1178560Y365760D03*
X1178560Y340360D03*
X1178560Y314960D03*
X1178560Y416560D03*
X1178560Y391160D03*
X1178560Y467360D03*
X1178560Y441960D03*
X1178560Y543560D03*
X1178560Y213360D03*
X1432560Y213360D03*
X1432560Y467360D03*
X1432560Y314960D03*
X1432560Y492760D03*
X1432560Y340360D03*
X1178560Y187960D03*
X1178560Y492760D03*
X1178560Y518160D03*
D20*
X1000700Y461010D03*
X1000700Y448310D03*
X1000700Y435610D03*
X1000700Y422910D03*
X1000700Y410210D03*
X1000700Y397510D03*
X1000700Y384810D03*
X1000700Y372110D03*
X1056700Y372110D03*
X1056700Y384810D03*
X1056700Y397510D03*
X1056700Y410210D03*
X1056700Y422910D03*
X1056700Y435610D03*
X1056700Y448310D03*
X1056700Y461010D03*
D13*
X484632Y40894D02*
X469392Y40894D01*
X419608Y40894D02*
X404368Y40894D01*
X469392Y86106D02*
X484632Y86106D01*
X419608Y86106D02*
X404368Y86106D01*
X188722Y40894D02*
X173482Y40894D01*
X123698Y40894D02*
X108458Y40894D01*
X173482Y86106D02*
X188722Y86106D01*
X123698Y86106D02*
X108458Y86106D01*
X751332Y40894D02*
X766572Y40894D01*
X701548Y40894D02*
X686308Y40894D01*
X751332Y86106D02*
X766572Y86106D01*
X701548Y86106D02*
X686308Y86106D01*
X933450Y76200D02*
X933450Y60960D01*
X984250Y60960D02*
X984250Y76200D01*
X966470Y119380D02*
X951230Y119380D01*
D21*
X845185Y513715D02*
X859155Y527685D01*
X845185Y513715D02*
X845185Y235585D01*
X750570Y140970D01*
X149900Y165100D02*
X149900Y464880D01*
X1000700Y461010D02*
X1015686Y475996D01*
X1041714Y475996D01*
X469900Y142240D02*
X447040Y119380D01*
X446380Y119380D01*
X859155Y527685D02*
X930455Y527685D01*
X990025Y527685D01*
X1041714Y475996D02*
X1056700Y461010D01*
X1041714Y475996D02*
X990025Y527685D01*
X1056700Y461010D02*
X1069340Y473650D01*
X1069340Y501620D01*
X1056700Y461010D02*
X1085820Y461010D01*
X1101060Y445770D01*
X1101090Y461010D02*
X1085820Y461010D01*
X1101090Y461010D02*
X1117600Y477520D01*
X1117600Y501620D01*
X749300Y142240D02*
X469900Y142240D01*
X930455Y527685D02*
X958420Y499720D01*
X749300Y142240D02*
X750570Y140970D01*
X789940Y101600D01*
X1346200Y101600D02*
X1432560Y187960D01*
X1346200Y101600D02*
X977900Y101600D01*
X966470Y101600D02*
X789940Y101600D01*
X749300Y141630D02*
X727050Y119380D01*
X749300Y141630D02*
X749300Y142240D01*
X469900Y142240D02*
X172822Y142240D01*
X149962Y165100D01*
X149900Y165100D01*
X172822Y142240D02*
X149962Y119380D01*
X933450Y68580D02*
X966470Y101600D01*
X977900Y101600D01*
D22*
X880110Y167640D03*
D21*
X1100850Y167640D02*
X1121410Y188200D01*
X1100850Y167640D02*
X880110Y167640D01*
X1121410Y188200D02*
X1178320Y188200D01*
X1178560Y187960D01*
X1178560Y53340D02*
X1240180Y53340D01*
D23*
X1000700Y384810D02*
X994410Y384810D01*
X965170Y355570D02*
X965170Y330454D01*
X965170Y355570D02*
X994410Y384810D01*
X965170Y330454D02*
X965170Y288870D01*
X952500Y276200D01*
X1000700Y360680D02*
X1000700Y372110D01*
X993170Y353150D02*
X993170Y330454D01*
X993170Y353150D02*
X1000700Y360680D01*
X993170Y330454D02*
X993170Y288870D01*
X1005840Y276200D01*
X966470Y243230D02*
X952500Y257200D01*
X966470Y243230D02*
X966470Y198120D01*
X991870Y243230D02*
X1005840Y257200D01*
X991870Y243230D02*
X991870Y198120D01*
X1000700Y397510D02*
X980440Y397510D01*
X896650Y313720D02*
X891540Y313720D01*
X896650Y313720D02*
X980440Y397510D01*
X891540Y423520D02*
X891540Y471830D01*
X892150Y422910D02*
X1000700Y422910D01*
X892150Y422910D02*
X891540Y423520D01*
X980440Y435610D02*
X1000700Y435610D01*
X980440Y435610D02*
X936420Y479630D01*
X936420Y490220D01*
X891540Y490830D02*
X876910Y490830D01*
X862584Y476504D01*
X862584Y359410D01*
X862584Y284480D01*
X862584Y359410D02*
X882620Y359410D01*
X892150Y490220D02*
X936420Y490220D01*
X892150Y490220D02*
X891540Y490830D01*
X862584Y251206D02*
X915670Y198120D01*
X862584Y251206D02*
X862584Y284480D01*
X990830Y448310D02*
X1000700Y448310D01*
X990830Y448310D02*
X958420Y480720D01*
X1056700Y410210D02*
X1172210Y410210D01*
X1178560Y416560D01*
X1172210Y397510D02*
X1178560Y391160D01*
X1172210Y397510D02*
X1056700Y397510D01*
D21*
X1297940Y53340D02*
X1305560Y53340D01*
X1317420Y53340D01*
X1247140Y27940D02*
X1178560Y27940D01*
X1259180Y39980D02*
X1259180Y53340D01*
X1259180Y39980D02*
X1247140Y27940D01*
X1259180Y53340D02*
X1297940Y53340D01*
D23*
X758952Y40894D02*
X736600Y63246D01*
X716280Y63246D02*
X693928Y40894D01*
X716280Y63246D02*
X736600Y63246D01*
X716280Y63246D02*
X716280Y90412D01*
X708050Y98642D02*
X708050Y119380D01*
X708050Y98642D02*
X716280Y90412D01*
X454660Y63246D02*
X434340Y63246D01*
X411988Y40894D01*
X434340Y63246D02*
X434340Y90560D01*
X427380Y97520D02*
X427380Y119380D01*
X427380Y97520D02*
X434340Y90560D01*
X454660Y63246D02*
X477012Y40894D01*
X130962Y97880D02*
X130962Y119380D01*
X130962Y97880D02*
X137160Y91682D01*
X137160Y61976D01*
X116078Y40894D01*
X160020Y61976D02*
X181102Y40894D01*
X160020Y61976D02*
X137160Y61976D01*
X1435710Y53340D02*
X1460500Y78130D01*
X1460500Y388620D02*
X1432560Y416560D01*
X1460500Y388620D02*
X1460500Y78130D01*
X1416710Y53340D02*
X1384300Y53340D01*
X1374800Y43840D02*
X1339420Y43840D01*
X1374800Y43840D02*
X1384300Y53340D01*
M02*
