G04 EAGLE Gerber RS-274X export*
G75*
%MOMM*%
%FSLAX34Y34*%
%LPD*%
%IN*%
%IPPOS*%
%AMOC8*
5,1,8,0,0,1.08239X$1,22.5*%
G01*
%ADD10C,0.254000*%


D10*
X0Y0D02*
X1498600Y0D01*
X1498600Y558800D01*
X0Y558800D01*
X0Y0D01*
X39400Y532900D02*
X39329Y531903D01*
X39186Y530913D01*
X38974Y529936D01*
X38692Y528976D01*
X38343Y528039D01*
X37927Y527129D01*
X37448Y526252D01*
X36907Y525410D01*
X36308Y524610D01*
X35653Y523854D01*
X34946Y523147D01*
X34190Y522492D01*
X33390Y521893D01*
X32548Y521352D01*
X31671Y520873D01*
X30761Y520457D01*
X29824Y520108D01*
X28865Y519826D01*
X27887Y519614D01*
X26898Y519471D01*
X25900Y519400D01*
X24900Y519400D01*
X23903Y519471D01*
X22913Y519614D01*
X21936Y519826D01*
X20976Y520108D01*
X20039Y520457D01*
X19129Y520873D01*
X18252Y521352D01*
X17410Y521893D01*
X16610Y522492D01*
X15854Y523147D01*
X15147Y523854D01*
X14492Y524610D01*
X13893Y525410D01*
X13352Y526252D01*
X12873Y527129D01*
X12457Y528039D01*
X12108Y528976D01*
X11826Y529936D01*
X11614Y530913D01*
X11471Y531903D01*
X11400Y532900D01*
X11400Y533900D01*
X11471Y534898D01*
X11614Y535887D01*
X11826Y536865D01*
X12108Y537824D01*
X12457Y538761D01*
X12873Y539671D01*
X13352Y540548D01*
X13893Y541390D01*
X14492Y542190D01*
X15147Y542946D01*
X15854Y543653D01*
X16610Y544308D01*
X17410Y544907D01*
X18252Y545448D01*
X19129Y545927D01*
X20039Y546343D01*
X20976Y546692D01*
X21936Y546974D01*
X22913Y547186D01*
X23903Y547329D01*
X24900Y547400D01*
X25900Y547400D01*
X26898Y547329D01*
X27887Y547186D01*
X28865Y546974D01*
X29824Y546692D01*
X30761Y546343D01*
X31671Y545927D01*
X32548Y545448D01*
X33390Y544907D01*
X34190Y544308D01*
X34946Y543653D01*
X35653Y542946D01*
X36308Y542190D01*
X36907Y541390D01*
X37448Y540548D01*
X37927Y539671D01*
X38343Y538761D01*
X38692Y537824D01*
X38974Y536865D01*
X39186Y535887D01*
X39329Y534898D01*
X39400Y533900D01*
X39400Y532900D01*
X39400Y24900D02*
X39329Y23903D01*
X39186Y22913D01*
X38974Y21936D01*
X38692Y20976D01*
X38343Y20039D01*
X37927Y19129D01*
X37448Y18252D01*
X36907Y17410D01*
X36308Y16610D01*
X35653Y15854D01*
X34946Y15147D01*
X34190Y14492D01*
X33390Y13893D01*
X32548Y13352D01*
X31671Y12873D01*
X30761Y12457D01*
X29824Y12108D01*
X28865Y11826D01*
X27887Y11614D01*
X26898Y11471D01*
X25900Y11400D01*
X24900Y11400D01*
X23903Y11471D01*
X22913Y11614D01*
X21936Y11826D01*
X20976Y12108D01*
X20039Y12457D01*
X19129Y12873D01*
X18252Y13352D01*
X17410Y13893D01*
X16610Y14492D01*
X15854Y15147D01*
X15147Y15854D01*
X14492Y16610D01*
X13893Y17410D01*
X13352Y18252D01*
X12873Y19129D01*
X12457Y20039D01*
X12108Y20976D01*
X11826Y21936D01*
X11614Y22913D01*
X11471Y23903D01*
X11400Y24900D01*
X11400Y25900D01*
X11471Y26898D01*
X11614Y27887D01*
X11826Y28865D01*
X12108Y29824D01*
X12457Y30761D01*
X12873Y31671D01*
X13352Y32548D01*
X13893Y33390D01*
X14492Y34190D01*
X15147Y34946D01*
X15854Y35653D01*
X16610Y36308D01*
X17410Y36907D01*
X18252Y37448D01*
X19129Y37927D01*
X20039Y38343D01*
X20976Y38692D01*
X21936Y38974D01*
X22913Y39186D01*
X23903Y39329D01*
X24900Y39400D01*
X25900Y39400D01*
X26898Y39329D01*
X27887Y39186D01*
X28865Y38974D01*
X29824Y38692D01*
X30761Y38343D01*
X31671Y37927D01*
X32548Y37448D01*
X33390Y36907D01*
X34190Y36308D01*
X34946Y35653D01*
X35653Y34946D01*
X36308Y34190D01*
X36907Y33390D01*
X37448Y32548D01*
X37927Y31671D01*
X38343Y30761D01*
X38692Y29824D01*
X38974Y28865D01*
X39186Y27887D01*
X39329Y26898D01*
X39400Y25900D01*
X39400Y24900D01*
X1487200Y24900D02*
X1487129Y23903D01*
X1486986Y22913D01*
X1486774Y21936D01*
X1486492Y20976D01*
X1486143Y20039D01*
X1485727Y19129D01*
X1485248Y18252D01*
X1484707Y17410D01*
X1484108Y16610D01*
X1483453Y15854D01*
X1482746Y15147D01*
X1481990Y14492D01*
X1481190Y13893D01*
X1480348Y13352D01*
X1479471Y12873D01*
X1478561Y12457D01*
X1477624Y12108D01*
X1476665Y11826D01*
X1475687Y11614D01*
X1474698Y11471D01*
X1473700Y11400D01*
X1472700Y11400D01*
X1471703Y11471D01*
X1470713Y11614D01*
X1469736Y11826D01*
X1468776Y12108D01*
X1467839Y12457D01*
X1466929Y12873D01*
X1466052Y13352D01*
X1465210Y13893D01*
X1464410Y14492D01*
X1463654Y15147D01*
X1462947Y15854D01*
X1462292Y16610D01*
X1461693Y17410D01*
X1461152Y18252D01*
X1460673Y19129D01*
X1460257Y20039D01*
X1459908Y20976D01*
X1459626Y21936D01*
X1459414Y22913D01*
X1459271Y23903D01*
X1459200Y24900D01*
X1459200Y25900D01*
X1459271Y26898D01*
X1459414Y27887D01*
X1459626Y28865D01*
X1459908Y29824D01*
X1460257Y30761D01*
X1460673Y31671D01*
X1461152Y32548D01*
X1461693Y33390D01*
X1462292Y34190D01*
X1462947Y34946D01*
X1463654Y35653D01*
X1464410Y36308D01*
X1465210Y36907D01*
X1466052Y37448D01*
X1466929Y37927D01*
X1467839Y38343D01*
X1468776Y38692D01*
X1469736Y38974D01*
X1470713Y39186D01*
X1471703Y39329D01*
X1472700Y39400D01*
X1473700Y39400D01*
X1474698Y39329D01*
X1475687Y39186D01*
X1476665Y38974D01*
X1477624Y38692D01*
X1478561Y38343D01*
X1479471Y37927D01*
X1480348Y37448D01*
X1481190Y36907D01*
X1481990Y36308D01*
X1482746Y35653D01*
X1483453Y34946D01*
X1484108Y34190D01*
X1484707Y33390D01*
X1485248Y32548D01*
X1485727Y31671D01*
X1486143Y30761D01*
X1486492Y29824D01*
X1486774Y28865D01*
X1486986Y27887D01*
X1487129Y26898D01*
X1487200Y25900D01*
X1487200Y24900D01*
X1487200Y532900D02*
X1487129Y531903D01*
X1486986Y530913D01*
X1486774Y529936D01*
X1486492Y528976D01*
X1486143Y528039D01*
X1485727Y527129D01*
X1485248Y526252D01*
X1484707Y525410D01*
X1484108Y524610D01*
X1483453Y523854D01*
X1482746Y523147D01*
X1481990Y522492D01*
X1481190Y521893D01*
X1480348Y521352D01*
X1479471Y520873D01*
X1478561Y520457D01*
X1477624Y520108D01*
X1476665Y519826D01*
X1475687Y519614D01*
X1474698Y519471D01*
X1473700Y519400D01*
X1472700Y519400D01*
X1471703Y519471D01*
X1470713Y519614D01*
X1469736Y519826D01*
X1468776Y520108D01*
X1467839Y520457D01*
X1466929Y520873D01*
X1466052Y521352D01*
X1465210Y521893D01*
X1464410Y522492D01*
X1463654Y523147D01*
X1462947Y523854D01*
X1462292Y524610D01*
X1461693Y525410D01*
X1461152Y526252D01*
X1460673Y527129D01*
X1460257Y528039D01*
X1459908Y528976D01*
X1459626Y529936D01*
X1459414Y530913D01*
X1459271Y531903D01*
X1459200Y532900D01*
X1459200Y533900D01*
X1459271Y534898D01*
X1459414Y535887D01*
X1459626Y536865D01*
X1459908Y537824D01*
X1460257Y538761D01*
X1460673Y539671D01*
X1461152Y540548D01*
X1461693Y541390D01*
X1462292Y542190D01*
X1462947Y542946D01*
X1463654Y543653D01*
X1464410Y544308D01*
X1465210Y544907D01*
X1466052Y545448D01*
X1466929Y545927D01*
X1467839Y546343D01*
X1468776Y546692D01*
X1469736Y546974D01*
X1470713Y547186D01*
X1471703Y547329D01*
X1472700Y547400D01*
X1473700Y547400D01*
X1474698Y547329D01*
X1475687Y547186D01*
X1476665Y546974D01*
X1477624Y546692D01*
X1478561Y546343D01*
X1479471Y545927D01*
X1480348Y545448D01*
X1481190Y544907D01*
X1481990Y544308D01*
X1482746Y543653D01*
X1483453Y542946D01*
X1484108Y542190D01*
X1484707Y541390D01*
X1485248Y540548D01*
X1485727Y539671D01*
X1486143Y538761D01*
X1486492Y537824D01*
X1486774Y536865D01*
X1486986Y535887D01*
X1487129Y534898D01*
X1487200Y533900D01*
X1487200Y532900D01*
X83500Y464380D02*
X83429Y463383D01*
X83286Y462393D01*
X83074Y461416D01*
X82792Y460456D01*
X82443Y459519D01*
X82027Y458609D01*
X81548Y457732D01*
X81007Y456890D01*
X80408Y456090D01*
X79753Y455334D01*
X79046Y454627D01*
X78290Y453972D01*
X77490Y453373D01*
X76648Y452832D01*
X75771Y452353D01*
X74861Y451937D01*
X73924Y451588D01*
X72965Y451306D01*
X71987Y451094D01*
X70998Y450951D01*
X70000Y450880D01*
X69000Y450880D01*
X68003Y450951D01*
X67013Y451094D01*
X66036Y451306D01*
X65076Y451588D01*
X64139Y451937D01*
X63229Y452353D01*
X62352Y452832D01*
X61510Y453373D01*
X60710Y453972D01*
X59954Y454627D01*
X59247Y455334D01*
X58592Y456090D01*
X57993Y456890D01*
X57452Y457732D01*
X56973Y458609D01*
X56557Y459519D01*
X56208Y460456D01*
X55926Y461416D01*
X55714Y462393D01*
X55571Y463383D01*
X55500Y464380D01*
X55500Y465380D01*
X55571Y466378D01*
X55714Y467367D01*
X55926Y468345D01*
X56208Y469304D01*
X56557Y470241D01*
X56973Y471151D01*
X57452Y472028D01*
X57993Y472870D01*
X58592Y473670D01*
X59247Y474426D01*
X59954Y475133D01*
X60710Y475788D01*
X61510Y476387D01*
X62352Y476928D01*
X63229Y477407D01*
X64139Y477823D01*
X65076Y478172D01*
X66036Y478454D01*
X67013Y478666D01*
X68003Y478809D01*
X69000Y478880D01*
X70000Y478880D01*
X70998Y478809D01*
X71987Y478666D01*
X72965Y478454D01*
X73924Y478172D01*
X74861Y477823D01*
X75771Y477407D01*
X76648Y476928D01*
X77490Y476387D01*
X78290Y475788D01*
X79046Y475133D01*
X79753Y474426D01*
X80408Y473670D01*
X81007Y472870D01*
X81548Y472028D01*
X82027Y471151D01*
X82443Y470241D01*
X82792Y469304D01*
X83074Y468345D01*
X83286Y467367D01*
X83429Y466378D01*
X83500Y465380D01*
X83500Y464380D01*
X83500Y154380D02*
X83429Y153383D01*
X83286Y152393D01*
X83074Y151416D01*
X82792Y150456D01*
X82443Y149519D01*
X82027Y148609D01*
X81548Y147732D01*
X81007Y146890D01*
X80408Y146090D01*
X79753Y145334D01*
X79046Y144627D01*
X78290Y143972D01*
X77490Y143373D01*
X76648Y142832D01*
X75771Y142353D01*
X74861Y141937D01*
X73924Y141588D01*
X72965Y141306D01*
X71987Y141094D01*
X70998Y140951D01*
X70000Y140880D01*
X69000Y140880D01*
X68003Y140951D01*
X67013Y141094D01*
X66036Y141306D01*
X65076Y141588D01*
X64139Y141937D01*
X63229Y142353D01*
X62352Y142832D01*
X61510Y143373D01*
X60710Y143972D01*
X59954Y144627D01*
X59247Y145334D01*
X58592Y146090D01*
X57993Y146890D01*
X57452Y147732D01*
X56973Y148609D01*
X56557Y149519D01*
X56208Y150456D01*
X55926Y151416D01*
X55714Y152393D01*
X55571Y153383D01*
X55500Y154380D01*
X55500Y155380D01*
X55571Y156378D01*
X55714Y157367D01*
X55926Y158345D01*
X56208Y159304D01*
X56557Y160241D01*
X56973Y161151D01*
X57452Y162028D01*
X57993Y162870D01*
X58592Y163670D01*
X59247Y164426D01*
X59954Y165133D01*
X60710Y165788D01*
X61510Y166387D01*
X62352Y166928D01*
X63229Y167407D01*
X64139Y167823D01*
X65076Y168172D01*
X66036Y168454D01*
X67013Y168666D01*
X68003Y168809D01*
X69000Y168880D01*
X70000Y168880D01*
X70998Y168809D01*
X71987Y168666D01*
X72965Y168454D01*
X73924Y168172D01*
X74861Y167823D01*
X75771Y167407D01*
X76648Y166928D01*
X77490Y166387D01*
X78290Y165788D01*
X79046Y165133D01*
X79753Y164426D01*
X80408Y163670D01*
X81007Y162870D01*
X81548Y162028D01*
X82027Y161151D01*
X82443Y160241D01*
X82792Y159304D01*
X83074Y158345D01*
X83286Y157367D01*
X83429Y156378D01*
X83500Y155380D01*
X83500Y154380D01*
X833500Y464380D02*
X833429Y463383D01*
X833286Y462393D01*
X833074Y461416D01*
X832792Y460456D01*
X832443Y459519D01*
X832027Y458609D01*
X831548Y457732D01*
X831007Y456890D01*
X830408Y456090D01*
X829753Y455334D01*
X829046Y454627D01*
X828290Y453972D01*
X827490Y453373D01*
X826648Y452832D01*
X825771Y452353D01*
X824861Y451937D01*
X823924Y451588D01*
X822965Y451306D01*
X821987Y451094D01*
X820998Y450951D01*
X820000Y450880D01*
X819000Y450880D01*
X818003Y450951D01*
X817013Y451094D01*
X816036Y451306D01*
X815076Y451588D01*
X814139Y451937D01*
X813229Y452353D01*
X812352Y452832D01*
X811510Y453373D01*
X810710Y453972D01*
X809954Y454627D01*
X809247Y455334D01*
X808592Y456090D01*
X807993Y456890D01*
X807452Y457732D01*
X806973Y458609D01*
X806557Y459519D01*
X806208Y460456D01*
X805926Y461416D01*
X805714Y462393D01*
X805571Y463383D01*
X805500Y464380D01*
X805500Y465380D01*
X805571Y466378D01*
X805714Y467367D01*
X805926Y468345D01*
X806208Y469304D01*
X806557Y470241D01*
X806973Y471151D01*
X807452Y472028D01*
X807993Y472870D01*
X808592Y473670D01*
X809247Y474426D01*
X809954Y475133D01*
X810710Y475788D01*
X811510Y476387D01*
X812352Y476928D01*
X813229Y477407D01*
X814139Y477823D01*
X815076Y478172D01*
X816036Y478454D01*
X817013Y478666D01*
X818003Y478809D01*
X819000Y478880D01*
X820000Y478880D01*
X820998Y478809D01*
X821987Y478666D01*
X822965Y478454D01*
X823924Y478172D01*
X824861Y477823D01*
X825771Y477407D01*
X826648Y476928D01*
X827490Y476387D01*
X828290Y475788D01*
X829046Y475133D01*
X829753Y474426D01*
X830408Y473670D01*
X831007Y472870D01*
X831548Y472028D01*
X832027Y471151D01*
X832443Y470241D01*
X832792Y469304D01*
X833074Y468345D01*
X833286Y467367D01*
X833429Y466378D01*
X833500Y465380D01*
X833500Y464380D01*
X833500Y154380D02*
X833429Y153383D01*
X833286Y152393D01*
X833074Y151416D01*
X832792Y150456D01*
X832443Y149519D01*
X832027Y148609D01*
X831548Y147732D01*
X831007Y146890D01*
X830408Y146090D01*
X829753Y145334D01*
X829046Y144627D01*
X828290Y143972D01*
X827490Y143373D01*
X826648Y142832D01*
X825771Y142353D01*
X824861Y141937D01*
X823924Y141588D01*
X822965Y141306D01*
X821987Y141094D01*
X820998Y140951D01*
X820000Y140880D01*
X819000Y140880D01*
X818003Y140951D01*
X817013Y141094D01*
X816036Y141306D01*
X815076Y141588D01*
X814139Y141937D01*
X813229Y142353D01*
X812352Y142832D01*
X811510Y143373D01*
X810710Y143972D01*
X809954Y144627D01*
X809247Y145334D01*
X808592Y146090D01*
X807993Y146890D01*
X807452Y147732D01*
X806973Y148609D01*
X806557Y149519D01*
X806208Y150456D01*
X805926Y151416D01*
X805714Y152393D01*
X805571Y153383D01*
X805500Y154380D01*
X805500Y155380D01*
X805571Y156378D01*
X805714Y157367D01*
X805926Y158345D01*
X806208Y159304D01*
X806557Y160241D01*
X806973Y161151D01*
X807452Y162028D01*
X807993Y162870D01*
X808592Y163670D01*
X809247Y164426D01*
X809954Y165133D01*
X810710Y165788D01*
X811510Y166387D01*
X812352Y166928D01*
X813229Y167407D01*
X814139Y167823D01*
X815076Y168172D01*
X816036Y168454D01*
X817013Y168666D01*
X818003Y168809D01*
X819000Y168880D01*
X820000Y168880D01*
X820998Y168809D01*
X821987Y168666D01*
X822965Y168454D01*
X823924Y168172D01*
X824861Y167823D01*
X825771Y167407D01*
X826648Y166928D01*
X827490Y166387D01*
X828290Y165788D01*
X829046Y165133D01*
X829753Y164426D01*
X830408Y163670D01*
X831007Y162870D01*
X831548Y162028D01*
X832027Y161151D01*
X832443Y160241D01*
X832792Y159304D01*
X833074Y158345D01*
X833286Y157367D01*
X833429Y156378D01*
X833500Y155380D01*
X833500Y154380D01*
M02*
