G04 EAGLE Gerber RS-274X export*
G75*
%MOMM*%
%FSLAX34Y34*%
%LPD*%
%INSilkscreen Bottom*%
%IPPOS*%
%AMOC8*
5,1,8,0,0,1.08239X$1,22.5*%
G01*
%ADD10C,0.127000*%


D10*
X510159Y437769D02*
X510159Y449199D01*
X506984Y449199D01*
X506873Y449197D01*
X506763Y449191D01*
X506652Y449182D01*
X506542Y449168D01*
X506433Y449151D01*
X506324Y449130D01*
X506216Y449105D01*
X506109Y449076D01*
X506003Y449044D01*
X505898Y449008D01*
X505795Y448968D01*
X505693Y448925D01*
X505592Y448878D01*
X505493Y448827D01*
X505397Y448774D01*
X505302Y448717D01*
X505209Y448656D01*
X505118Y448593D01*
X505029Y448526D01*
X504943Y448456D01*
X504860Y448383D01*
X504778Y448308D01*
X504700Y448230D01*
X504625Y448148D01*
X504552Y448065D01*
X504482Y447979D01*
X504415Y447890D01*
X504352Y447799D01*
X504291Y447706D01*
X504234Y447612D01*
X504181Y447515D01*
X504130Y447416D01*
X504083Y447315D01*
X504040Y447213D01*
X504000Y447110D01*
X503964Y447005D01*
X503932Y446899D01*
X503903Y446792D01*
X503878Y446684D01*
X503857Y446575D01*
X503840Y446466D01*
X503826Y446356D01*
X503817Y446245D01*
X503811Y446135D01*
X503809Y446024D01*
X503811Y445913D01*
X503817Y445803D01*
X503826Y445692D01*
X503840Y445582D01*
X503857Y445473D01*
X503878Y445364D01*
X503903Y445256D01*
X503932Y445149D01*
X503964Y445043D01*
X504000Y444938D01*
X504040Y444835D01*
X504083Y444733D01*
X504130Y444632D01*
X504181Y444533D01*
X504234Y444437D01*
X504291Y444342D01*
X504352Y444249D01*
X504415Y444158D01*
X504482Y444069D01*
X504552Y443983D01*
X504625Y443900D01*
X504700Y443818D01*
X504778Y443740D01*
X504860Y443665D01*
X504943Y443592D01*
X505029Y443522D01*
X505118Y443455D01*
X505209Y443392D01*
X505302Y443331D01*
X505397Y443274D01*
X505493Y443221D01*
X505592Y443170D01*
X505693Y443123D01*
X505795Y443080D01*
X505898Y443040D01*
X506003Y443004D01*
X506109Y442972D01*
X506216Y442943D01*
X506324Y442918D01*
X506433Y442897D01*
X506542Y442880D01*
X506652Y442866D01*
X506763Y442857D01*
X506873Y442851D01*
X506984Y442849D01*
X510159Y442849D01*
X506349Y442849D02*
X503809Y437769D01*
X492461Y446342D02*
X492463Y446446D01*
X492469Y446551D01*
X492478Y446655D01*
X492491Y446758D01*
X492509Y446861D01*
X492529Y446963D01*
X492554Y447065D01*
X492582Y447165D01*
X492614Y447265D01*
X492650Y447363D01*
X492689Y447460D01*
X492731Y447555D01*
X492777Y447649D01*
X492827Y447741D01*
X492879Y447831D01*
X492935Y447919D01*
X492995Y448005D01*
X493057Y448089D01*
X493122Y448170D01*
X493190Y448249D01*
X493262Y448326D01*
X493335Y448399D01*
X493412Y448471D01*
X493491Y448539D01*
X493572Y448604D01*
X493656Y448666D01*
X493742Y448726D01*
X493830Y448782D01*
X493920Y448834D01*
X494012Y448884D01*
X494106Y448930D01*
X494201Y448972D01*
X494298Y449011D01*
X494396Y449047D01*
X494496Y449079D01*
X494596Y449107D01*
X494698Y449132D01*
X494800Y449152D01*
X494903Y449170D01*
X495006Y449183D01*
X495110Y449192D01*
X495215Y449198D01*
X495319Y449200D01*
X495319Y449199D02*
X495437Y449197D01*
X495556Y449191D01*
X495674Y449182D01*
X495791Y449169D01*
X495908Y449151D01*
X496025Y449131D01*
X496141Y449106D01*
X496256Y449078D01*
X496369Y449045D01*
X496482Y449010D01*
X496594Y448970D01*
X496704Y448928D01*
X496813Y448881D01*
X496921Y448831D01*
X497026Y448778D01*
X497130Y448721D01*
X497232Y448661D01*
X497332Y448598D01*
X497430Y448531D01*
X497526Y448462D01*
X497619Y448389D01*
X497710Y448313D01*
X497799Y448235D01*
X497885Y448153D01*
X497968Y448069D01*
X498049Y447983D01*
X498126Y447893D01*
X498201Y447802D01*
X498273Y447708D01*
X498342Y447611D01*
X498407Y447513D01*
X498470Y447412D01*
X498529Y447309D01*
X498585Y447205D01*
X498637Y447099D01*
X498686Y446991D01*
X498731Y446882D01*
X498773Y446771D01*
X498811Y446659D01*
X493414Y444120D02*
X493338Y444195D01*
X493263Y444274D01*
X493192Y444355D01*
X493123Y444439D01*
X493058Y444525D01*
X492996Y444613D01*
X492936Y444703D01*
X492880Y444795D01*
X492827Y444890D01*
X492778Y444986D01*
X492732Y445084D01*
X492689Y445183D01*
X492650Y445284D01*
X492615Y445386D01*
X492583Y445489D01*
X492555Y445593D01*
X492530Y445698D01*
X492509Y445805D01*
X492492Y445911D01*
X492479Y446018D01*
X492470Y446126D01*
X492464Y446234D01*
X492462Y446342D01*
X493414Y444119D02*
X498812Y437769D01*
X492462Y437769D01*
M02*
