G04 EAGLE Gerber RS-274X export*
G75*
%MOMM*%
%FSLAX34Y34*%
%LPD*%
%INSoldermask Bottom*%
%IPPOS*%
%AMOC8*
5,1,8,0,0,1.08239X$1,22.5*%
G01*
%ADD10C,2.927000*%
%ADD11C,1.651000*%
%ADD12R,2.006600X2.006600*%
%ADD13C,2.006600*%
%ADD14R,1.427000X1.627000*%
%ADD15P,1.677055X8X22.500000*%
%ADD16C,0.652000*%


D10*
X25400Y533400D03*
X25400Y25400D03*
X1473200Y25400D03*
X1473200Y533400D03*
D11*
X1186180Y53340D02*
X1170940Y53340D01*
X1170940Y27940D02*
X1186180Y27940D01*
D12*
X124500Y464880D03*
D13*
X149900Y464880D03*
X175300Y464880D03*
X200700Y464880D03*
X226100Y464880D03*
X251500Y464880D03*
X276900Y464880D03*
X302300Y464880D03*
X327700Y464880D03*
X353100Y464880D03*
X378500Y464880D03*
X403900Y464880D03*
X429300Y464880D03*
X454700Y464880D03*
X480100Y464880D03*
X505500Y464880D03*
D10*
X69500Y464880D03*
X69500Y154880D03*
X819500Y464880D03*
X819500Y154880D03*
D14*
X498958Y425450D03*
X479958Y425450D03*
D11*
X991870Y205740D02*
X991870Y190500D01*
X966470Y190500D02*
X966470Y205740D01*
X941070Y205740D02*
X941070Y190500D01*
X915670Y190500D02*
X915670Y205740D01*
D15*
X1432560Y187960D03*
X1432560Y264160D03*
X1432560Y289560D03*
X1432560Y365760D03*
X1178560Y264160D03*
X1178560Y238760D03*
X1178560Y289560D03*
X1432560Y238760D03*
X1432560Y391160D03*
X1432560Y416560D03*
X1432560Y441960D03*
X1432560Y518160D03*
X1432560Y543560D03*
X1178560Y365760D03*
X1178560Y340360D03*
X1178560Y314960D03*
X1178560Y416560D03*
X1178560Y391160D03*
X1178560Y467360D03*
X1178560Y441960D03*
X1178560Y543560D03*
X1178560Y213360D03*
X1432560Y213360D03*
X1432560Y467360D03*
X1432560Y314960D03*
X1432560Y492760D03*
X1432560Y340360D03*
X1178560Y187960D03*
X1178560Y492760D03*
X1178560Y518160D03*
D11*
X484632Y40894D02*
X469392Y40894D01*
X419608Y40894D02*
X404368Y40894D01*
X469392Y86106D02*
X484632Y86106D01*
X419608Y86106D02*
X404368Y86106D01*
X188722Y40894D02*
X173482Y40894D01*
X123698Y40894D02*
X108458Y40894D01*
X173482Y86106D02*
X188722Y86106D01*
X123698Y86106D02*
X108458Y86106D01*
X751332Y40894D02*
X766572Y40894D01*
X701548Y40894D02*
X686308Y40894D01*
X751332Y86106D02*
X766572Y86106D01*
X701548Y86106D02*
X686308Y86106D01*
X933450Y76200D02*
X933450Y60960D01*
X984250Y60960D02*
X984250Y76200D01*
X966470Y119380D02*
X951230Y119380D01*
D16*
X880110Y167640D03*
M02*
