M48
;GenerationSoftware,Autodesk,EAGLE,9.6.1*%
;CreationDate,2020-12-30T19:25:04Z*%
FMAT,2
ICI,OFF
METRIC,TZ,000.000
T4C0.350
T3C0.900
T2C1.016
T1C2.800
%
G90
M71
T1
X147320Y53340
X6950Y46488
X6950Y15488
X81950Y46488
X81950Y15488
X2540Y53340
X2540Y2540
X147320Y2540
T2
X117856Y5334
X30230Y46488
X117856Y2794
X12450Y46488
X14990Y46488
X17530Y46488
X20070Y46488
X22610Y46488
X25150Y46488
X27690Y46488
X18110Y8611
X32770Y46488
X35310Y46488
X37850Y46488
X40390Y46488
X42930Y46488
X45470Y46488
X48010Y46488
X50550Y46488
X99187Y19812
X96647Y19812
X94107Y19812
X91567Y19812
X11608Y8611
X75895Y4089
X69393Y4089
X75895Y8611
X69393Y8611
X93345Y6858
X98425Y6858
X95885Y11938
X11608Y4089
X47701Y4089
X41199Y4089
X47701Y8611
X41199Y8611
X18110Y4089
T3
X143256Y18796
X143256Y26416
X143256Y28956
X143256Y36576
X117856Y26416
X117856Y23876
X117856Y28956
X143256Y21336
X143256Y46736
X143256Y31496
X143256Y49276
X143256Y39116
X117856Y18796
X117856Y49276
X117856Y51816
X143256Y41656
X143256Y44196
X143256Y51816
X143256Y54356
X117856Y36576
X143256Y23876
X117856Y34036
X117856Y31496
X117856Y41656
X117856Y39116
X117856Y46736
X117856Y44196
X117856Y54356
X117856Y21336
X143256Y34036
T4
X88011Y16764
M30